<svg width="310" height="166" viewBox="0 0 310 166" fill="none" xmlns="http://www.w3.org/2000/svg">
<path d="M107.855 60.6538H103.636V49.1046C103.636 48.786 103.641 48.3947 103.65 47.9305C103.659 47.4573 103.673 46.9749 103.691 46.4835C103.709 45.9829 103.727 45.5324 103.746 45.1319C103.646 45.2503 103.441 45.455 103.131 45.7463C102.831 46.0284 102.549 46.2832 102.285 46.5108L99.9915 48.3537L97.9574 45.8145L104.387 40.6952H107.855V60.6538ZM115.404 60.6538L122.899 44.2446H113.056V40.6952H127.377V43.3436L119.827 60.6538H115.404ZM146.557 43.9306C145.747 43.9306 145.028 44.0899 144.4 44.4084C143.781 44.7178 143.258 45.1684 142.83 45.7599C142.412 46.3515 142.093 47.0659 141.875 47.9032C141.656 48.7405 141.547 49.6825 141.547 50.7291C141.547 52.1398 141.72 53.3457 142.066 54.3468C142.421 55.3388 142.967 56.0987 143.704 56.6266C144.441 57.1453 145.392 57.4047 146.557 57.4047C147.367 57.4047 148.177 57.3137 148.987 57.1317C149.806 56.9497 150.694 56.6903 151.649 56.3536V59.903C150.766 60.267 149.897 60.5264 149.042 60.6811C148.186 60.8449 147.226 60.9268 146.161 60.9268C144.104 60.9268 142.412 60.5036 141.083 59.6572C139.763 58.8017 138.785 57.6095 138.148 56.0805C137.511 54.5424 137.192 52.7495 137.192 50.7018C137.192 49.191 137.397 47.8077 137.806 46.5517C138.216 45.2958 138.817 44.2082 139.608 43.289C140.4 42.3698 141.379 41.6599 142.544 41.1593C143.708 40.6588 145.046 40.4085 146.557 40.4085C147.549 40.4085 148.541 40.5359 149.533 40.7907C150.534 41.0365 151.49 41.3778 152.4 41.8146L151.035 45.2548C150.289 44.8999 149.538 44.5904 148.782 44.3265C148.027 44.0626 147.285 43.9306 146.557 43.9306ZM159.745 45.3913V60.6538H155.581V45.3913H159.745ZM157.669 39.4119C158.288 39.4119 158.821 39.5575 159.267 39.8488C159.713 40.1309 159.936 40.6633 159.936 41.446C159.936 42.2196 159.713 42.7566 159.267 43.0569C158.821 43.3481 158.288 43.4938 157.669 43.4938C157.042 43.4938 156.505 43.3481 156.059 43.0569C155.622 42.7566 155.403 42.2196 155.403 41.446C155.403 40.6633 155.622 40.1309 156.059 39.8488C156.505 39.5575 157.042 39.4119 157.669 39.4119ZM170.557 57.6095C171.012 57.6095 171.453 57.564 171.881 57.473C172.318 57.382 172.75 57.2682 173.178 57.1317V60.2306C172.732 60.4308 172.177 60.5947 171.512 60.7221C170.857 60.8586 170.138 60.9268 169.355 60.9268C168.445 60.9268 167.626 60.7812 166.898 60.49C166.179 60.1897 165.61 59.6754 165.192 58.9474C164.782 58.2102 164.577 57.1863 164.577 55.8758V48.5175H162.584V46.7565L164.878 45.364L166.079 42.1422H168.741V45.3913H173.014V48.5175H168.741V55.8758C168.741 56.4582 168.905 56.8951 169.232 57.1863C169.569 57.4684 170.011 57.6095 170.557 57.6095ZM180.44 45.3913V60.6538H176.277V45.3913H180.44ZM178.365 39.4119C178.984 39.4119 179.517 39.5575 179.963 39.8488C180.408 40.1309 180.631 40.6633 180.631 41.446C180.631 42.2196 180.408 42.7566 179.963 43.0569C179.517 43.3481 178.984 43.4938 178.365 43.4938C177.737 43.4938 177.2 43.3481 176.754 43.0569C176.318 42.7566 176.099 42.2196 176.099 41.446C176.099 40.6633 176.318 40.1309 176.754 39.8488C177.2 39.5575 177.737 39.4119 178.365 39.4119ZM191.116 45.1046C192.527 45.1046 193.742 45.3777 194.761 45.9237C195.78 46.4607 196.567 47.2434 197.123 48.2718C197.678 49.3002 197.955 50.5562 197.955 52.0397V54.0601H188.113C188.158 55.2341 188.508 56.1579 189.164 56.8314C189.828 57.4957 190.747 57.8279 191.921 57.8279C192.895 57.8279 193.787 57.7278 194.597 57.5276C195.407 57.3274 196.24 57.027 197.095 56.6266V59.8484C196.34 60.2215 195.548 60.4945 194.72 60.6675C193.901 60.8404 192.904 60.9268 191.73 60.9268C190.201 60.9268 188.845 60.6447 187.662 60.0804C186.488 59.5162 185.564 58.6561 184.891 57.5003C184.226 56.3445 183.894 54.8883 183.894 53.1318C183.894 51.348 184.195 49.8645 184.795 48.6814C185.405 47.4891 186.251 46.5972 187.334 46.0056C188.417 45.405 189.678 45.1046 191.116 45.1046ZM191.143 48.067C190.333 48.067 189.66 48.3264 189.123 48.8452C188.595 49.3639 188.29 50.1785 188.208 51.2888H194.051C194.042 50.6699 193.928 50.1193 193.71 49.637C193.5 49.1546 193.182 48.7724 192.754 48.4902C192.335 48.2081 191.798 48.067 191.143 48.067ZM211.989 56.1215C211.989 57.159 211.743 58.0373 211.252 58.7562C210.77 59.4661 210.046 60.0076 209.081 60.3808C208.117 60.7448 206.915 60.9268 205.477 60.9268C204.413 60.9268 203.498 60.8586 202.733 60.7221C201.978 60.5856 201.214 60.358 200.44 60.0395V56.5993C201.268 56.9724 202.155 57.2819 203.102 57.5276C204.058 57.7642 204.895 57.8825 205.614 57.8825C206.424 57.8825 207.002 57.7642 207.348 57.5276C207.703 57.2819 207.88 56.9633 207.88 56.572C207.88 56.3172 207.807 56.0896 207.662 55.8894C207.525 55.6801 207.225 55.448 206.761 55.1932C206.296 54.9292 205.568 54.588 204.576 54.1693C203.621 53.7689 202.834 53.3639 202.215 52.9543C201.605 52.5448 201.15 52.0624 200.849 51.5072C200.558 50.943 200.413 50.2285 200.413 49.3639C200.413 47.9533 200.959 46.893 202.051 46.1831C203.152 45.4641 204.622 45.1046 206.46 45.1046C207.407 45.1046 208.308 45.2002 209.163 45.3913C210.028 45.5824 210.915 45.8873 211.825 46.306L210.569 49.3093C209.814 48.9817 209.1 48.7132 208.426 48.5039C207.762 48.2946 207.084 48.1899 206.392 48.1899C205.782 48.1899 205.323 48.2718 205.013 48.4356C204.704 48.5995 204.549 48.8497 204.549 49.1865C204.549 49.4322 204.626 49.6506 204.781 49.8417C204.945 50.0329 205.254 50.2467 205.709 50.4834C206.174 50.7109 206.852 51.0067 207.744 51.3707C208.608 51.7257 209.359 52.0988 209.996 52.4902C210.633 52.8724 211.125 53.3502 211.47 53.9236C211.816 54.4878 211.989 55.2205 211.989 56.1215ZM101.889 94.6538L99.4318 88.3195H91.432L88.9883 94.6538H86.6402L94.449 74.6133H96.5376L104.292 94.6538H101.889ZM98.7356 86.2581L96.4011 79.9647C96.3465 79.8009 96.2555 79.5324 96.1281 79.1592C96.0098 78.7861 95.8869 78.3993 95.7595 77.9989C95.6321 77.5984 95.5274 77.2753 95.4455 77.0296C95.3545 77.4027 95.2544 77.7759 95.1452 78.149C95.0451 78.5131 94.945 78.8544 94.8449 79.1729C94.7447 79.4823 94.6583 79.7463 94.5855 79.9647L92.2101 86.2581H98.7356ZM112.715 94.9268C111.368 94.9268 110.18 94.6493 109.152 94.0941C108.123 93.5389 107.322 92.6925 106.749 91.5549C106.176 90.4173 105.889 88.9838 105.889 87.2546C105.889 85.4435 106.189 83.9646 106.79 82.8179C107.4 81.662 108.237 80.8065 109.302 80.2514C110.367 79.6962 111.577 79.4186 112.933 79.4186C113.68 79.4186 114.398 79.496 115.09 79.6507C115.791 79.7963 116.364 79.9829 116.81 80.2104L116.128 82.108C115.673 81.926 115.145 81.7622 114.544 81.6165C113.953 81.4709 113.397 81.3981 112.879 81.3981C111.841 81.3981 110.976 81.6211 110.285 82.067C109.602 82.513 109.088 83.1683 108.742 84.0329C108.405 84.8975 108.237 85.9623 108.237 87.2273C108.237 88.4378 108.401 89.4708 108.729 90.3263C109.065 91.1818 109.561 91.837 110.217 92.2921C110.881 92.738 111.709 92.961 112.701 92.961C113.493 92.961 114.207 92.8791 114.844 92.7153C115.482 92.5424 116.059 92.3421 116.578 92.1146V94.135C116.078 94.3899 115.518 94.5856 114.899 94.7221C114.289 94.8586 113.561 94.9268 112.715 94.9268ZM126.926 79.4186C127.226 79.4186 127.54 79.4368 127.868 79.4732C128.196 79.5005 128.487 79.5415 128.742 79.5961L128.455 81.6984C128.209 81.6347 127.936 81.5847 127.636 81.5483C127.336 81.5119 127.054 81.4937 126.79 81.4937C126.189 81.4937 125.62 81.6165 125.083 81.8623C124.555 82.0989 124.091 82.4447 123.691 82.8998C123.29 83.3457 122.976 83.8873 122.749 84.5243C122.521 85.1523 122.407 85.8531 122.407 86.6267V94.6538H120.128V79.6917H122.012L122.257 82.4493H122.353C122.662 81.8941 123.035 81.389 123.472 80.934C123.909 80.4698 124.414 80.1012 124.988 79.8282C125.57 79.5551 126.216 79.4186 126.926 79.4186ZM144.468 87.1454C144.468 88.3741 144.309 89.4708 143.991 90.4355C143.672 91.4002 143.212 92.2147 142.612 92.8791C142.011 93.5435 141.283 94.0531 140.428 94.4081C139.581 94.7539 138.621 94.9268 137.547 94.9268C136.546 94.9268 135.627 94.7539 134.789 94.4081C133.961 94.0531 133.242 93.5435 132.632 92.8791C132.032 92.2147 131.563 91.4002 131.226 90.4355C130.899 89.4708 130.735 88.3741 130.735 87.1454C130.735 85.5072 131.012 84.1148 131.568 82.968C132.123 81.8122 132.915 80.934 133.943 80.3333C134.981 79.7235 136.214 79.4186 137.643 79.4186C139.008 79.4186 140.2 79.7235 141.219 80.3333C142.248 80.9431 143.044 81.8259 143.608 82.9817C144.182 84.1284 144.468 85.5163 144.468 87.1454ZM133.083 87.1454C133.083 88.3468 133.242 89.3888 133.561 90.2716C133.879 91.1545 134.371 91.837 135.035 92.3194C135.7 92.8017 136.555 93.0429 137.602 93.0429C138.639 93.0429 139.49 92.8017 140.154 92.3194C140.828 91.837 141.324 91.1545 141.643 90.2716C141.961 89.3888 142.12 88.3468 142.12 87.1454C142.12 85.9532 141.961 84.9248 141.643 84.0602C141.324 83.1865 140.833 82.513 140.168 82.0397C139.504 81.5665 138.644 81.3299 137.588 81.3299C136.032 81.3299 134.89 81.8441 134.161 82.8725C133.442 83.9009 133.083 85.3252 133.083 87.1454ZM158.065 90.5583C158.065 91.5139 157.824 92.3194 157.342 92.9747C156.869 93.6208 156.186 94.1077 155.294 94.4354C154.411 94.763 153.356 94.9268 152.127 94.9268C151.08 94.9268 150.175 94.8449 149.41 94.6811C148.646 94.5173 147.977 94.2852 147.403 93.9849V91.8962C148.013 92.1965 148.741 92.4696 149.588 92.7153C150.434 92.961 151.299 93.0839 152.182 93.0839C153.474 93.0839 154.411 92.8746 154.994 92.4559C155.576 92.0373 155.867 91.4684 155.867 90.7495C155.867 90.3399 155.749 89.9804 155.513 89.671C155.285 89.3524 154.898 89.0476 154.352 88.7563C153.806 88.456 153.051 88.1283 152.086 87.7734C151.13 87.4094 150.302 87.0499 149.601 86.6949C148.91 86.3309 148.373 85.8895 147.991 85.3707C147.617 84.852 147.431 84.1785 147.431 83.3503C147.431 82.0852 147.94 81.116 148.96 80.4425C149.988 79.7599 151.335 79.4186 153.001 79.4186C153.902 79.4186 154.743 79.5096 155.526 79.6917C156.318 79.8646 157.055 80.1012 157.738 80.4015L156.973 82.2172C156.354 81.9533 155.695 81.7303 154.994 81.5483C154.293 81.3663 153.579 81.2752 152.85 81.2752C151.804 81.2752 150.998 81.4482 150.434 81.794C149.879 82.1398 149.601 82.6131 149.601 83.2138C149.601 83.6779 149.729 84.0602 149.984 84.3605C150.248 84.6608 150.666 84.943 151.24 85.2069C151.813 85.4708 152.568 85.7803 153.506 86.1352C154.443 86.4811 155.253 86.8405 155.936 87.2137C156.618 87.5777 157.142 88.0237 157.506 88.5515C157.879 89.0703 158.065 89.7392 158.065 90.5583ZM171.389 90.5583C171.389 91.5139 171.148 92.3194 170.666 92.9747C170.193 93.6208 169.51 94.1077 168.618 94.4354C167.735 94.763 166.68 94.9268 165.451 94.9268C164.404 94.9268 163.499 94.8449 162.734 94.6811C161.97 94.5173 161.301 94.2852 160.727 93.9849V91.8962C161.337 92.1965 162.065 92.4696 162.912 92.7153C163.758 92.961 164.623 93.0839 165.505 93.0839C166.798 93.0839 167.735 92.8746 168.318 92.4559C168.9 92.0373 169.191 91.4684 169.191 90.7495C169.191 90.3399 169.073 89.9804 168.836 89.671C168.609 89.3524 168.222 89.0476 167.676 88.7563C167.13 88.456 166.375 88.1283 165.41 87.7734C164.454 87.4094 163.626 87.0499 162.925 86.6949C162.234 86.3309 161.697 85.8895 161.314 85.3707C160.941 84.852 160.755 84.1785 160.755 83.3503C160.755 82.0852 161.264 81.116 162.284 80.4425C163.312 79.7599 164.659 79.4186 166.325 79.4186C167.226 79.4186 168.067 79.5096 168.85 79.6917C169.642 79.8646 170.379 80.1012 171.062 80.4015L170.297 82.2172C169.678 81.9533 169.019 81.7303 168.318 81.5483C167.617 81.3663 166.903 81.2752 166.174 81.2752C165.128 81.2752 164.322 81.4482 163.758 81.794C163.203 82.1398 162.925 82.6131 162.925 83.2138C162.925 83.6779 163.053 84.0602 163.308 84.3605C163.572 84.6608 163.99 84.943 164.564 85.2069C165.137 85.4708 165.892 85.7803 166.83 86.1352C167.767 86.4811 168.577 86.8405 169.26 87.2137C169.942 87.5777 170.466 88.0237 170.83 88.5515C171.203 89.0703 171.389 89.7392 171.389 90.5583ZM187.13 93.0702C187.503 93.0702 187.885 93.0384 188.276 92.9747C188.668 92.911 188.986 92.8336 189.232 92.7426V94.5036C188.968 94.622 188.599 94.7221 188.126 94.804C187.662 94.8859 187.207 94.9268 186.761 94.9268C185.969 94.9268 185.25 94.7903 184.604 94.5173C183.958 94.2352 183.439 93.7619 183.048 93.0975C182.666 92.4331 182.474 91.5139 182.474 90.3399V81.4664H180.345V80.3606L182.488 79.4732L183.389 76.2242H184.754V79.6917H189.136V81.4664H184.754V90.2716C184.754 91.2091 184.968 91.9098 185.396 92.374C185.833 92.8381 186.411 93.0702 187.13 93.0702ZM194.529 73.4119V79.7599C194.529 80.124 194.52 80.4926 194.501 80.8657C194.483 81.2297 194.451 81.5665 194.406 81.8759H194.556C194.866 81.3481 195.257 80.9067 195.73 80.5517C196.212 80.1877 196.759 79.9146 197.368 79.7326C197.978 79.5415 198.624 79.4459 199.307 79.4459C200.508 79.4459 201.509 79.6371 202.31 80.0193C203.12 80.4015 203.725 80.9931 204.126 81.794C204.535 82.5949 204.74 83.6324 204.74 84.9066V94.6538H202.501V85.0567C202.501 83.8099 202.215 82.877 201.641 82.2582C201.077 81.6393 200.208 81.3299 199.034 81.3299C197.923 81.3299 197.036 81.5437 196.372 81.9715C195.716 82.3901 195.243 83.009 194.952 83.8281C194.67 84.6472 194.529 85.6483 194.529 86.8314V94.6538H192.263V73.4119H194.529ZM215.17 79.4186C216.444 79.4186 217.536 79.7008 218.446 80.265C219.356 80.8293 220.053 81.6211 220.535 82.6404C221.017 83.6506 221.259 84.8338 221.259 86.1898V87.5959H210.924C210.952 89.3524 211.388 90.6903 212.235 91.6095C213.081 92.5287 214.274 92.9883 215.812 92.9883C216.758 92.9883 217.595 92.9019 218.324 92.7289C219.052 92.556 219.807 92.3012 220.59 91.9644V93.9576C219.834 94.2943 219.083 94.54 218.337 94.6948C217.6 94.8495 216.726 94.9268 215.716 94.9268C214.278 94.9268 213.022 94.6356 211.948 94.0531C210.883 93.4616 210.055 92.597 209.464 91.4593C208.872 90.3217 208.576 88.9292 208.576 87.2819C208.576 85.6711 208.845 84.2786 209.382 83.1046C209.928 81.9214 210.692 81.0113 211.675 80.3742C212.667 79.7372 213.832 79.4186 215.17 79.4186ZM215.143 81.2752C213.932 81.2752 212.968 81.6711 212.249 82.4629C211.53 83.2547 211.102 84.3605 210.965 85.7803H218.883C218.874 84.8884 218.733 84.1057 218.46 83.4322C218.196 82.7496 217.791 82.2218 217.245 81.8486C216.699 81.4664 215.998 81.2752 215.143 81.2752ZM127.418 118.197H134.394V127.876C133.347 128.231 132.268 128.495 131.158 128.667C130.057 128.84 128.824 128.927 127.459 128.927C125.383 128.927 123.632 128.513 122.203 127.685C120.783 126.856 119.704 125.678 118.967 124.149C118.23 122.611 117.861 120.786 117.861 118.674C117.861 116.609 118.266 114.807 119.076 113.268C119.896 111.73 121.074 110.538 122.612 109.692C124.159 108.836 126.016 108.408 128.182 108.408C129.292 108.408 130.344 108.513 131.336 108.722C132.337 108.923 133.265 109.209 134.12 109.583L133.233 111.603C132.496 111.284 131.681 111.011 130.789 110.784C129.907 110.556 128.992 110.443 128.046 110.443C126.416 110.443 125.019 110.779 123.854 111.453C122.699 112.126 121.811 113.077 121.192 114.306C120.583 115.535 120.278 116.991 120.278 118.674C120.278 120.34 120.546 121.792 121.083 123.029C121.62 124.258 122.457 125.214 123.595 125.896C124.733 126.579 126.198 126.92 127.991 126.92C128.892 126.92 129.666 126.87 130.312 126.77C130.958 126.661 131.545 126.533 132.073 126.388V120.272H127.418V118.197ZM141.165 128.654H138.885V107.412H141.165V128.654ZM158.857 121.145C158.857 122.374 158.698 123.471 158.379 124.435C158.061 125.4 157.601 126.215 157.001 126.879C156.4 127.543 155.672 128.053 154.816 128.408C153.97 128.754 153.01 128.927 151.936 128.927C150.935 128.927 150.015 128.754 149.178 128.408C148.35 128.053 147.631 127.543 147.021 126.879C146.421 126.215 145.952 125.4 145.615 124.435C145.287 123.471 145.124 122.374 145.124 121.145C145.124 119.507 145.401 118.115 145.956 116.968C146.512 115.812 147.303 114.934 148.332 114.333C149.369 113.724 150.603 113.419 152.031 113.419C153.397 113.419 154.589 113.724 155.608 114.333C156.637 114.943 157.433 115.826 157.997 116.982C158.57 118.128 158.857 119.516 158.857 121.145ZM147.472 121.145C147.472 122.347 147.631 123.389 147.95 124.272C148.268 125.154 148.76 125.837 149.424 126.319C150.088 126.802 150.944 127.043 151.99 127.043C153.028 127.043 153.879 126.802 154.543 126.319C155.217 125.837 155.713 125.154 156.031 124.272C156.35 123.389 156.509 122.347 156.509 121.145C156.509 119.953 156.35 118.925 156.031 118.06C155.713 117.186 155.221 116.513 154.557 116.04C153.893 115.566 153.032 115.33 151.977 115.33C150.42 115.33 149.278 115.844 148.55 116.872C147.831 117.901 147.472 119.325 147.472 121.145ZM165.041 107.412V112.722C165.041 113.332 165.023 113.924 164.987 114.497C164.959 115.07 164.937 115.516 164.918 115.835H165.041C165.451 115.161 166.042 114.593 166.816 114.129C167.59 113.664 168.577 113.432 169.778 113.432C171.653 113.432 173.146 114.083 174.256 115.384C175.376 116.677 175.935 118.602 175.935 121.159C175.935 122.843 175.68 124.263 175.171 125.418C174.661 126.574 173.942 127.448 173.014 128.039C172.086 128.631 170.989 128.927 169.724 128.927C168.541 128.927 167.567 128.708 166.802 128.272C166.047 127.826 165.465 127.284 165.055 126.647H164.878L164.413 128.654H162.775V107.412H165.041ZM169.41 115.33C168.327 115.33 167.467 115.544 166.83 115.971C166.193 116.39 165.733 117.027 165.451 117.883C165.178 118.729 165.041 119.803 165.041 121.104V121.227C165.041 123.111 165.355 124.554 165.983 125.555C166.611 126.547 167.753 127.043 169.41 127.043C170.802 127.043 171.844 126.533 172.536 125.514C173.237 124.495 173.587 123.038 173.587 121.145C173.587 119.216 173.241 117.764 172.55 116.791C171.867 115.817 170.821 115.33 169.41 115.33ZM185.655 113.419C186.929 113.419 188.022 113.701 188.932 114.265C189.842 114.829 190.538 115.621 191.02 116.64C191.503 117.651 191.744 118.834 191.744 120.19V121.596H181.41C181.437 123.352 181.874 124.69 182.72 125.61C183.567 126.529 184.759 126.988 186.297 126.988C187.243 126.988 188.081 126.902 188.809 126.729C189.537 126.556 190.292 126.301 191.075 125.964V127.958C190.32 128.294 189.569 128.54 188.822 128.695C188.085 128.849 187.212 128.927 186.201 128.927C184.763 128.927 183.507 128.636 182.433 128.053C181.369 127.462 180.54 126.597 179.949 125.459C179.357 124.322 179.062 122.929 179.062 121.282C179.062 119.671 179.33 118.279 179.867 117.105C180.413 115.921 181.178 115.011 182.16 114.374C183.152 113.737 184.317 113.419 185.655 113.419ZM185.628 115.275C184.418 115.275 183.453 115.671 182.734 116.463C182.015 117.255 181.587 118.361 181.451 119.78H189.368C189.359 118.888 189.218 118.106 188.945 117.432C188.681 116.75 188.276 116.222 187.73 115.849C187.184 115.466 186.483 115.275 185.628 115.275Z" fill="url(#paint0_linear_696_1380)"/>
<g clip-path="url(#clip0_696_1380)">
<path fill-rule="evenodd" clip-rule="evenodd" d="M46.6482 12.3995C32.2628 26.8476 22.6876 47.0863 21.2093 69.9166C18.1957 116.678 50.3214 156.57 92.966 159.024L92.568 165.239C48.627 162.705 15.5347 121.608 18.6392 73.4254C20.2199 48.9554 30.8299 27.3751 46.6596 12.3995H46.6482Z" fill="#ED923A" fill-opacity="0.3"/>
<path fill-rule="evenodd" clip-rule="evenodd" d="M65.5796 160.389C57.2667 163.106 52.2858 155.366 45.2466 154.14C38.2074 152.913 36.0013 157.144 31.3047 158.68C41.926 167.223 53.3776 167.716 65.5682 160.389H65.5796Z" fill="#ED923A" fill-opacity="0.3"/>
<path fill-rule="evenodd" clip-rule="evenodd" d="M50.6001 149.221C42.0029 150.046 38.5458 141.309 31.9046 138.522C25.2635 135.736 22.3522 139.417 17.5078 139.887C26.3324 150.677 37.3973 153.716 50.6001 149.221Z" fill="#ED923A" fill-opacity="0.3"/>
<path fill-rule="evenodd" clip-rule="evenodd" d="M34.6869 132.055C26.9995 131.401 25.1117 123.088 19.6305 119.556C14.1378 116.024 11.0902 118.811 6.74609 118.444C13.0802 129.44 22.4393 133.924 34.6982 132.055H34.6869Z" fill="#ED923A" fill-opacity="0.3"/>
<path fill-rule="evenodd" clip-rule="evenodd" d="M25.9293 115.439C18.9129 113.157 18.6741 104.982 14.2276 100.487C9.78123 95.9918 6.43789 97.9411 2.48047 96.6569C6.36966 108.307 14.239 114.522 25.9407 115.428L25.9293 115.439Z" fill="#ED923A" fill-opacity="0.3"/>
<path fill-rule="evenodd" clip-rule="evenodd" d="M20.4045 98.3995C13.877 94.799 14.946 86.6806 11.2956 81.3944C7.64521 76.1083 4.05168 77.3925 0.367188 75.3629C2.32316 87.6208 9.05532 95.2577 20.4045 98.3995Z" fill="#ED923A" fill-opacity="0.3"/>
<path fill-rule="evenodd" clip-rule="evenodd" d="M18.7725 79.8239C13.1547 74.7442 15.8044 67.0385 13.3139 60.9841C10.8235 54.9297 7.07076 55.331 3.898 52.4644C3.36352 64.9401 8.37853 74.0447 18.7725 79.8239Z" fill="#ED923A" fill-opacity="0.3"/>
<path fill-rule="evenodd" clip-rule="evenodd" d="M20.9111 59.0575C17.2493 52.9802 21.4114 46.9716 20.695 40.9401C19.9899 34.8972 16.6352 34.1748 14.5655 30.7347C11.0971 41.5364 13.2691 50.985 20.9111 59.0575Z" fill="#ED923A" fill-opacity="0.3"/>
<path fill-rule="evenodd" clip-rule="evenodd" d="M25.033 41.4563C23.475 35.1037 28.5469 31.2279 29.4907 25.8157C30.4346 20.4034 27.7736 18.7522 26.898 15.1631C21.1893 23.3847 20.6207 32.1567 25.0443 41.4448L25.033 41.4563Z" fill="#ED923A" fill-opacity="0.3"/>
<path fill-rule="evenodd" clip-rule="evenodd" d="M33.7433 27.0998C33.1975 22.2723 37.2459 20.0019 38.4285 16.1491C39.6112 12.2963 37.8258 10.7827 37.5188 8.06506C32.6061 13.4544 31.3666 19.807 33.7319 27.0998H33.7433Z" fill="#ED923A" fill-opacity="0.3"/>
<path fill-rule="evenodd" clip-rule="evenodd" d="M42.3711 15.4153C43.2013 11.2185 47.1473 10.6108 49.1374 7.77848C51.1389 4.94621 50.0699 3.123 50.5362 0.74939C45.0549 3.6734 42.3598 8.59262 42.3711 15.4153Z" fill="#ED923A" fill-opacity="0.3"/>
<path fill-rule="evenodd" clip-rule="evenodd" d="M77.1051 154.484C71.9536 148.372 75.4334 141.136 73.5343 134.623C71.6352 128.099 67.8142 127.823 64.903 124.383C63.0722 136.779 67.2002 146.812 77.1051 154.495V154.484Z" fill="#ED923A" fill-opacity="0.3"/>
<path fill-rule="evenodd" clip-rule="evenodd" d="M62.1331 147.179C57.1181 141.113 60.6775 133.878 58.9034 127.387C57.1294 120.897 53.3426 120.634 50.511 117.216C48.4981 129.578 52.4442 139.565 62.1331 147.179Z" fill="#ED923A" fill-opacity="0.3"/>
<path fill-rule="evenodd" clip-rule="evenodd" d="M45.4221 133.362C42.1811 126.769 46.8663 121.116 46.6161 114.901C46.3659 108.674 43.0226 107.562 41.1917 103.847C36.8363 114.453 38.3146 124.303 45.4221 133.373V133.362Z" fill="#ED923A" fill-opacity="0.3"/>
<path fill-rule="evenodd" clip-rule="evenodd" d="M32.6762 116.162C30.9022 109.408 36.2469 105.154 37.1681 99.3515C38.0778 93.5493 35.2121 91.8408 34.2 88.0338C28.2411 96.932 27.7862 106.335 32.6762 116.162Z" fill="#ED923A" fill-opacity="0.3"/>
<path fill-rule="evenodd" clip-rule="evenodd" d="M25.307 95.1434C24.6133 88.9284 29.8444 86.0044 31.3682 81.0393C32.9034 76.0743 30.6063 74.1364 30.2197 70.6276C23.8741 77.5535 22.2707 85.7521 25.307 95.1434Z" fill="#ED923A" fill-opacity="0.3"/>
<path fill-rule="evenodd" clip-rule="evenodd" d="M24.0178 73.3566C24.7228 67.7723 29.8402 66.5339 32.2055 62.6009C34.5709 58.6678 33.0016 56.3974 33.3882 53.244C26.4627 57.6816 23.3696 64.4126 24.0178 73.3566Z" fill="#ED923A" fill-opacity="0.3"/>
<path fill-rule="evenodd" clip-rule="evenodd" d="M27.1562 52.8656C28.9189 48.256 33.5131 48.4738 36.3447 45.6989C39.165 42.9125 38.3121 40.5733 39.3014 37.9703C32.501 40.0458 28.4754 45.0453 27.1562 52.8656Z" fill="#ED923A" fill-opacity="0.3"/>
<path fill-rule="evenodd" clip-rule="evenodd" d="M33.4375 37.1793C35.6095 33.487 39.5442 34.4617 42.3872 32.5353C45.2188 30.6089 44.8094 28.4302 46.0376 26.3433C39.8854 26.9739 35.7005 30.6203 33.4375 37.1793Z" fill="#ED923A" fill-opacity="0.3"/>
<path fill-rule="evenodd" clip-rule="evenodd" d="M41.3516 23.2123C43.4099 20.4144 46.5258 21.584 48.9707 20.2883C51.4157 18.9925 51.2679 17.1808 52.4278 15.5984C47.39 15.5181 43.7055 18.0867 41.3516 23.2008V23.2123Z" fill="#ED923A" fill-opacity="0.3"/>
<path fill-rule="evenodd" clip-rule="evenodd" d="M50.7578 10.2555C52.7252 6.91865 56.2732 7.80158 58.8319 6.05864C61.3905 4.32717 61.0266 2.3549 62.1297 0.462891C56.5689 1.02476 52.7934 4.32717 50.7578 10.244V10.2555Z" fill="#ED923A" fill-opacity="0.3"/>
</g>
<g clip-path="url(#clip1_696_1380)">
<path fill-rule="evenodd" clip-rule="evenodd" d="M262.946 12.3993C277.331 26.8473 286.906 47.0861 288.384 69.9163C291.398 116.678 259.272 156.57 216.628 159.024L217.026 165.239C260.967 162.705 294.059 121.608 290.955 73.4251C289.374 48.9552 278.764 27.3748 262.934 12.3993H262.946Z" fill="#ED923A" fill-opacity="0.3"/>
<path fill-rule="evenodd" clip-rule="evenodd" d="M244.022 160.389C252.335 163.106 257.316 155.366 264.355 154.14C271.394 152.913 273.6 157.144 278.297 158.68C267.676 167.223 256.224 167.716 244.033 160.389H244.022Z" fill="#ED923A" fill-opacity="0.3"/>
<path fill-rule="evenodd" clip-rule="evenodd" d="M259.009 149.22C267.606 150.046 271.064 141.308 277.705 138.522C284.346 135.736 287.257 139.416 292.102 139.887C283.277 150.677 272.212 153.715 259.009 149.22Z" fill="#ED923A" fill-opacity="0.3"/>
<path fill-rule="evenodd" clip-rule="evenodd" d="M274.919 132.054C282.606 131.4 284.494 123.087 289.975 119.555C295.468 116.024 298.515 118.81 302.859 118.443C296.525 129.44 287.166 133.923 274.907 132.054H274.919Z" fill="#ED923A" fill-opacity="0.3"/>
<path fill-rule="evenodd" clip-rule="evenodd" d="M283.668 115.439C290.685 113.157 290.924 104.982 295.37 100.487C299.816 95.9917 303.16 97.941 307.117 96.6567C303.228 108.307 295.359 114.522 283.657 115.428L283.668 115.439Z" fill="#ED923A" fill-opacity="0.3"/>
<path fill-rule="evenodd" clip-rule="evenodd" d="M289.197 98.3994C295.725 94.7989 294.656 86.6804 298.306 81.3943C301.956 76.1081 305.55 77.3924 309.234 75.3628C307.278 87.6207 300.546 95.2575 289.197 98.3994Z" fill="#ED923A" fill-opacity="0.3"/>
<path fill-rule="evenodd" clip-rule="evenodd" d="M290.817 79.8238C296.435 74.744 293.785 67.0384 296.276 60.984C298.766 54.9296 302.519 55.3309 305.692 52.4642C306.226 64.94 301.211 74.0446 290.817 79.8238Z" fill="#ED923A" fill-opacity="0.3"/>
<path fill-rule="evenodd" clip-rule="evenodd" d="M288.698 59.0573C292.36 52.9799 288.198 46.9714 288.914 40.9399C289.619 34.8969 292.974 34.1745 295.044 30.7345C298.512 41.5361 296.34 50.9847 288.698 59.0573Z" fill="#ED923A" fill-opacity="0.3"/>
<path fill-rule="evenodd" clip-rule="evenodd" d="M284.569 41.4559C286.127 35.1033 281.055 31.2276 280.111 25.8153C279.167 20.403 281.828 18.7518 282.704 15.1627C288.412 23.3844 288.981 32.1564 284.557 41.4444L284.569 41.4559Z" fill="#ED923A" fill-opacity="0.3"/>
<path fill-rule="evenodd" clip-rule="evenodd" d="M275.854 27.0998C276.4 22.2723 272.352 20.0019 271.169 16.1491C269.986 12.2963 271.772 10.7827 272.079 8.06506C276.992 13.4544 278.231 19.807 275.866 27.0998H275.854Z" fill="#ED923A" fill-opacity="0.3"/>
<path fill-rule="evenodd" clip-rule="evenodd" d="M267.227 15.4154C266.396 11.2186 262.45 10.6109 260.46 7.7786C258.459 4.94633 259.528 3.12312 259.061 0.749512C264.543 3.67352 267.238 8.59274 267.227 15.4154Z" fill="#ED923A" fill-opacity="0.3"/>
<path fill-rule="evenodd" clip-rule="evenodd" d="M232.5 154.483C237.652 148.372 234.172 141.136 236.071 134.623C237.97 128.099 241.791 127.823 244.702 124.383C246.533 136.779 242.405 146.812 232.5 154.495V154.483Z" fill="#ED923A" fill-opacity="0.3"/>
<path fill-rule="evenodd" clip-rule="evenodd" d="M247.461 147.179C252.476 141.113 248.916 133.878 250.69 127.387C252.464 120.897 256.251 120.634 259.083 117.216C261.096 129.578 257.15 139.565 247.461 147.179Z" fill="#ED923A" fill-opacity="0.3"/>
<path fill-rule="evenodd" clip-rule="evenodd" d="M264.179 133.362C267.42 126.768 262.735 121.115 262.985 114.9C263.236 108.674 266.579 107.562 268.41 103.846C272.765 114.453 271.287 124.303 264.179 133.373V133.362Z" fill="#ED923A" fill-opacity="0.3"/>
<path fill-rule="evenodd" clip-rule="evenodd" d="M276.925 116.162C278.699 109.408 273.355 105.154 272.433 99.3515C271.524 93.5493 274.389 91.8408 275.402 88.0338C281.36 96.932 281.815 106.335 276.925 116.162Z" fill="#ED923A" fill-opacity="0.3"/>
<path fill-rule="evenodd" clip-rule="evenodd" d="M284.295 95.1433C284.988 88.9283 279.757 86.0043 278.233 81.0392C276.698 76.0741 278.995 74.1363 279.382 70.6274C285.727 77.5533 287.331 85.752 284.295 95.1433Z" fill="#ED923A" fill-opacity="0.3"/>
<path fill-rule="evenodd" clip-rule="evenodd" d="M285.58 73.3564C284.875 67.7721 279.757 66.5337 277.392 62.6006C275.027 58.6675 276.596 56.3971 276.209 53.2438C283.135 57.6814 286.228 64.4123 285.58 73.3564Z" fill="#ED923A" fill-opacity="0.3"/>
<path fill-rule="evenodd" clip-rule="evenodd" d="M282.445 52.8655C280.683 48.2559 276.088 48.4737 273.257 45.6988C270.437 42.9124 271.289 40.5732 270.3 37.9702C277.101 40.0457 281.126 45.0452 282.445 52.8655Z" fill="#ED923A" fill-opacity="0.3"/>
<path fill-rule="evenodd" clip-rule="evenodd" d="M276.168 37.1792C273.996 33.4869 270.061 34.4616 267.218 32.5352C264.387 30.6088 264.796 28.4301 263.568 26.3431C269.72 26.9738 273.905 30.6202 276.168 37.1792Z" fill="#ED923A" fill-opacity="0.3"/>
<path fill-rule="evenodd" clip-rule="evenodd" d="M268.246 23.2125C266.188 20.4146 263.072 21.5842 260.627 20.2885C258.182 18.9928 258.33 17.181 257.17 15.5986C262.208 15.5184 265.892 18.0869 268.246 23.2011V23.2125Z" fill="#ED923A" fill-opacity="0.3"/>
<path fill-rule="evenodd" clip-rule="evenodd" d="M258.844 10.2553C256.876 6.91853 253.328 7.80146 250.77 6.05852C248.211 4.32705 248.575 2.35478 247.472 0.462769C253.033 1.02464 256.808 4.32705 258.844 10.2439V10.2553Z" fill="#ED923A" fill-opacity="0.3"/>
</g>
<defs>
<linearGradient id="paint0_linear_696_1380" x1="57.4062" y1="83.6538" x2="251.953" y2="83.6538" gradientUnits="userSpaceOnUse">
<stop stop-color="#010E39"/>
<stop offset="1" stop-color="#0344A2"/>
</linearGradient>
<clipPath id="clip0_696_1380">
<rect width="92.59" height="165.052" fill="white" transform="translate(0.367188 0.473999)"/>
</clipPath>
<clipPath id="clip1_696_1380">
<rect width="92.59" height="165.052" fill="white" transform="matrix(-1 0 0 1 309.234 0.473999)"/>
</clipPath>
</defs>
</svg>
