<svg width="310" height="166" viewBox="0 0 310 166" fill="none" xmlns="http://www.w3.org/2000/svg">
<path d="M94.2792 60.2944H91.9585V42.3972H85.6378V40.3358H100.6V42.3972H94.2792V60.2944ZM110.101 45.0593C110.766 45.0593 111.362 45.1139 111.89 45.2231L111.576 47.3254C110.957 47.1889 110.411 47.1206 109.938 47.1206C108.727 47.1206 107.69 47.6121 106.825 48.595C105.97 49.5779 105.542 50.802 105.542 52.2673V60.2944H103.276V45.3323H105.146L105.405 48.1036H105.515C106.07 47.1297 106.739 46.3789 107.521 45.851C108.304 45.3232 109.164 45.0593 110.101 45.0593ZM116.818 45.3323V55.0386C116.818 56.2581 117.096 57.1682 117.651 57.7689C118.206 58.3696 119.075 58.6699 120.258 58.6699C121.824 58.6699 122.966 58.2421 123.685 57.3866C124.413 56.5311 124.777 55.1341 124.777 53.1956V45.3323H127.043V60.2944H125.173L124.845 58.2876H124.722C124.258 59.0248 123.612 59.5891 122.784 59.9804C121.965 60.3718 121.027 60.5675 119.972 60.5675C118.151 60.5675 116.786 60.1352 115.876 59.2706C114.975 58.406 114.525 57.0226 114.525 55.1205V45.3323H116.818ZM141.514 56.2126C141.514 57.6051 140.995 58.679 139.957 59.4344C138.92 60.1898 137.464 60.5675 135.589 60.5675C133.605 60.5675 132.058 60.2535 130.947 59.6255V57.5232C131.666 57.8872 132.435 58.1739 133.255 58.3832C134.083 58.5925 134.879 58.6972 135.644 58.6972C136.827 58.6972 137.737 58.5106 138.374 58.1375C139.011 57.7552 139.329 57.1773 139.329 56.4037C139.329 55.8213 139.075 55.3253 138.565 54.9157C138.064 54.4971 137.082 54.0056 135.616 53.4413C134.224 52.9226 133.232 52.4721 132.64 52.0898C132.058 51.6985 131.621 51.2571 131.33 50.7656C131.048 50.2742 130.906 49.6871 130.906 49.0046C130.906 47.785 131.402 46.8249 132.394 46.1241C133.387 45.4142 134.747 45.0593 136.476 45.0593C138.087 45.0593 139.662 45.3869 141.2 46.0422L140.394 47.8851C138.893 47.2663 137.532 46.9568 136.312 46.9568C135.239 46.9568 134.429 47.1252 133.883 47.4619C133.336 47.7987 133.063 48.2628 133.063 48.8544C133.063 49.2548 133.164 49.5961 133.364 49.8783C133.573 50.1604 133.905 50.4289 134.36 50.6837C134.815 50.9385 135.689 51.3071 136.981 51.7895C138.756 52.4357 139.953 53.0864 140.572 53.7417C141.2 54.3969 141.514 55.2206 141.514 56.2126ZM150.046 58.6972C150.446 58.6972 150.833 58.6699 151.206 58.6153C151.58 58.5516 151.875 58.4879 152.094 58.4242V60.1579C151.848 60.2762 151.484 60.3718 151.002 60.4446C150.528 60.5265 150.101 60.5675 149.718 60.5675C146.824 60.5675 145.377 59.043 145.377 55.9942V47.0933H143.234V46.0012L145.377 45.0593L146.333 41.8648H147.643V45.3323H151.985V47.0933H147.643V55.8986C147.643 56.7996 147.857 57.4913 148.285 57.9737C148.713 58.456 149.3 58.6972 150.046 58.6972ZM161.418 60.5675C159.206 60.5675 157.459 59.894 156.176 58.547C154.901 57.2001 154.264 55.3298 154.264 52.9362C154.264 50.5244 154.856 48.6087 156.039 47.1889C157.231 45.7691 158.829 45.0593 160.831 45.0593C162.706 45.0593 164.189 45.6781 165.281 46.9159C166.373 48.1445 166.919 49.7691 166.919 51.7895V53.2229H156.612C156.658 54.9794 157.099 56.3127 157.937 57.2228C158.783 58.1329 159.971 58.588 161.5 58.588C163.111 58.588 164.703 58.2512 166.278 57.5778V59.5982C165.477 59.944 164.717 60.1898 163.998 60.3354C163.288 60.4901 162.428 60.5675 161.418 60.5675ZM160.803 46.9568C159.602 46.9568 158.642 47.3482 157.923 48.1309C157.213 48.9136 156.794 49.9966 156.667 51.3799H164.489C164.489 49.9511 164.171 48.8589 163.534 48.1036C162.897 47.3391 161.987 46.9568 160.803 46.9568ZM180.981 58.2876H180.858C179.811 59.8075 178.246 60.5675 176.161 60.5675C174.205 60.5675 172.68 59.8985 171.588 58.5607C170.505 57.2228 169.964 55.3207 169.964 52.8543C169.964 50.3879 170.51 48.4722 171.602 47.107C172.694 45.7418 174.214 45.0593 176.161 45.0593C178.191 45.0593 179.747 45.7964 180.83 47.2708H181.008L180.912 46.1923L180.858 45.1412V39.0526H183.124V60.2944H181.281L180.981 58.2876ZM176.448 58.6699C177.995 58.6699 179.115 58.2512 179.806 57.4139C180.507 56.5675 180.858 55.2069 180.858 53.3321V52.8543C180.858 50.7338 180.503 49.223 179.793 48.322C179.092 47.4119 177.968 46.9568 176.421 46.9568C175.092 46.9568 174.073 47.4756 173.363 48.5131C172.662 49.5415 172.312 50.9977 172.312 52.8816C172.312 54.7928 172.662 56.2354 173.363 57.2092C174.064 58.183 175.092 58.6699 176.448 58.6699ZM202.168 45.0866C204.134 45.0866 205.658 45.76 206.741 47.107C207.833 48.4449 208.379 50.3424 208.379 52.7997C208.379 55.257 207.829 57.1682 206.727 58.5334C205.635 59.8894 204.115 60.5675 202.168 60.5675C201.194 60.5675 200.302 60.39 199.492 60.0351C198.691 59.671 198.018 59.1158 197.472 58.3696H197.308L196.83 60.2944H195.205V39.0526H197.472V44.2129C197.472 45.3687 197.435 46.4062 197.362 47.3254H197.472C198.527 45.8328 200.093 45.0866 202.168 45.0866ZM201.84 46.9841C200.293 46.9841 199.178 47.4301 198.496 48.322C197.813 49.2048 197.472 50.6974 197.472 52.7997C197.472 54.9021 197.822 56.4083 198.523 57.3184C199.224 58.2194 200.348 58.6699 201.895 58.6699C203.287 58.6699 204.325 58.1648 205.007 57.1546C205.69 56.1352 206.031 54.6745 206.031 52.7724C206.031 50.8248 205.69 49.3732 205.007 48.4175C204.325 47.4619 203.269 46.9841 201.84 46.9841ZM209.976 45.3323H212.406L215.683 53.8645C216.402 55.8122 216.848 57.2183 217.021 58.0829H217.13C217.248 57.6187 217.494 56.8269 217.867 55.7075C218.249 54.579 219.487 51.1206 221.58 45.3323H224.01L217.58 62.3695C216.943 64.0532 216.197 65.2454 215.342 65.9462C214.495 66.6561 213.453 67.011 212.215 67.011C211.524 67.011 210.841 66.9337 210.168 66.7789V64.9633C210.668 65.0725 211.228 65.1271 211.847 65.1271C213.403 65.1271 214.513 64.2534 215.178 62.506L216.011 60.3763L209.976 45.3323ZM98.5112 94.2944H94.2929V82.7452C94.2929 82.4266 94.2974 82.0353 94.3065 81.5711C94.3156 81.0979 94.3293 80.6155 94.3475 80.1241C94.3657 79.6235 94.3839 79.173 94.4021 78.7726C94.302 78.8909 94.0972 79.0957 93.7878 79.3869C93.4874 79.669 93.2053 79.9239 92.9414 80.1514L90.6479 81.9943L88.6138 79.4552L95.0437 74.3358H98.5112V94.2944ZM121.187 94.2944L116.381 78.6361H116.258C116.277 79.0092 116.304 79.5735 116.34 80.3289C116.386 81.0751 116.427 81.8715 116.463 82.7179C116.499 83.5643 116.518 84.3288 116.518 85.0113V94.2944H112.736V74.3358H118.497L123.221 89.5983H123.303L128.313 74.3358H134.074V94.2944H130.128V84.8475C130.128 84.2196 130.137 83.496 130.156 82.6769C130.183 81.8578 130.215 81.0797 130.251 80.3425C130.288 79.5962 130.315 79.0365 130.333 78.6634H130.21L125.064 94.2944H121.187ZM142.947 79.032V94.2944H138.783V79.032H142.947ZM140.872 73.0526C141.491 73.0526 142.023 73.1982 142.469 73.4894C142.915 73.7715 143.138 74.304 143.138 75.0866C143.138 75.8602 142.915 76.3972 142.469 76.6975C142.023 76.9888 141.491 77.1344 140.872 77.1344C140.244 77.1344 139.707 76.9888 139.261 76.6975C138.824 76.3972 138.606 75.8602 138.606 75.0866C138.606 74.304 138.824 73.7715 139.261 73.4894C139.707 73.1982 140.244 73.0526 140.872 73.0526ZM151.493 94.2944H147.329V73.0526H151.493V94.2944ZM160.039 94.2944H155.875V73.0526H160.039V94.2944ZM168.585 79.032V94.2944H164.421V79.032H168.585ZM166.51 73.0526C167.129 73.0526 167.661 73.1982 168.107 73.4894C168.553 73.7715 168.776 74.304 168.776 75.0866C168.776 75.8602 168.553 76.3972 168.107 76.6975C167.661 76.9888 167.129 77.1344 166.51 77.1344C165.882 77.1344 165.345 76.9888 164.899 76.6975C164.462 76.3972 164.244 75.8602 164.244 75.0866C164.244 74.304 164.462 73.7715 164.899 73.4894C165.345 73.1982 165.882 73.0526 166.51 73.0526ZM186.837 86.6359C186.837 87.91 186.664 89.0386 186.318 90.0215C185.982 91.0044 185.486 91.8371 184.83 92.5197C184.184 93.1932 183.401 93.7029 182.482 94.0487C181.572 94.3945 180.544 94.5675 179.397 94.5675C178.323 94.5675 177.336 94.3945 176.435 94.0487C175.543 93.7029 174.764 93.1932 174.1 92.5197C173.445 91.8371 172.935 91.0044 172.571 90.0215C172.216 89.0386 172.039 87.91 172.039 86.6359C172.039 84.9431 172.339 83.5097 172.94 82.3356C173.54 81.1616 174.396 80.2697 175.506 79.6599C176.617 79.0502 177.941 78.7453 179.479 78.7453C180.908 78.7453 182.173 79.0502 183.274 79.6599C184.384 80.2697 185.253 81.1616 185.881 82.3356C186.519 83.5097 186.837 84.9431 186.837 86.6359ZM176.284 86.6359C176.284 87.637 176.394 88.4789 176.612 89.1614C176.83 89.844 177.172 90.3582 177.636 90.7041C178.1 91.0499 178.705 91.2228 179.452 91.2228C180.189 91.2228 180.785 91.0499 181.24 90.7041C181.704 90.3582 182.041 89.844 182.25 89.1614C182.469 88.4789 182.578 87.637 182.578 86.6359C182.578 85.6257 182.469 84.7884 182.25 84.124C182.041 83.4505 181.704 82.9454 181.24 82.6087C180.776 82.2719 180.171 82.1036 179.424 82.1036C178.323 82.1036 177.522 82.4813 177.022 83.2366C176.53 83.992 176.284 85.1251 176.284 86.6359ZM198.946 78.7453C200.575 78.7453 201.886 79.1912 202.878 80.0831C203.87 80.9659 204.366 82.3857 204.366 84.3424V94.2944H200.202V85.3799C200.202 84.2878 200.002 83.4642 199.601 82.909C199.21 82.3538 198.591 82.0763 197.745 82.0763C196.471 82.0763 195.601 82.5086 195.137 83.3732C194.673 84.2378 194.441 85.4846 194.441 87.1137V94.2944H190.277V79.032H193.458L194.018 80.9841H194.25C194.577 80.4563 194.982 80.0285 195.465 79.7009C195.956 79.3732 196.498 79.1321 197.089 78.9773C197.69 78.8226 198.309 78.7453 198.946 78.7453ZM215.942 82.95H221.225V85.9397H215.942V91.1955H212.953V85.9397H207.669V82.95H212.953V77.6258H215.942V82.95ZM120.149 114.151C120.149 116.172 119.457 117.728 118.074 118.82C116.7 119.903 114.729 120.445 112.163 120.445H109.815V128.294H107.494V108.336H112.668C117.655 108.336 120.149 110.274 120.149 114.151ZM109.815 118.452H111.903C113.96 118.452 115.448 118.119 116.368 117.455C117.287 116.791 117.746 115.726 117.746 114.261C117.746 112.941 117.314 111.958 116.449 111.312C115.585 110.666 114.238 110.343 112.409 110.343H109.815V118.452ZM133.2 128.294L132.749 126.165H132.64C131.894 127.102 131.148 127.739 130.401 128.076C129.664 128.404 128.74 128.567 127.63 128.567C126.147 128.567 124.982 128.185 124.135 127.421C123.298 126.656 122.879 125.569 122.879 124.158C122.879 121.136 125.296 119.553 130.128 119.407L132.668 119.325V118.397C132.668 117.223 132.413 116.358 131.903 115.803C131.402 115.239 130.597 114.957 129.487 114.957C128.24 114.957 126.829 115.339 125.255 116.104L124.558 114.37C125.296 113.969 126.101 113.655 126.975 113.428C127.858 113.2 128.74 113.087 129.623 113.087C131.407 113.087 132.727 113.482 133.582 114.274C134.447 115.066 134.879 116.336 134.879 118.083V128.294H133.2ZM128.081 126.697C129.491 126.697 130.597 126.31 131.398 125.537C132.208 124.763 132.613 123.68 132.613 122.288V120.936L130.347 121.032C128.545 121.095 127.243 121.378 126.442 121.878C125.651 122.37 125.255 123.139 125.255 124.185C125.255 125.004 125.5 125.628 125.992 126.056C126.492 126.483 127.189 126.697 128.081 126.697ZM146.387 113.059C147.052 113.059 147.648 113.114 148.176 113.223L147.862 115.325C147.243 115.189 146.697 115.121 146.224 115.121C145.013 115.121 143.976 115.612 143.111 116.595C142.255 117.578 141.828 118.802 141.828 120.267V128.294H139.562V113.332H141.432L141.691 116.104H141.8C142.356 115.13 143.025 114.379 143.807 113.851C144.59 113.323 145.45 113.059 146.387 113.059ZM157.295 128.567C155.083 128.567 153.336 127.894 152.053 126.547C150.779 125.2 150.142 123.33 150.142 120.936C150.142 118.524 150.733 116.609 151.916 115.189C153.109 113.769 154.706 113.059 156.708 113.059C158.583 113.059 160.066 113.678 161.158 114.916C162.251 116.145 162.797 117.769 162.797 119.789V121.223H152.49C152.535 122.979 152.977 124.313 153.814 125.223C154.66 126.133 155.848 126.588 157.377 126.588C158.988 126.588 160.58 126.251 162.155 125.578V127.598C161.354 127.944 160.594 128.19 159.875 128.335C159.165 128.49 158.305 128.567 157.295 128.567ZM156.681 114.957C155.479 114.957 154.519 115.348 153.8 116.131C153.09 116.914 152.672 117.997 152.544 119.38H160.367C160.367 117.951 160.048 116.859 159.411 116.104C158.774 115.339 157.864 114.957 156.681 114.957ZM176.912 128.294V118.615C176.912 117.396 176.635 116.486 176.08 115.885C175.524 115.284 174.655 114.984 173.472 114.984C171.907 114.984 170.76 115.407 170.032 116.254C169.304 117.1 168.94 118.497 168.94 120.445V128.294H166.674V113.332H168.517L168.885 115.38H168.994C169.459 114.643 170.109 114.074 170.947 113.674C171.784 113.264 172.717 113.059 173.745 113.059C175.547 113.059 176.903 113.496 177.813 114.37C178.723 115.234 179.179 116.622 179.179 118.534V128.294H176.912ZM188.68 126.697C189.08 126.697 189.467 126.67 189.84 126.615C190.214 126.552 190.509 126.488 190.728 126.424V128.158C190.482 128.276 190.118 128.372 189.636 128.445C189.162 128.527 188.735 128.567 188.352 128.567C185.458 128.567 184.011 127.043 184.011 123.994V115.093H181.868V114.001L184.011 113.059L184.967 109.865H186.277V113.332H190.619V115.093H186.277V123.899C186.277 124.8 186.491 125.491 186.919 125.974C187.347 126.456 187.934 126.697 188.68 126.697ZM203.383 124.213C203.383 125.605 202.864 126.679 201.826 127.434C200.789 128.19 199.333 128.567 197.458 128.567C195.474 128.567 193.927 128.253 192.816 127.626V125.523C193.535 125.887 194.304 126.174 195.124 126.383C195.952 126.593 196.748 126.697 197.513 126.697C198.696 126.697 199.606 126.511 200.243 126.137C200.88 125.755 201.199 125.177 201.199 124.404C201.199 123.821 200.944 123.325 200.434 122.916C199.933 122.497 198.951 122.006 197.485 121.441C196.093 120.923 195.101 120.472 194.509 120.09C193.927 119.698 193.49 119.257 193.199 118.766C192.917 118.274 192.775 117.687 192.775 117.005C192.775 115.785 193.271 114.825 194.264 114.124C195.256 113.414 196.616 113.059 198.345 113.059C199.956 113.059 201.531 113.387 203.069 114.042L202.263 115.885C200.762 115.266 199.401 114.957 198.182 114.957C197.108 114.957 196.298 115.125 195.752 115.462C195.205 115.799 194.932 116.263 194.932 116.854C194.932 117.255 195.033 117.596 195.233 117.878C195.442 118.16 195.774 118.429 196.229 118.684C196.684 118.939 197.558 119.307 198.85 119.789C200.625 120.436 201.822 121.086 202.441 121.742C203.069 122.397 203.383 123.221 203.383 124.213Z" fill="url(#paint0_linear_696_1239)"/>
<g clip-path="url(#clip0_696_1239)">
<path fill-rule="evenodd" clip-rule="evenodd" d="M46.7615 12.3993C32.3761 26.8473 22.8009 47.0861 21.3226 69.9163C18.309 116.678 50.4347 156.57 93.0793 159.024L92.6813 165.239C48.7402 162.705 15.648 121.608 18.7525 73.4251C20.3332 48.9552 30.9432 27.3748 46.7729 12.3993H46.7615Z" fill="#ED923A" fill-opacity="0.3"/>
<path fill-rule="evenodd" clip-rule="evenodd" d="M65.6812 160.389C57.3683 163.106 52.3874 155.366 45.3482 154.14C38.309 152.913 36.1028 157.144 31.4062 158.68C42.0276 167.223 53.4791 167.716 65.6698 160.389H65.6812Z" fill="#ED923A" fill-opacity="0.3"/>
<path fill-rule="evenodd" clip-rule="evenodd" d="M50.7055 149.22C42.1084 150.046 38.6513 141.308 32.0101 138.522C25.3689 135.735 22.4577 139.416 17.6133 139.886C26.4379 150.676 37.5027 153.715 50.7055 149.22Z" fill="#ED923A" fill-opacity="0.3"/>
<path fill-rule="evenodd" clip-rule="evenodd" d="M34.7884 132.055C27.101 131.401 25.2133 123.088 19.732 119.556C14.2394 116.024 11.1917 118.811 6.84766 118.444C13.1818 129.441 22.5409 133.924 34.7998 132.055H34.7884Z" fill="#ED923A" fill-opacity="0.3"/>
<path fill-rule="evenodd" clip-rule="evenodd" d="M26.0426 115.439C19.0262 113.157 18.7873 104.982 14.3409 100.487C9.89451 95.9917 6.55117 97.941 2.59375 96.6567C6.48294 108.307 14.3523 114.522 26.054 115.428L26.0426 115.439Z" fill="#ED923A" fill-opacity="0.3"/>
<path fill-rule="evenodd" clip-rule="evenodd" d="M20.51 98.3995C13.9825 94.799 15.0514 86.6806 11.4011 81.3944C7.75067 76.1083 4.15715 77.3925 0.472656 75.3629C2.42862 87.6208 9.16079 95.2577 20.51 98.3995Z" fill="#ED923A" fill-opacity="0.3"/>
<path fill-rule="evenodd" clip-rule="evenodd" d="M18.8818 79.8238C13.2641 74.744 15.9138 67.0384 13.4233 60.984C10.9329 54.9296 7.18014 55.3309 4.00738 52.4642C3.4729 64.94 8.48791 74.0446 18.8818 79.8238Z" fill="#ED923A" fill-opacity="0.3"/>
<path fill-rule="evenodd" clip-rule="evenodd" d="M21.0126 59.0573C17.3509 52.9799 21.513 46.9714 20.7966 40.9399C20.0915 34.8969 16.7368 34.1745 14.6671 30.7345C11.1987 41.5361 13.3707 50.9847 21.0126 59.0573Z" fill="#ED923A" fill-opacity="0.3"/>
<path fill-rule="evenodd" clip-rule="evenodd" d="M25.1384 41.4563C23.5805 35.1037 28.6523 31.2279 29.5962 25.8157C30.5401 20.4034 27.8791 18.7522 27.0034 15.1631C21.2947 23.3847 20.7261 32.1567 25.1498 41.4448L25.1384 41.4563Z" fill="#ED923A" fill-opacity="0.3"/>
<path fill-rule="evenodd" clip-rule="evenodd" d="M33.8566 27.0997C33.3107 22.2722 37.3591 20.0018 38.5418 16.149C39.7245 12.2962 37.9391 10.7826 37.6321 8.06494C32.7194 13.4543 31.4799 19.8068 33.8452 27.0997H33.8566Z" fill="#ED923A" fill-opacity="0.3"/>
<path fill-rule="evenodd" clip-rule="evenodd" d="M42.4844 15.4151C43.3146 11.2183 47.2606 10.6105 49.2507 7.77824C51.2521 4.94596 50.1832 3.12275 50.6494 0.749146C45.1682 3.67316 42.473 8.59237 42.4844 15.4151Z" fill="#ED923A" fill-opacity="0.3"/>
<path fill-rule="evenodd" clip-rule="evenodd" d="M77.2067 154.483C72.0552 148.372 75.535 141.136 73.6359 134.623C71.7368 128.099 67.9158 127.823 65.0046 124.383C63.1737 136.779 67.3017 146.812 77.2067 154.495V154.483Z" fill="#ED923A" fill-opacity="0.3"/>
<path fill-rule="evenodd" clip-rule="evenodd" d="M62.2463 147.179C57.2313 141.113 60.7907 133.878 59.0167 127.387C57.2427 120.897 53.4559 120.634 50.6243 117.216C48.6114 129.578 52.5575 139.565 62.2463 147.179Z" fill="#ED923A" fill-opacity="0.3"/>
<path fill-rule="evenodd" clip-rule="evenodd" d="M45.5275 133.362C42.2866 126.768 46.9718 121.115 46.7216 114.9C46.4714 108.674 43.1281 107.562 41.2972 103.846C36.9418 114.453 38.4201 124.303 45.5275 133.373V133.362Z" fill="#ED923A" fill-opacity="0.3"/>
<path fill-rule="evenodd" clip-rule="evenodd" d="M32.7816 116.161C31.0076 109.408 36.3524 105.153 37.2735 99.3512C38.1833 93.5491 35.3176 91.8405 34.3055 88.0336C28.3466 96.9317 27.8917 106.334 32.7816 116.161Z" fill="#ED923A" fill-opacity="0.3"/>
<path fill-rule="evenodd" clip-rule="evenodd" d="M25.4242 95.1433C24.7305 88.9283 29.9616 86.0043 31.4854 81.0392C33.0206 76.0741 30.7235 74.1363 30.3368 70.6274C23.9913 77.5533 22.3879 85.752 25.4242 95.1433Z" fill="#ED923A" fill-opacity="0.3"/>
<path fill-rule="evenodd" clip-rule="evenodd" d="M24.1349 73.3564C24.84 67.7721 29.9574 66.5337 32.3227 62.6006C34.6881 58.6675 33.1188 56.3971 33.5054 53.2438C26.5799 57.6814 23.4868 64.4123 24.1349 73.3564Z" fill="#ED923A" fill-opacity="0.3"/>
<path fill-rule="evenodd" clip-rule="evenodd" d="M27.2656 52.8655C29.0283 48.2559 33.6225 48.4737 36.4541 45.6988C39.2744 42.9124 38.4215 40.5732 39.4108 37.9702C32.6104 40.0457 28.5848 45.0452 27.2656 52.8655Z" fill="#ED923A" fill-opacity="0.3"/>
<path fill-rule="evenodd" clip-rule="evenodd" d="M33.543 37.1792C35.715 33.4869 39.6497 34.4616 42.4927 32.5352C45.3243 30.6088 44.9149 28.4301 46.143 26.3431C39.9908 26.9738 35.806 30.6202 33.543 37.1792Z" fill="#ED923A" fill-opacity="0.3"/>
<path fill-rule="evenodd" clip-rule="evenodd" d="M41.457 23.2123C43.5153 20.4144 46.6312 21.584 49.0762 20.2883C51.5212 18.9925 51.3733 17.1808 52.5333 15.5984C47.4955 15.5181 43.811 18.0867 41.457 23.2008V23.2123Z" fill="#ED923A" fill-opacity="0.3"/>
<path fill-rule="evenodd" clip-rule="evenodd" d="M50.8633 10.2553C52.8306 6.91853 56.3787 7.80146 58.9373 6.05852C61.496 4.32705 61.1321 2.35478 62.2352 0.462769C56.6743 1.02464 52.8989 4.32705 50.8633 10.2439V10.2553Z" fill="#ED923A" fill-opacity="0.3"/>
</g>
<g clip-path="url(#clip1_696_1239)">
<path fill-rule="evenodd" clip-rule="evenodd" d="M263.059 12.3993C277.444 26.8473 287.019 47.0861 288.498 69.9163C291.511 116.678 259.386 156.57 216.741 159.024L217.139 165.239C261.08 162.705 294.172 121.608 291.068 73.4251C289.487 48.9552 278.877 27.3748 263.047 12.3993H263.059Z" fill="#ED923A" fill-opacity="0.3"/>
<path fill-rule="evenodd" clip-rule="evenodd" d="M244.131 160.389C252.444 163.106 257.425 155.366 264.464 154.14C271.504 152.913 273.71 157.144 278.406 158.68C267.785 167.223 256.333 167.716 244.143 160.389H244.131Z" fill="#ED923A" fill-opacity="0.3"/>
<path fill-rule="evenodd" clip-rule="evenodd" d="M259.111 149.22C267.708 150.046 271.165 141.308 277.806 138.522C284.447 135.735 287.359 139.416 292.203 139.886C283.379 150.676 272.314 153.715 259.111 149.22Z" fill="#ED923A" fill-opacity="0.3"/>
<path fill-rule="evenodd" clip-rule="evenodd" d="M275.024 132.054C282.711 131.401 284.599 123.087 290.08 119.556C295.573 116.024 298.621 118.81 302.965 118.443C296.631 129.44 287.272 133.923 275.013 132.054H275.024Z" fill="#ED923A" fill-opacity="0.3"/>
<path fill-rule="evenodd" clip-rule="evenodd" d="M283.782 115.439C290.798 113.157 291.037 104.982 295.483 100.487C299.93 95.9917 303.273 97.941 307.23 96.6567C303.341 108.307 295.472 114.522 283.77 115.428L283.782 115.439Z" fill="#ED923A" fill-opacity="0.3"/>
<path fill-rule="evenodd" clip-rule="evenodd" d="M289.306 98.3995C295.834 94.799 294.765 86.6806 298.415 81.3944C302.066 76.1083 305.659 77.3925 309.344 75.3629C307.388 87.6208 300.656 95.2577 289.306 98.3995Z" fill="#ED923A" fill-opacity="0.3"/>
<path fill-rule="evenodd" clip-rule="evenodd" d="M290.931 79.8238C296.548 74.744 293.899 67.0384 296.389 60.984C298.88 54.9296 302.632 55.3309 305.805 52.4642C306.34 64.94 301.325 74.0446 290.931 79.8238Z" fill="#ED923A" fill-opacity="0.3"/>
<path fill-rule="evenodd" clip-rule="evenodd" d="M288.804 59.0573C292.466 52.9799 288.303 46.9714 289.02 40.9399C289.725 34.8969 293.08 34.1745 295.149 30.7345C298.618 41.5361 296.446 50.9847 288.804 59.0573Z" fill="#ED923A" fill-opacity="0.3"/>
<path fill-rule="evenodd" clip-rule="evenodd" d="M284.678 41.4559C286.236 35.1033 281.164 31.2276 280.22 25.8153C279.276 20.403 281.937 18.7518 282.813 15.1627C288.522 23.3844 289.09 32.1564 284.667 41.4444L284.678 41.4559Z" fill="#ED923A" fill-opacity="0.3"/>
<path fill-rule="evenodd" clip-rule="evenodd" d="M275.968 27.0998C276.513 22.2723 272.465 20.0019 271.282 16.1491C270.1 12.2963 271.885 10.7827 272.192 8.06506C277.105 13.4544 278.344 19.807 275.979 27.0998H275.968Z" fill="#ED923A" fill-opacity="0.3"/>
<path fill-rule="evenodd" clip-rule="evenodd" d="M267.34 15.4154C266.51 11.2186 262.564 10.6109 260.574 7.7786C258.572 4.94633 259.641 3.12312 259.175 0.749512C264.656 3.67352 267.351 8.59274 267.34 15.4154Z" fill="#ED923A" fill-opacity="0.3"/>
<path fill-rule="evenodd" clip-rule="evenodd" d="M232.606 154.483C237.757 148.372 234.278 141.136 236.177 134.623C238.076 128.099 241.897 127.823 244.808 124.383C246.639 136.779 242.511 146.812 232.606 154.495V154.483Z" fill="#ED923A" fill-opacity="0.3"/>
<path fill-rule="evenodd" clip-rule="evenodd" d="M247.574 147.179C252.589 141.113 249.03 133.878 250.804 127.387C252.578 120.897 256.364 120.634 259.196 117.216C261.209 129.578 257.263 139.565 247.574 147.179Z" fill="#ED923A" fill-opacity="0.3"/>
<path fill-rule="evenodd" clip-rule="evenodd" d="M264.289 133.362C267.53 126.768 262.845 121.115 263.095 114.9C263.345 108.674 266.688 107.562 268.519 103.846C272.875 114.453 271.396 124.303 264.289 133.373V133.362Z" fill="#ED923A" fill-opacity="0.3"/>
<path fill-rule="evenodd" clip-rule="evenodd" d="M277.035 116.161C278.809 109.408 273.464 105.153 272.543 99.3512C271.633 93.5491 274.499 91.8405 275.511 88.0336C281.47 96.9317 281.925 106.334 277.035 116.161Z" fill="#ED923A" fill-opacity="0.3"/>
<path fill-rule="evenodd" clip-rule="evenodd" d="M284.404 95.1433C285.098 88.9283 279.867 86.0043 278.343 81.0392C276.808 76.0741 279.105 74.1363 279.491 70.6274C285.837 77.5533 287.44 85.752 284.404 95.1433Z" fill="#ED923A" fill-opacity="0.3"/>
<path fill-rule="evenodd" clip-rule="evenodd" d="M285.681 73.3564C284.976 67.7721 279.859 66.5337 277.494 62.6006C275.128 58.6675 276.698 56.3971 276.311 53.2438C283.236 57.6814 286.33 64.4123 285.681 73.3564Z" fill="#ED923A" fill-opacity="0.3"/>
<path fill-rule="evenodd" clip-rule="evenodd" d="M282.551 52.8655C280.788 48.2559 276.194 48.4737 273.362 45.6988C270.542 42.9124 271.395 40.5732 270.406 37.9702C277.206 40.0457 281.232 45.0452 282.551 52.8655Z" fill="#ED923A" fill-opacity="0.3"/>
<path fill-rule="evenodd" clip-rule="evenodd" d="M276.27 37.1792C274.097 33.4869 270.163 34.4616 267.32 32.5352C264.488 30.6088 264.898 28.4301 263.669 26.3431C269.822 26.9738 274.007 30.6202 276.27 37.1792Z" fill="#ED923A" fill-opacity="0.3"/>
<path fill-rule="evenodd" clip-rule="evenodd" d="M268.359 23.2125C266.301 20.4146 263.185 21.5842 260.74 20.2885C258.295 18.9928 258.443 17.181 257.283 15.5986C262.321 15.5184 266.005 18.0869 268.359 23.2011V23.2125Z" fill="#ED923A" fill-opacity="0.3"/>
<path fill-rule="evenodd" clip-rule="evenodd" d="M258.953 10.2553C256.986 6.91853 253.438 7.80146 250.879 6.05852C248.32 4.32705 248.684 2.35478 247.581 0.462769C253.142 1.02464 256.918 4.32705 258.953 10.2439V10.2553Z" fill="#ED923A" fill-opacity="0.3"/>
</g>
<defs>
<linearGradient id="paint0_linear_696_1239" x1="85.2148" y1="83.2944" x2="224.215" y2="83.2944" gradientUnits="userSpaceOnUse">
<stop stop-color="#010E39"/>
<stop offset="1" stop-color="#0344A2"/>
</linearGradient>
<clipPath id="clip0_696_1239">
<rect width="92.59" height="165.052" fill="white" transform="translate(0.472656 0.473999)"/>
</clipPath>
<clipPath id="clip1_696_1239">
<rect width="92.59" height="165.052" fill="white" transform="matrix(-1 0 0 1 309.344 0.473999)"/>
</clipPath>
</defs>
</svg>
