<svg width="309" height="166" viewBox="0 0 309 166" fill="none" xmlns="http://www.w3.org/2000/svg">
<path d="M131.094 47.9726C132.314 47.9726 133.397 48.2046 134.343 48.6688C135.299 49.1329 136.05 49.8155 136.596 50.7165C137.142 51.6175 137.415 52.7279 137.415 54.0475C137.415 55.4855 137.114 56.7278 136.514 57.7744C135.922 58.8119 135.035 59.6083 133.852 60.1634C132.678 60.7186 131.212 60.9962 129.456 60.9962C128.409 60.9962 127.422 60.9052 126.493 60.7231C125.574 60.5502 124.769 60.2817 124.077 59.9177V56.2727C124.769 56.6368 125.597 56.9462 126.562 57.201C127.536 57.4468 128.45 57.5696 129.306 57.5696C130.143 57.5696 130.848 57.4604 131.422 57.242C131.995 57.0145 132.427 56.6686 132.719 56.2045C133.019 55.7312 133.169 55.1305 133.169 54.4025C133.169 53.4286 132.841 52.6824 132.186 52.1636C131.531 51.6448 130.525 51.3855 129.169 51.3855C128.65 51.3855 128.109 51.4355 127.545 51.5356C126.989 51.6357 126.525 51.7358 126.152 51.836L124.473 50.935L125.224 40.7645H136.05V44.3412H128.923L128.555 48.2592C128.864 48.1955 129.201 48.1318 129.565 48.0681C129.929 48.0044 130.439 47.9726 131.094 47.9726ZM153.674 50.7438C153.674 52.3547 153.546 53.7927 153.292 55.0577C153.046 56.3228 152.645 57.3967 152.09 58.2795C151.544 59.1623 150.825 59.8358 149.933 60.2999C149.041 60.7641 147.958 60.9962 146.684 60.9962C145.082 60.9962 143.767 60.5912 142.739 59.7812C141.71 58.9621 140.951 57.7881 140.459 56.2591C139.968 54.721 139.722 52.8826 139.722 50.7438C139.722 48.5869 139.945 46.7439 140.391 45.2149C140.846 43.6769 141.583 42.4983 142.602 41.6792C143.622 40.8601 144.982 40.4505 146.684 40.4505C148.277 40.4505 149.587 40.8601 150.616 41.6792C151.653 42.4892 152.422 43.6632 152.923 45.2013C153.424 46.7303 153.674 48.5778 153.674 50.7438ZM143.913 50.7438C143.913 52.2637 143.995 53.5333 144.159 54.5526C144.332 55.5628 144.618 56.3228 145.019 56.8324C145.419 57.3421 145.974 57.5969 146.684 57.5969C147.385 57.5969 147.936 57.3467 148.336 56.8461C148.746 56.3364 149.037 55.5765 149.21 54.5663C149.383 53.547 149.469 52.2728 149.469 50.7438C149.469 49.224 149.383 47.9544 149.21 46.935C149.037 45.9157 148.746 45.1512 148.336 44.6416C147.936 44.1228 147.385 43.8634 146.684 43.8634C145.974 43.8634 145.419 44.1228 145.019 44.6416C144.618 45.1512 144.332 45.9157 144.159 46.935C143.995 47.9544 143.913 49.224 143.913 50.7438ZM169.673 50.7438C169.673 52.3547 169.546 53.7927 169.291 55.0577C169.046 56.3228 168.645 57.3967 168.09 58.2795C167.544 59.1623 166.825 59.8358 165.933 60.2999C165.041 60.7641 163.958 60.9962 162.684 60.9962C161.082 60.9962 159.767 60.5912 158.739 59.7812C157.71 58.9621 156.95 57.7881 156.459 56.2591C155.967 54.721 155.722 52.8826 155.722 50.7438C155.722 48.5869 155.945 46.7439 156.39 45.2149C156.846 43.6769 157.583 42.4983 158.602 41.6792C159.621 40.8601 160.982 40.4505 162.684 40.4505C164.277 40.4505 165.587 40.8601 166.616 41.6792C167.653 42.4892 168.422 43.6632 168.923 45.2013C169.423 46.7303 169.673 48.5778 169.673 50.7438ZM159.913 50.7438C159.913 52.2637 159.995 53.5333 160.158 54.5526C160.331 55.5628 160.618 56.3228 161.018 56.8324C161.419 57.3421 161.974 57.5969 162.684 57.5969C163.385 57.5969 163.935 57.3467 164.336 56.8461C164.745 56.3364 165.036 55.5765 165.209 54.5663C165.382 53.547 165.469 52.2728 165.469 50.7438C165.469 49.224 165.382 47.9544 165.209 46.935C165.036 45.9157 164.745 45.1512 164.336 44.6416C163.935 44.1228 163.385 43.8634 162.684 43.8634C161.974 43.8634 161.419 44.1228 161.018 44.6416C160.618 45.1512 160.331 45.9157 160.158 46.935C159.995 47.9544 159.913 49.224 159.913 50.7438ZM180.185 49.3787H185.468V52.3684H180.185V57.6242H177.196V52.3684H171.912V49.3787H177.196V44.0545H180.185V49.3787ZM88.4465 80.5801C88.4465 82.6005 87.7548 84.1568 86.3715 85.2489C84.9972 86.332 83.0268 86.8735 80.4603 86.8735H78.1122V94.7231H75.7915V74.7645H80.9654C85.9528 74.7645 88.4465 76.703 88.4465 80.5801ZM78.1122 84.8803H80.2009C82.2578 84.8803 83.7458 84.5482 84.665 83.8838C85.5842 83.2194 86.0438 82.1546 86.0438 80.6893C86.0438 79.3697 85.6115 78.3867 84.7469 77.7406C83.8823 77.0944 82.5354 76.7713 80.706 76.7713H78.1122V84.8803ZM101.497 94.7231L101.047 92.5935H100.938C100.191 93.5309 99.4451 94.168 98.6988 94.5047C97.9617 94.8324 97.0379 94.9962 95.9276 94.9962C94.4441 94.9962 93.2792 94.6139 92.4328 93.8494C91.5955 93.085 91.1768 91.9974 91.1768 90.5867C91.1768 87.5652 93.5931 85.9816 98.4258 85.836L100.965 85.754V84.8257C100.965 83.6517 100.71 82.7871 100.201 82.2319C99.7 81.6677 98.8945 81.3855 97.7842 81.3855C96.5373 81.3855 95.1267 81.7678 93.5522 82.5323L92.856 80.7985C93.5931 80.3981 94.3986 80.0841 95.2723 79.8566C96.1551 79.629 97.0379 79.5153 97.9207 79.5153C99.7045 79.5153 101.024 79.9112 101.88 80.703C102.744 81.4948 103.177 82.7643 103.177 84.5118V94.7231H101.497ZM96.3781 93.1259C97.7887 93.1259 98.8945 92.7391 99.6954 91.9655C100.505 91.1919 100.91 90.1089 100.91 88.7164V87.3649L98.6442 87.4605C96.8422 87.5242 95.5408 87.8063 94.7399 88.3069C93.9481 88.7984 93.5522 89.5674 93.5522 90.614C93.5522 91.4331 93.7979 92.0565 94.2894 92.4843C94.7899 92.912 95.4862 93.1259 96.3781 93.1259ZM114.685 79.488C115.349 79.488 115.945 79.5426 116.473 79.6518L116.159 81.7541C115.54 81.6176 114.994 81.5494 114.521 81.5494C113.311 81.5494 112.273 82.0408 111.408 83.0237C110.553 84.0066 110.125 85.2307 110.125 86.696V94.7231H107.859V79.761H109.729L109.989 82.5323H110.098C110.653 81.5585 111.322 80.8076 112.105 80.2798C112.887 79.7519 113.747 79.488 114.685 79.488ZM124.104 93.1259C124.505 93.1259 124.892 93.0986 125.265 93.044C125.638 92.9803 125.934 92.9166 126.152 92.8529V94.5866C125.906 94.7049 125.542 94.8005 125.06 94.8733C124.587 94.9552 124.159 94.9962 123.777 94.9962C120.883 94.9962 119.436 93.4717 119.436 90.4229V81.5221H117.292V80.4299L119.436 79.488L120.391 76.2935H121.702V79.761H126.043V81.5221H121.702V90.3273C121.702 91.2283 121.916 91.92 122.343 92.4024C122.771 92.8847 123.358 93.1259 124.104 93.1259ZM131.422 94.7231H129.156V79.761H131.422V94.7231ZM128.964 75.7065C128.964 75.1877 129.092 74.81 129.347 74.5734C129.602 74.3277 129.92 74.2048 130.302 74.2048C130.666 74.2048 130.98 74.3277 131.244 74.5734C131.508 74.8191 131.64 75.1968 131.64 75.7065C131.64 76.2161 131.508 76.5984 131.244 76.8532C130.98 77.0989 130.666 77.2218 130.302 77.2218C129.92 77.2218 129.602 77.0989 129.347 76.8532C129.092 76.5984 128.964 76.2161 128.964 75.7065ZM142.206 94.9962C140.04 94.9962 138.361 94.3318 137.169 93.003C135.986 91.6652 135.394 89.7767 135.394 87.3376C135.394 84.8348 135.995 82.9009 137.196 81.5357C138.407 80.1705 140.127 79.488 142.357 79.488C143.076 79.488 143.795 79.5653 144.514 79.72C145.233 79.8748 145.797 80.0568 146.206 80.2661L145.51 82.191C145.01 81.9908 144.464 81.8269 143.872 81.6995C143.28 81.563 142.757 81.4948 142.302 81.4948C139.262 81.4948 137.742 83.4333 137.742 87.3103C137.742 89.1487 138.111 90.5594 138.848 91.5423C139.594 92.5252 140.696 93.0167 142.152 93.0167C143.399 93.0167 144.677 92.7482 145.988 92.2113V94.218C144.987 94.7368 143.726 94.9962 142.206 94.9962ZM151.817 94.7231H149.551V79.761H151.817V94.7231ZM149.36 75.7065C149.36 75.1877 149.487 74.81 149.742 74.5734C149.997 74.3277 150.316 74.2048 150.698 74.2048C151.062 74.2048 151.376 74.3277 151.64 74.5734C151.904 74.8191 152.036 75.1968 152.036 75.7065C152.036 76.2161 151.904 76.5984 151.64 76.8532C151.376 77.0989 151.062 77.2218 150.698 77.2218C150.316 77.2218 149.997 77.0989 149.742 76.8532C149.487 76.5984 149.36 76.2161 149.36 75.7065ZM163.585 94.9962C162.611 94.9962 161.719 94.8187 160.909 94.4638C160.108 94.0997 159.435 93.5446 158.889 92.7983H158.725C158.834 93.672 158.889 94.5002 158.889 95.2829V101.44H156.623V79.761H158.466L158.78 81.8087H158.889C159.471 80.9896 160.149 80.3981 160.923 80.034C161.696 79.67 162.584 79.488 163.585 79.488C165.569 79.488 167.098 80.166 168.172 81.5221C169.255 82.8781 169.796 84.7802 169.796 87.2284C169.796 89.6857 169.246 91.5969 168.145 92.9621C167.052 94.3181 165.532 94.9962 163.585 94.9962ZM163.257 81.4128C161.728 81.4128 160.622 81.836 159.94 82.6824C159.257 83.5288 158.907 84.8758 158.889 86.7233V87.2284C158.889 89.3308 159.239 90.837 159.94 91.7471C160.641 92.6481 161.765 93.0986 163.312 93.0986C164.604 93.0986 165.614 92.5753 166.342 91.5287C167.08 90.482 167.448 89.0395 167.448 87.2011C167.448 85.3354 167.08 83.9065 166.342 82.9145C165.614 81.9134 164.586 81.4128 163.257 81.4128ZM182.97 94.7231L182.52 92.5935H182.41C181.664 93.5309 180.918 94.168 180.172 94.5047C179.434 94.8324 178.511 94.9962 177.4 94.9962C175.917 94.9962 174.752 94.6139 173.905 93.8494C173.068 93.085 172.65 91.9974 172.65 90.5867C172.65 87.5652 175.066 85.9816 179.899 85.836L182.438 85.754V84.8257C182.438 83.6517 182.183 82.7871 181.673 82.2319C181.173 81.6677 180.367 81.3855 179.257 81.3855C178.01 81.3855 176.599 81.7678 175.025 82.5323L174.329 80.7985C175.066 80.3981 175.871 80.0841 176.745 79.8566C177.628 79.629 178.511 79.5153 179.393 79.5153C181.177 79.5153 182.497 79.9112 183.352 80.703C184.217 81.4948 184.649 82.7643 184.649 84.5118V94.7231H182.97ZM177.851 93.1259C179.261 93.1259 180.367 92.7391 181.168 91.9655C181.978 91.1919 182.383 90.1089 182.383 88.7164V87.3649L180.117 87.4605C178.315 87.5242 177.013 87.8063 176.213 88.3069C175.421 88.7984 175.025 89.5674 175.025 90.614C175.025 91.4331 175.271 92.0565 175.762 92.4843C176.263 92.912 176.959 93.1259 177.851 93.1259ZM194.164 93.1259C194.565 93.1259 194.952 93.0986 195.325 93.044C195.698 92.9803 195.994 92.9166 196.212 92.8529V94.5866C195.966 94.7049 195.602 94.8005 195.12 94.8733C194.647 94.9552 194.219 94.9962 193.837 94.9962C190.943 94.9962 189.496 93.4717 189.496 90.4229V81.5221H187.352V80.4299L189.496 79.488L190.451 76.2935H191.762V79.761H196.103V81.5221H191.762V90.3273C191.762 91.2283 191.976 91.92 192.403 92.4024C192.831 92.8847 193.418 93.1259 194.164 93.1259ZM201.482 94.7231H199.216V79.761H201.482V94.7231ZM199.024 75.7065C199.024 75.1877 199.152 74.81 199.407 74.5734C199.661 74.3277 199.98 74.2048 200.362 74.2048C200.726 74.2048 201.04 74.3277 201.304 74.5734C201.568 74.8191 201.7 75.1968 201.7 75.7065C201.7 76.2161 201.568 76.5984 201.304 76.8532C201.04 77.0989 200.726 77.2218 200.362 77.2218C199.98 77.2218 199.661 77.0989 199.407 76.8532C199.152 76.5984 199.024 76.2161 199.024 75.7065ZM216.526 94.7231V85.0442C216.526 83.8246 216.248 82.9145 215.693 82.3138C215.138 81.7132 214.269 81.4128 213.086 81.4128C211.52 81.4128 210.373 81.836 209.645 82.6824C208.917 83.5288 208.553 84.9259 208.553 86.8735V94.7231H206.287V79.761H208.13L208.499 81.8087H208.608C209.072 81.0716 209.723 80.5027 210.56 80.1023C211.397 79.6927 212.33 79.488 213.359 79.488C215.161 79.488 216.517 79.9248 217.427 80.7985C218.337 81.6631 218.792 83.051 218.792 84.9623V94.7231H216.526ZM235.706 79.761V81.1944L232.935 81.5221C233.19 81.8406 233.417 82.2592 233.618 82.778C233.818 83.2877 233.918 83.8656 233.918 84.5118C233.918 85.977 233.417 87.1465 232.416 88.0202C231.415 88.8939 230.041 89.3308 228.293 89.3308C227.847 89.3308 227.429 89.2944 227.037 89.2216C226.073 89.7312 225.59 90.3728 225.59 91.1464C225.59 91.556 225.759 91.8609 226.096 92.0611C226.432 92.2522 227.01 92.3478 227.829 92.3478H230.478C232.098 92.3478 233.34 92.6891 234.205 93.3716C235.078 94.0542 235.515 95.0462 235.515 96.3477C235.515 98.0041 234.851 99.2646 233.522 100.129C232.193 101.003 230.255 101.44 227.706 101.44C225.75 101.44 224.239 101.076 223.174 100.348C222.118 99.6195 221.59 98.5911 221.59 97.2623C221.59 96.3522 221.882 95.565 222.464 94.9006C223.047 94.2362 223.866 93.7857 224.921 93.5491C224.539 93.3762 224.216 93.1077 223.952 92.7437C223.697 92.3796 223.57 91.9564 223.57 91.4741C223.57 90.928 223.716 90.4502 224.007 90.0406C224.298 89.6311 224.758 89.2352 225.386 88.853C224.612 88.5344 223.98 87.9929 223.488 87.2284C223.006 86.4639 222.765 85.5902 222.765 84.6073C222.765 82.9691 223.256 81.7086 224.239 80.8258C225.222 79.9339 226.614 79.488 228.416 79.488C229.199 79.488 229.904 79.579 230.532 79.761H235.706ZM223.775 97.235C223.775 98.045 224.116 98.6594 224.799 99.078C225.481 99.4967 226.46 99.706 227.734 99.706C229.636 99.706 231.042 99.4193 231.952 98.8459C232.871 98.2817 233.331 97.5126 233.331 96.5388C233.331 95.7288 233.081 95.1645 232.58 94.846C232.079 94.5366 231.138 94.3819 229.754 94.3819H227.037C226.009 94.3819 225.208 94.6276 224.635 95.119C224.061 95.6105 223.775 96.3158 223.775 97.235ZM225.003 84.5527C225.003 85.5993 225.299 86.3911 225.891 86.9281C226.482 87.465 227.306 87.7335 228.362 87.7335C230.573 87.7335 231.679 86.6596 231.679 84.5118C231.679 82.2638 230.56 81.1398 228.321 81.1398C227.256 81.1398 226.437 81.4265 225.863 81.9999C225.29 82.5732 225.003 83.4242 225.003 84.5527ZM115.053 123.413C115.053 125.169 114.416 126.539 113.142 127.522C111.868 128.505 110.139 128.996 107.955 128.996C105.588 128.996 103.768 128.691 102.494 128.082V125.843C103.313 126.188 104.205 126.462 105.17 126.662C106.134 126.862 107.09 126.962 108.037 126.962C109.584 126.962 110.749 126.671 111.531 126.088C112.314 125.497 112.705 124.678 112.705 123.631C112.705 122.939 112.564 122.375 112.282 121.938C112.009 121.492 111.545 121.083 110.89 120.71C110.244 120.337 109.256 119.913 107.927 119.44C106.071 118.776 104.742 117.988 103.941 117.078C103.149 116.168 102.753 114.981 102.753 113.515C102.753 111.977 103.331 110.753 104.487 109.843C105.643 108.933 107.172 108.478 109.074 108.478C111.058 108.478 112.883 108.842 114.548 109.57L113.825 111.59C112.178 110.899 110.576 110.553 109.019 110.553C107.791 110.553 106.831 110.817 106.139 111.345C105.447 111.873 105.101 112.605 105.101 113.543C105.101 114.234 105.229 114.803 105.484 115.249C105.739 115.686 106.166 116.091 106.767 116.464C107.377 116.828 108.305 117.233 109.552 117.679C111.645 118.425 113.083 119.226 113.866 120.082C114.658 120.937 115.053 122.048 115.053 123.413ZM124.773 128.996C122.607 128.996 120.928 128.332 119.736 127.003C118.553 125.665 117.961 123.777 117.961 121.338C117.961 118.835 118.562 116.901 119.763 115.536C120.974 114.171 122.694 113.488 124.924 113.488C125.643 113.488 126.362 113.565 127.081 113.72C127.799 113.875 128.364 114.057 128.773 114.266L128.077 116.191C127.577 115.991 127.03 115.827 126.439 115.7C125.847 115.563 125.324 115.495 124.869 115.495C121.829 115.495 120.309 117.433 120.309 121.31C120.309 123.149 120.678 124.559 121.415 125.542C122.161 126.525 123.263 127.017 124.719 127.017C125.966 127.017 127.244 126.748 128.555 126.211V128.218C127.554 128.737 126.293 128.996 124.773 128.996ZM142.357 128.723V119.044C142.357 117.825 142.079 116.915 141.524 116.314C140.969 115.713 140.1 115.413 138.916 115.413C137.342 115.413 136.191 115.841 135.463 116.696C134.744 117.552 134.384 118.953 134.384 120.901V128.723H132.118V107.481H134.384V113.911C134.384 114.685 134.348 115.326 134.275 115.836H134.411C134.857 115.117 135.49 114.553 136.309 114.143C137.137 113.725 138.079 113.515 139.135 113.515C140.964 113.515 142.334 113.952 143.244 114.826C144.163 115.69 144.623 117.069 144.623 118.962V128.723H142.357ZM162.206 121.228C162.206 123.668 161.592 125.574 160.363 126.948C159.134 128.314 157.437 128.996 155.271 128.996C153.933 128.996 152.746 128.682 151.708 128.054C150.67 127.426 149.87 126.525 149.305 125.351C148.741 124.177 148.459 122.803 148.459 121.228C148.459 118.789 149.069 116.892 150.288 115.536C151.508 114.171 153.201 113.488 155.367 113.488C157.46 113.488 159.121 114.184 160.349 115.577C161.587 116.969 162.206 118.853 162.206 121.228ZM150.807 121.228C150.807 123.14 151.189 124.596 151.954 125.597C152.718 126.598 153.842 127.099 155.326 127.099C156.809 127.099 157.933 126.603 158.698 125.611C159.471 124.609 159.858 123.149 159.858 121.228C159.858 119.326 159.471 117.884 158.698 116.901C157.933 115.909 156.8 115.413 155.298 115.413C153.815 115.413 152.695 115.9 151.94 116.874C151.185 117.847 150.807 119.299 150.807 121.228ZM179.107 121.228C179.107 123.668 178.492 125.574 177.264 126.948C176.035 128.314 174.338 128.996 172.172 128.996C170.834 128.996 169.646 128.682 168.609 128.054C167.571 127.426 166.77 126.525 166.206 125.351C165.642 124.177 165.36 122.803 165.36 121.228C165.36 118.789 165.969 116.892 167.189 115.536C168.408 114.171 170.101 113.488 172.267 113.488C174.361 113.488 176.021 114.184 177.25 115.577C178.488 116.969 179.107 118.853 179.107 121.228ZM167.708 121.228C167.708 123.14 168.09 124.596 168.854 125.597C169.619 126.598 170.743 127.099 172.226 127.099C173.71 127.099 174.834 126.603 175.598 125.611C176.372 124.609 176.759 123.149 176.759 121.228C176.759 119.326 176.372 117.884 175.598 116.901C174.834 115.909 173.701 115.413 172.199 115.413C170.716 115.413 169.596 115.9 168.841 116.874C168.085 117.847 167.708 119.299 167.708 121.228ZM185.359 128.723H183.093V107.481H185.359V128.723ZM199.816 124.641C199.816 126.034 199.297 127.108 198.26 127.863C197.222 128.618 195.766 128.996 193.891 128.996C191.907 128.996 190.36 128.682 189.25 128.054V125.952C189.969 126.316 190.738 126.603 191.557 126.812C192.385 127.021 193.182 127.126 193.946 127.126C195.129 127.126 196.039 126.939 196.676 126.566C197.313 126.184 197.632 125.606 197.632 124.832C197.632 124.25 197.377 123.754 196.867 123.344C196.367 122.926 195.384 122.434 193.919 121.87C192.526 121.351 191.534 120.901 190.943 120.519C190.36 120.127 189.923 119.686 189.632 119.194C189.35 118.703 189.209 118.116 189.209 117.433C189.209 116.214 189.705 115.254 190.697 114.553C191.689 113.843 193.05 113.488 194.779 113.488C196.39 113.488 197.964 113.816 199.502 114.471L198.697 116.314C197.195 115.695 195.834 115.386 194.615 115.386C193.541 115.386 192.731 115.554 192.185 115.891C191.639 116.227 191.366 116.692 191.366 117.283C191.366 117.684 191.466 118.025 191.666 118.307C191.876 118.589 192.208 118.858 192.663 119.112C193.118 119.367 193.992 119.736 195.284 120.218C197.059 120.864 198.255 121.515 198.874 122.17C199.502 122.826 199.816 123.649 199.816 124.641Z" fill="url(#paint0_linear_696_1333)"/>
<g clip-path="url(#clip0_696_1333)">
<path fill-rule="evenodd" clip-rule="evenodd" d="M46.3514 12.3993C31.9659 26.8473 22.3908 47.0861 20.9124 69.9163C17.8989 116.678 50.0245 156.57 92.6691 159.024L92.2711 165.239C48.3301 162.705 15.2378 121.608 18.3424 73.4251C19.9231 48.9552 30.5331 27.3748 46.3627 12.3993H46.3514Z" fill="#ED923A" fill-opacity="0.3"/>
<path fill-rule="evenodd" clip-rule="evenodd" d="M65.2749 160.389C56.9621 163.106 51.9812 155.366 44.942 154.139C37.9027 152.912 35.6966 157.143 31 158.68C41.6214 167.223 53.0729 167.716 65.2635 160.389H65.2749Z" fill="#ED923A" fill-opacity="0.3"/>
<path fill-rule="evenodd" clip-rule="evenodd" d="M50.2954 149.22C41.6982 150.046 38.2411 141.308 31.6 138.522C24.9588 135.736 22.0476 139.416 17.2031 139.887C26.0277 150.677 37.0926 153.715 50.2954 149.22Z" fill="#ED923A" fill-opacity="0.3"/>
<path fill-rule="evenodd" clip-rule="evenodd" d="M34.39 132.055C26.7026 131.401 24.8148 123.088 19.3336 119.556C13.841 116.024 10.7933 118.811 6.44922 118.444C12.7834 129.44 22.1424 133.924 34.4014 132.055H34.39Z" fill="#ED923A" fill-opacity="0.3"/>
<path fill-rule="evenodd" clip-rule="evenodd" d="M25.6325 115.439C18.616 113.157 18.3772 104.982 13.9308 100.487C9.48436 95.9918 6.14102 97.9411 2.18359 96.6569C6.07279 108.307 13.9421 114.522 25.6438 115.428L25.6325 115.439Z" fill="#ED923A" fill-opacity="0.3"/>
<path fill-rule="evenodd" clip-rule="evenodd" d="M20.1076 98.3995C13.5801 94.799 14.6491 86.6806 10.9987 81.3944C7.34833 76.1083 3.75481 77.3925 0.0703125 75.3629C2.02628 87.6208 8.75845 95.2577 20.1076 98.3995Z" fill="#ED923A" fill-opacity="0.3"/>
<path fill-rule="evenodd" clip-rule="evenodd" d="M18.4756 79.8238C12.8579 74.744 15.5075 67.0384 13.0171 60.984C10.5266 54.9296 6.77389 55.3309 3.60113 52.4642C3.06665 64.94 8.08166 74.0446 18.4756 79.8238Z" fill="#ED923A" fill-opacity="0.3"/>
<path fill-rule="evenodd" clip-rule="evenodd" d="M20.6025 59.0573C16.9407 52.9799 21.1028 46.9714 20.3864 40.9399C19.6813 34.8969 16.3266 34.1745 14.2569 30.7345C10.7885 41.5361 12.9605 50.9847 20.6025 59.0573Z" fill="#ED923A" fill-opacity="0.3"/>
<path fill-rule="evenodd" clip-rule="evenodd" d="M24.7283 41.4563C23.1703 35.1037 28.2422 31.2279 29.1861 25.8157C30.1299 20.4034 27.4689 18.7522 26.5933 15.1631C20.8846 23.3847 20.316 32.1567 24.7396 41.4448L24.7283 41.4563Z" fill="#ED923A" fill-opacity="0.3"/>
<path fill-rule="evenodd" clip-rule="evenodd" d="M33.4464 27.0997C32.9006 22.2722 36.949 20.0018 38.1317 16.149C39.3143 12.2962 37.5289 10.7826 37.2219 8.06494C32.3092 13.4543 31.0697 19.8068 33.4351 27.0997H33.4464Z" fill="#ED923A" fill-opacity="0.3"/>
<path fill-rule="evenodd" clip-rule="evenodd" d="M42.0743 15.4151C42.9044 11.2183 46.8505 10.6105 48.8405 7.77824C50.842 4.94596 49.773 3.12275 50.2393 0.749146C44.758 3.67316 42.0629 8.59237 42.0743 15.4151Z" fill="#ED923A" fill-opacity="0.3"/>
<path fill-rule="evenodd" clip-rule="evenodd" d="M76.8082 154.483C71.6567 148.372 75.1365 141.136 73.2374 134.623C71.3383 128.099 67.5174 127.823 64.6062 124.383C62.7753 136.779 66.9033 146.812 76.8082 154.495V154.483Z" fill="#ED923A" fill-opacity="0.3"/>
<path fill-rule="evenodd" clip-rule="evenodd" d="M61.8362 147.179C56.8212 141.113 60.3806 133.878 58.6066 127.387C56.8326 120.897 53.0457 120.634 50.2141 117.216C48.2013 129.578 52.1473 139.565 61.8362 147.179Z" fill="#ED923A" fill-opacity="0.3"/>
<path fill-rule="evenodd" clip-rule="evenodd" d="M45.1174 133.362C41.8764 126.768 46.5616 121.115 46.3114 114.9C46.0613 108.674 42.7179 107.562 40.887 103.846C36.5316 114.453 38.01 124.303 45.1174 133.373V133.362Z" fill="#ED923A" fill-opacity="0.3"/>
<path fill-rule="evenodd" clip-rule="evenodd" d="M32.3793 116.161C30.6053 109.408 35.9501 105.153 36.8712 99.3512C37.7809 93.5491 34.9152 91.8405 33.9031 88.0336C27.9443 96.9317 27.4894 106.334 32.3793 116.161Z" fill="#ED923A" fill-opacity="0.3"/>
<path fill-rule="evenodd" clip-rule="evenodd" d="M25.0101 95.1433C24.3164 88.9283 29.5475 86.0043 31.0713 81.0392C32.6065 76.0741 30.3094 74.1363 29.9228 70.6274C23.5773 77.5533 21.9738 85.752 25.0101 95.1433Z" fill="#ED923A" fill-opacity="0.3"/>
<path fill-rule="evenodd" clip-rule="evenodd" d="M23.7209 73.3564C24.4259 67.7721 29.5433 66.5337 31.9087 62.6006C34.274 58.6675 32.7047 56.3971 33.0913 53.2438C26.1658 57.6814 23.0727 64.4123 23.7209 73.3564Z" fill="#ED923A" fill-opacity="0.3"/>
<path fill-rule="evenodd" clip-rule="evenodd" d="M26.8555 52.8655C28.6181 48.2559 33.2124 48.4737 36.044 45.6988C38.8642 42.9124 38.0113 40.5732 39.0007 37.9702C32.2003 40.0457 28.1746 45.0452 26.8555 52.8655Z" fill="#ED923A" fill-opacity="0.3"/>
<path fill-rule="evenodd" clip-rule="evenodd" d="M33.1367 37.1792C35.3088 33.4869 39.2434 34.4616 42.0864 32.5352C44.918 30.6088 44.5086 28.4301 45.7368 26.3431C39.5846 26.9738 35.3997 30.6202 33.1367 37.1792Z" fill="#ED923A" fill-opacity="0.3"/>
<path fill-rule="evenodd" clip-rule="evenodd" d="M41.0469 23.2123C43.1052 20.4144 46.2211 21.584 48.6661 20.2883C51.111 18.9925 50.9632 17.1808 52.1231 15.5984C47.0854 15.5181 43.4009 18.0867 41.0469 23.2008V23.2123Z" fill="#ED923A" fill-opacity="0.3"/>
<path fill-rule="evenodd" clip-rule="evenodd" d="M50.4531 10.2553C52.4205 6.91853 55.9685 7.80146 58.5272 6.05852C61.0859 4.32705 60.722 2.35478 61.825 0.462769C56.2642 1.02464 52.4887 4.32705 50.4531 10.2439V10.2553Z" fill="#ED923A" fill-opacity="0.3"/>
</g>
<g clip-path="url(#clip1_696_1333)">
<path fill-rule="evenodd" clip-rule="evenodd" d="M262.649 12.3993C277.034 26.8473 286.609 47.0861 288.088 69.9163C291.101 116.678 258.976 156.57 216.331 159.024L216.729 165.239C260.67 162.705 293.762 121.608 290.658 73.4251C289.077 48.9552 278.467 27.3748 262.637 12.3993H262.649Z" fill="#ED923A" fill-opacity="0.3"/>
<path fill-rule="evenodd" clip-rule="evenodd" d="M243.725 160.389C252.038 163.106 257.019 155.366 264.058 154.139C271.097 152.912 273.303 157.143 278 158.68C267.379 167.223 255.927 167.716 243.736 160.389H243.725Z" fill="#ED923A" fill-opacity="0.3"/>
<path fill-rule="evenodd" clip-rule="evenodd" d="M258.701 149.22C267.298 150.046 270.755 141.308 277.396 138.522C284.037 135.736 286.949 139.416 291.793 139.887C282.968 150.677 271.904 153.715 258.701 149.22Z" fill="#ED923A" fill-opacity="0.3"/>
<path fill-rule="evenodd" clip-rule="evenodd" d="M274.618 132.054C282.305 131.4 284.193 123.087 289.674 119.555C295.167 116.024 298.215 118.81 302.559 118.443C296.224 129.44 286.865 133.923 274.606 132.054H274.618Z" fill="#ED923A" fill-opacity="0.3"/>
<path fill-rule="evenodd" clip-rule="evenodd" d="M283.371 115.439C290.388 113.157 290.627 104.982 295.073 100.487C299.52 95.9918 302.863 97.9411 306.82 96.6569C302.931 108.307 295.062 114.522 283.36 115.428L283.371 115.439Z" fill="#ED923A" fill-opacity="0.3"/>
<path fill-rule="evenodd" clip-rule="evenodd" d="M288.896 98.3995C295.424 94.799 294.355 86.6806 298.005 81.3944C301.656 76.1083 305.249 77.3925 308.934 75.3629C306.978 87.6208 300.245 95.2577 288.896 98.3995Z" fill="#ED923A" fill-opacity="0.3"/>
<path fill-rule="evenodd" clip-rule="evenodd" d="M290.521 79.8238C296.138 74.744 293.489 67.0384 295.979 60.984C298.469 54.9296 302.222 55.3309 305.395 52.4642C305.929 64.94 300.914 74.0446 290.521 79.8238Z" fill="#ED923A" fill-opacity="0.3"/>
<path fill-rule="evenodd" clip-rule="evenodd" d="M288.394 59.0573C292.055 52.9799 287.893 46.9714 288.61 40.9399C289.315 34.8969 292.669 34.1745 294.739 30.7345C298.208 41.5361 296.036 50.9847 288.394 59.0573Z" fill="#ED923A" fill-opacity="0.3"/>
<path fill-rule="evenodd" clip-rule="evenodd" d="M284.272 41.4559C285.83 35.1033 280.758 31.2276 279.814 25.8153C278.87 20.403 281.531 18.7518 282.407 15.1627C288.115 23.3844 288.684 32.1564 284.26 41.4444L284.272 41.4559Z" fill="#ED923A" fill-opacity="0.3"/>
<path fill-rule="evenodd" clip-rule="evenodd" d="M275.557 27.0998C276.103 22.2723 272.055 20.0019 270.872 16.1491C269.69 12.2963 271.475 10.7827 271.782 8.06506C276.695 13.4544 277.934 19.807 275.569 27.0998H275.557Z" fill="#ED923A" fill-opacity="0.3"/>
<path fill-rule="evenodd" clip-rule="evenodd" d="M266.93 15.4154C266.1 11.2186 262.153 10.6109 260.163 7.7786C258.162 4.94633 259.231 3.12312 258.765 0.749512C264.246 3.67352 266.941 8.59274 266.93 15.4154Z" fill="#ED923A" fill-opacity="0.3"/>
<path fill-rule="evenodd" clip-rule="evenodd" d="M232.2 154.483C237.351 148.372 233.871 141.136 235.77 134.623C237.669 128.099 241.49 127.823 244.402 124.383C246.233 136.779 242.105 146.812 232.2 154.495V154.483Z" fill="#ED923A" fill-opacity="0.3"/>
<path fill-rule="evenodd" clip-rule="evenodd" d="M247.164 147.179C252.179 141.113 248.619 133.878 250.393 127.387C252.167 120.897 255.954 120.634 258.786 117.216C260.799 129.578 256.853 139.565 247.164 147.179Z" fill="#ED923A" fill-opacity="0.3"/>
<path fill-rule="evenodd" clip-rule="evenodd" d="M263.879 133.362C267.12 126.768 262.434 121.115 262.685 114.9C262.935 108.674 266.278 107.562 268.109 103.846C272.464 114.453 270.986 124.303 263.879 133.373V133.362Z" fill="#ED923A" fill-opacity="0.3"/>
<path fill-rule="evenodd" clip-rule="evenodd" d="M276.625 116.161C278.399 109.408 273.054 105.153 272.133 99.3512C271.223 93.5491 274.089 91.8405 275.101 88.0336C281.06 96.9317 281.515 106.334 276.625 116.161Z" fill="#ED923A" fill-opacity="0.3"/>
<path fill-rule="evenodd" clip-rule="evenodd" d="M283.99 95.1433C284.684 88.9283 279.452 86.0043 277.929 81.0392C276.393 76.0741 278.691 74.1363 279.077 70.6274C285.423 77.5533 287.026 85.752 283.99 95.1433Z" fill="#ED923A" fill-opacity="0.3"/>
<path fill-rule="evenodd" clip-rule="evenodd" d="M285.271 73.3564C284.566 67.7721 279.449 66.5337 277.084 62.6006C274.718 58.6675 276.287 56.3971 275.901 53.2438C282.826 57.6814 285.919 64.4123 285.271 73.3564Z" fill="#ED923A" fill-opacity="0.3"/>
<path fill-rule="evenodd" clip-rule="evenodd" d="M282.141 52.8655C280.378 48.2559 275.784 48.4737 272.952 45.6988C270.132 42.9124 270.985 40.5732 269.995 37.9702C276.796 40.0457 280.821 45.0452 282.141 52.8655Z" fill="#ED923A" fill-opacity="0.3"/>
<path fill-rule="evenodd" clip-rule="evenodd" d="M275.871 37.1792C273.699 33.4869 269.764 34.4616 266.921 32.5352C264.09 30.6088 264.499 28.4301 263.271 26.3431C269.423 26.9738 273.608 30.6202 275.871 37.1792Z" fill="#ED923A" fill-opacity="0.3"/>
<path fill-rule="evenodd" clip-rule="evenodd" d="M267.949 23.2125C265.891 20.4146 262.775 21.5842 260.33 20.2885C257.885 18.9928 258.033 17.181 256.873 15.5986C261.911 15.5184 265.595 18.0869 267.949 23.2011V23.2125Z" fill="#ED923A" fill-opacity="0.3"/>
<path fill-rule="evenodd" clip-rule="evenodd" d="M258.547 10.2553C256.58 6.91853 253.032 7.80146 250.473 6.05852C247.914 4.32705 248.278 2.35478 247.175 0.462769C252.736 1.02464 256.511 4.32705 258.547 10.2439V10.2553Z" fill="#ED923A" fill-opacity="0.3"/>
</g>
<defs>
<linearGradient id="paint0_linear_696_1333" x1="68.2148" y1="83.7231" x2="241.208" y2="83.7231" gradientUnits="userSpaceOnUse">
<stop stop-color="#010E39"/>
<stop offset="1" stop-color="#0344A2"/>
</linearGradient>
<clipPath id="clip0_696_1333">
<rect width="92.59" height="165.052" fill="white" transform="translate(0.0703125 0.473999)"/>
</clipPath>
<clipPath id="clip1_696_1333">
<rect width="92.59" height="165.052" fill="white" transform="matrix(-1 0 0 1 308.934 0.473999)"/>
</clipPath>
</defs>
</svg>
