<svg width="310" height="166" viewBox="0 0 310 166" fill="none" xmlns="http://www.w3.org/2000/svg">
<path d="M146.384 60.2944H132.432V57.3593L137.443 52.2946C138.453 51.2571 139.263 50.3925 139.873 49.7008C140.491 49 140.937 48.3629 141.21 47.7896C141.493 47.2162 141.634 46.6019 141.634 45.9466C141.634 45.1548 141.411 44.5632 140.965 44.1719C140.528 43.7715 139.941 43.5712 139.204 43.5712C138.43 43.5712 137.679 43.7487 136.951 44.1036C136.223 44.4586 135.463 44.9637 134.671 45.619L132.378 42.9023C132.951 42.4108 133.556 41.9467 134.193 41.5098C134.84 41.073 135.586 40.7226 136.432 40.4587C137.288 40.1856 138.312 40.0491 139.504 40.0491C140.815 40.0491 141.938 40.2857 142.876 40.759C143.822 41.2323 144.55 41.8784 145.06 42.6975C145.57 43.5075 145.825 44.4267 145.825 45.4552C145.825 46.5564 145.606 47.562 145.169 48.4722C144.733 49.3823 144.095 50.2833 143.258 51.1752C142.43 52.0671 141.429 53.0545 140.255 54.1376L137.688 56.5539V56.745H146.384V60.2944ZM162.384 60.2944H148.432V57.3593L153.442 52.2946C154.452 51.2571 155.262 50.3925 155.872 49.7008C156.491 49 156.937 48.3629 157.21 47.7896C157.492 47.2162 157.633 46.6019 157.633 45.9466C157.633 45.1548 157.41 44.5632 156.964 44.1719C156.527 43.7715 155.94 43.5712 155.203 43.5712C154.43 43.5712 153.679 43.7487 152.951 44.1036C152.223 44.4586 151.463 44.9637 150.671 45.619L148.377 42.9023C148.951 42.4108 149.556 41.9467 150.193 41.5098C150.839 41.073 151.586 40.7226 152.432 40.4587C153.288 40.1856 154.311 40.0491 155.504 40.0491C156.814 40.0491 157.938 40.2857 158.876 40.759C159.822 41.2323 160.55 41.8784 161.06 42.6975C161.569 43.5075 161.824 44.4267 161.824 45.4552C161.824 46.5564 161.606 47.562 161.169 48.4722C160.732 49.3823 160.095 50.2833 159.258 51.1752C158.43 52.0671 157.428 53.0545 156.254 54.1376L153.688 56.5539V56.745H162.384V60.2944ZM172.787 48.95H178.07V51.9397H172.787V57.1955H169.797V51.9397H164.514V48.95H169.797V43.6258H172.787V48.95ZM121.675 82.5541L125.839 74.3358H130.398L123.777 86.5267V94.2944H119.573V86.6632L112.952 74.3358H117.539L121.675 82.5541ZM138.876 78.7453C140.287 78.7453 141.502 79.0183 142.521 79.5644C143.54 80.1013 144.328 80.884 144.883 81.9124C145.438 82.9409 145.715 84.1968 145.715 85.6803V87.7007H135.873C135.918 88.8748 136.269 89.7985 136.924 90.472C137.588 91.1364 138.507 91.4686 139.681 91.4686C140.655 91.4686 141.547 91.3684 142.357 91.1682C143.167 90.968 144 90.6677 144.855 90.2672V93.489C144.1 93.8621 143.308 94.1352 142.48 94.3081C141.661 94.481 140.664 94.5675 139.49 94.5675C137.961 94.5675 136.605 94.2853 135.422 93.7211C134.248 93.1568 133.324 92.2968 132.651 91.1409C131.986 89.9851 131.654 88.5289 131.654 86.7724C131.654 84.9886 131.955 83.5051 132.555 82.322C133.165 81.1297 134.011 80.2378 135.094 79.6463C136.178 79.0456 137.438 78.7453 138.876 78.7453ZM138.903 81.7077C138.093 81.7077 137.42 81.967 136.883 82.4858C136.355 83.0046 136.05 83.8191 135.968 84.9294H141.811C141.802 84.3106 141.688 83.76 141.47 83.2776C141.26 82.7952 140.942 82.413 140.514 82.1309C140.096 81.8487 139.559 81.7077 138.903 81.7077ZM155.353 78.718C157.401 78.718 158.971 79.1639 160.063 80.0558C161.155 80.9477 161.701 82.3038 161.701 84.124V94.2944H158.794L157.988 92.2194H157.879C157.442 92.7655 156.996 93.2114 156.541 93.5572C156.086 93.9031 155.563 94.1579 154.971 94.3217C154.38 94.4856 153.661 94.5675 152.814 94.5675C151.913 94.5675 151.103 94.3945 150.384 94.0487C149.674 93.7029 149.115 93.175 148.705 92.4651C148.296 91.7461 148.091 90.836 148.091 89.7348C148.091 88.1148 148.66 86.9226 149.797 86.1581C150.935 85.3845 152.641 84.9567 154.917 84.8748L157.565 84.7929V84.124C157.565 83.3231 157.356 82.7361 156.937 82.3629C156.518 81.9898 155.936 81.8032 155.19 81.8032C154.452 81.8032 153.729 81.9079 153.019 82.1172C152.309 82.3265 151.599 82.5905 150.889 82.909L149.511 80.0968C150.321 79.669 151.226 79.3323 152.227 79.0866C153.237 78.8408 154.28 78.718 155.353 78.718ZM157.565 87.2229L155.954 87.2775C154.607 87.3139 153.67 87.5551 153.142 88.001C152.623 88.447 152.364 89.034 152.364 89.7621C152.364 90.3992 152.55 90.8542 152.923 91.1273C153.297 91.3912 153.784 91.5232 154.384 91.5232C155.276 91.5232 156.027 91.2592 156.637 90.7314C157.256 90.2035 157.565 89.4527 157.565 88.4789V87.2229ZM174.52 78.7453C174.73 78.7453 174.971 78.7589 175.244 78.7862C175.526 78.8044 175.753 78.8317 175.926 78.8681L175.612 82.7725C175.476 82.727 175.28 82.6951 175.025 82.6769C174.78 82.6496 174.566 82.636 174.384 82.636C173.847 82.636 173.324 82.7042 172.814 82.8407C172.313 82.9773 171.863 83.2002 171.462 83.5097C171.062 83.81 170.743 84.2105 170.507 84.711C170.279 85.2025 170.165 85.8077 170.165 86.5267V94.2944H166.002V79.032H169.155L169.77 81.5985H169.974C170.275 81.0797 170.648 80.6064 171.094 80.1787C171.549 79.7418 172.063 79.396 172.636 79.1412C173.219 78.8772 173.847 78.7453 174.52 78.7453ZM189.346 89.7621C189.346 90.7996 189.1 91.6779 188.609 92.3969C188.126 93.1067 187.403 93.6483 186.438 94.0214C185.473 94.3854 184.272 94.5675 182.834 94.5675C181.769 94.5675 180.855 94.4992 180.09 94.3627C179.335 94.2262 178.57 93.9986 177.797 93.6801V90.2399C178.625 90.6131 179.512 90.9225 180.459 91.1682C181.414 91.4048 182.252 91.5232 182.971 91.5232C183.781 91.5232 184.359 91.4048 184.704 91.1682C185.059 90.9225 185.237 90.604 185.237 90.2126C185.237 89.9578 185.164 89.7303 185.018 89.53C184.882 89.3207 184.582 89.0886 184.117 88.8338C183.653 88.5699 182.925 88.2286 181.933 87.8099C180.977 87.4095 180.19 87.0045 179.571 86.5949C178.962 86.1854 178.507 85.703 178.206 85.1479C177.915 84.5836 177.769 83.8692 177.769 83.0046C177.769 81.5939 178.315 80.5336 179.408 79.8237C180.509 79.1048 181.979 78.7453 183.817 78.7453C184.764 78.7453 185.665 78.8408 186.52 79.032C187.385 79.2231 188.272 79.528 189.182 79.9466L187.926 82.95C187.171 82.6223 186.456 82.3538 185.783 82.1445C185.118 81.9352 184.44 81.8305 183.749 81.8305C183.139 81.8305 182.679 81.9124 182.37 82.0763C182.061 82.2401 181.906 82.4904 181.906 82.8271C181.906 83.0728 181.983 83.2912 182.138 83.4824C182.302 83.6735 182.611 83.8874 183.066 84.124C183.53 84.3515 184.208 84.6473 185.1 85.0113C185.965 85.3663 186.716 85.7394 187.353 86.1308C187.99 86.513 188.481 86.9908 188.827 87.5642C189.173 88.1285 189.346 88.8611 189.346 89.7621ZM109.552 120.8C109.552 123.239 108.938 125.145 107.709 126.52C106.481 127.885 104.783 128.567 102.617 128.567C101.279 128.567 100.092 128.253 99.0543 127.626C98.0168 126.998 97.2159 126.097 96.6516 124.922C96.0873 123.748 95.8052 122.374 95.8052 120.8C95.8052 118.361 96.415 116.463 97.6345 115.107C98.8541 113.742 100.547 113.059 102.713 113.059C104.806 113.059 106.467 113.755 107.696 115.148C108.933 116.54 109.552 118.424 109.552 120.8ZM98.1533 120.8C98.1533 122.711 98.5355 124.167 99.3 125.168C100.065 126.169 101.188 126.67 102.672 126.67C104.155 126.67 105.279 126.174 106.044 125.182C106.817 124.181 107.204 122.72 107.204 120.8C107.204 118.898 106.817 117.455 106.044 116.472C105.279 115.48 104.146 114.984 102.645 114.984C101.161 114.984 100.042 115.471 99.2864 116.445C98.531 117.419 98.1533 118.87 98.1533 120.8ZM120.283 115.093H116.474V128.294H114.208V115.093H111.532V114.069L114.208 113.25V112.418C114.208 108.741 115.814 106.902 119.027 106.902C119.818 106.902 120.747 107.062 121.811 107.38L121.224 109.196C120.351 108.914 119.604 108.773 118.986 108.773C118.13 108.773 117.498 109.059 117.088 109.633C116.678 110.197 116.474 111.107 116.474 112.363V113.332H120.283V115.093ZM130.617 128.294V108.336H132.938V126.192H141.743V128.294H130.617ZM151.121 128.567C148.91 128.567 147.163 127.894 145.879 126.547C144.605 125.2 143.968 123.33 143.968 120.936C143.968 118.524 144.56 116.609 145.743 115.189C146.935 113.769 148.532 113.059 150.534 113.059C152.409 113.059 153.893 113.678 154.985 114.916C156.077 116.145 156.623 117.769 156.623 119.789V121.223H146.316C146.362 122.979 146.803 124.313 147.64 125.223C148.487 126.133 149.674 126.588 151.203 126.588C152.814 126.588 154.407 126.251 155.981 125.578V127.598C155.181 127.944 154.421 128.19 153.702 128.335C152.992 128.49 152.132 128.567 151.121 128.567ZM150.507 114.957C149.306 114.957 148.346 115.348 147.627 116.131C146.917 116.914 146.498 117.997 146.371 119.38H154.193C154.193 117.951 153.875 116.859 153.237 116.104C152.6 115.339 151.69 114.957 150.507 114.957ZM172.746 113.332V114.766L169.974 115.093C170.229 115.412 170.457 115.831 170.657 116.349C170.857 116.859 170.957 117.437 170.957 118.083C170.957 119.548 170.457 120.718 169.456 121.592C168.454 122.465 167.08 122.902 165.333 122.902C164.887 122.902 164.468 122.866 164.077 122.793C163.112 123.303 162.63 123.944 162.63 124.718C162.63 125.127 162.798 125.432 163.135 125.632C163.472 125.823 164.05 125.919 164.869 125.919H167.517C169.137 125.919 170.379 126.26 171.244 126.943C172.118 127.626 172.554 128.618 172.554 129.919C172.554 131.575 171.89 132.836 170.561 133.7C169.233 134.574 167.294 135.011 164.746 135.011C162.789 135.011 161.278 134.647 160.213 133.919C159.158 133.191 158.63 132.162 158.63 130.834C158.63 129.924 158.921 129.136 159.504 128.472C160.086 127.808 160.905 127.357 161.961 127.12C161.579 126.947 161.255 126.679 160.992 126.315C160.737 125.951 160.609 125.528 160.609 125.045C160.609 124.499 160.755 124.021 161.046 123.612C161.337 123.202 161.797 122.806 162.425 122.424C161.651 122.106 161.019 121.564 160.527 120.8C160.045 120.035 159.804 119.162 159.804 118.179C159.804 116.54 160.295 115.28 161.278 114.397C162.261 113.505 163.654 113.059 165.456 113.059C166.238 113.059 166.944 113.15 167.572 113.332H172.746ZM160.814 130.806C160.814 131.616 161.155 132.231 161.838 132.649C162.521 133.068 163.499 133.277 164.773 133.277C166.675 133.277 168.081 132.991 168.991 132.417C169.911 131.853 170.37 131.084 170.37 130.11C170.37 129.3 170.12 128.736 169.619 128.417C169.119 128.108 168.177 127.953 166.793 127.953H164.077C163.048 127.953 162.248 128.199 161.674 128.69C161.101 129.182 160.814 129.887 160.814 130.806ZM162.043 118.124C162.043 119.171 162.339 119.962 162.93 120.499C163.522 121.036 164.345 121.305 165.401 121.305C167.613 121.305 168.718 120.231 168.718 118.083C168.718 115.835 167.599 114.711 165.36 114.711C164.295 114.711 163.476 114.998 162.903 115.571C162.329 116.145 162.043 116.995 162.043 118.124ZM185.018 128.294L184.568 126.165H184.459C183.712 127.102 182.966 127.739 182.22 128.076C181.483 128.404 180.559 128.567 179.449 128.567C177.965 128.567 176.8 128.185 175.954 127.421C175.116 126.656 174.698 125.569 174.698 124.158C174.698 121.136 177.114 119.553 181.947 119.407L184.486 119.325V118.397C184.486 117.223 184.231 116.358 183.721 115.803C183.221 115.239 182.415 114.957 181.305 114.957C180.058 114.957 178.648 115.339 177.073 116.104L176.377 114.37C177.114 113.969 177.92 113.655 178.793 113.428C179.676 113.2 180.559 113.087 181.442 113.087C183.225 113.087 184.545 113.482 185.401 114.274C186.265 115.066 186.698 116.336 186.698 118.083V128.294H185.018ZM179.899 126.697C181.31 126.697 182.415 126.31 183.216 125.537C184.026 124.763 184.431 123.68 184.431 122.288V120.936L182.165 121.032C180.363 121.095 179.062 121.378 178.261 121.878C177.469 122.37 177.073 123.139 177.073 124.185C177.073 125.004 177.319 125.628 177.81 126.056C178.311 126.483 179.007 126.697 179.899 126.697ZM197.359 128.567C195.193 128.567 193.514 127.903 192.322 126.574C191.139 125.236 190.547 123.348 190.547 120.909C190.547 118.406 191.148 116.472 192.349 115.107C193.56 113.742 195.28 113.059 197.51 113.059C198.229 113.059 198.948 113.137 199.667 113.291C200.386 113.446 200.95 113.628 201.359 113.837L200.663 115.762C200.163 115.562 199.616 115.398 199.025 115.271C198.433 115.134 197.91 115.066 197.455 115.066C194.415 115.066 192.895 117.005 192.895 120.882C192.895 122.72 193.264 124.131 194.001 125.114C194.747 126.097 195.849 126.588 197.305 126.588C198.552 126.588 199.83 126.32 201.141 125.783V127.789C200.14 128.308 198.879 128.567 197.359 128.567ZM202.329 113.332H204.759L208.035 121.865C208.754 123.812 209.2 125.218 209.373 126.083H209.482C209.6 125.619 209.846 124.827 210.219 123.707C210.601 122.579 211.839 119.121 213.932 113.332H216.362L209.933 130.369C209.295 132.053 208.549 133.245 207.694 133.946C206.847 134.656 205.805 135.011 204.567 135.011C203.876 135.011 203.193 134.934 202.52 134.779V132.963C203.02 133.072 203.58 133.127 204.199 133.127C205.755 133.127 206.865 132.253 207.53 130.506L208.363 128.376L202.329 113.332Z" fill="url(#paint0_linear_696_1286)"/>
<g clip-path="url(#clip0_696_1286)">
<path fill-rule="evenodd" clip-rule="evenodd" d="M47.0584 12.3993C32.6729 26.8473 23.0978 47.0861 21.6195 69.9163C18.6059 116.678 50.7315 156.57 93.3762 159.024L92.9782 165.239C49.0371 162.705 15.9449 121.608 19.0494 73.4251C20.6301 48.9552 31.2401 27.3748 47.0698 12.3993H47.0584Z" fill="#ED923A" fill-opacity="0.3"/>
<path fill-rule="evenodd" clip-rule="evenodd" d="M65.978 160.389C57.6652 163.106 52.6843 155.366 45.6451 154.14C38.6059 152.913 36.3997 157.144 31.7031 158.68C42.3245 167.223 53.776 167.716 65.9667 160.389H65.978Z" fill="#ED923A" fill-opacity="0.3"/>
<path fill-rule="evenodd" clip-rule="evenodd" d="M51.0102 149.22C42.413 150.046 38.956 141.308 32.3148 138.522C25.6736 135.735 22.7624 139.416 17.918 139.886C26.7426 150.676 37.8074 153.715 51.0102 149.22Z" fill="#ED923A" fill-opacity="0.3"/>
<path fill-rule="evenodd" clip-rule="evenodd" d="M35.0931 132.055C27.4057 131.401 25.518 123.088 20.0367 119.556C14.5441 116.024 11.4964 118.811 7.15234 118.444C13.4865 129.441 22.8456 133.924 35.1045 132.055H35.0931Z" fill="#ED923A" fill-opacity="0.3"/>
<path fill-rule="evenodd" clip-rule="evenodd" d="M26.3395 115.439C19.323 113.157 19.0842 104.982 14.6378 100.487C10.1914 95.9917 6.84805 97.941 2.89062 96.6567C6.77982 108.307 14.6492 114.522 26.3509 115.428L26.3395 115.439Z" fill="#ED923A" fill-opacity="0.3"/>
<path fill-rule="evenodd" clip-rule="evenodd" d="M20.8146 98.3995C14.2872 94.799 15.3561 86.6806 11.7057 81.3944C8.05536 76.1083 4.46184 77.3925 0.777344 75.3629C2.73331 87.6208 9.46548 95.2577 20.8146 98.3995Z" fill="#ED923A" fill-opacity="0.3"/>
<path fill-rule="evenodd" clip-rule="evenodd" d="M19.1826 79.8238C13.5649 74.744 16.2145 67.0384 13.7241 60.984C11.2336 54.9296 7.48092 55.3309 4.30816 52.4642C3.77368 64.94 8.78869 74.0446 19.1826 79.8238Z" fill="#ED923A" fill-opacity="0.3"/>
<path fill-rule="evenodd" clip-rule="evenodd" d="M21.3212 59.0573C17.6595 52.9799 21.8216 46.9714 21.1051 40.9399C20.4001 34.8969 17.0454 34.1745 14.9757 30.7345C11.5073 41.5361 13.6793 50.9847 21.3212 59.0573Z" fill="#ED923A" fill-opacity="0.3"/>
<path fill-rule="evenodd" clip-rule="evenodd" d="M25.4353 41.4563C23.8774 35.1037 28.9492 31.2279 29.8931 25.8157C30.837 20.4034 28.1759 18.7522 27.3003 15.1631C21.5916 23.3847 21.023 32.1567 25.4467 41.4448L25.4353 41.4563Z" fill="#ED923A" fill-opacity="0.3"/>
<path fill-rule="evenodd" clip-rule="evenodd" d="M34.1535 27.0997C33.6076 22.2722 37.656 20.0018 38.8387 16.149C40.0214 12.2962 38.236 10.7826 37.9289 8.06494C33.0163 13.4543 31.7767 19.8068 34.1421 27.0997H34.1535Z" fill="#ED923A" fill-opacity="0.3"/>
<path fill-rule="evenodd" clip-rule="evenodd" d="M42.7813 15.4151C43.6114 11.2183 47.5575 10.6105 49.5476 7.77824C51.549 4.94596 50.4801 3.12275 50.9463 0.749146C45.4651 3.67316 42.7699 8.59237 42.7813 15.4151Z" fill="#ED923A" fill-opacity="0.3"/>
<path fill-rule="evenodd" clip-rule="evenodd" d="M77.5152 154.483C72.3638 148.372 75.8436 141.136 73.9445 134.623C72.0454 128.099 68.2244 127.823 65.3132 124.383C63.4823 136.779 67.6103 146.812 77.5152 154.495V154.483Z" fill="#ED923A" fill-opacity="0.3"/>
<path fill-rule="evenodd" clip-rule="evenodd" d="M62.5432 147.179C57.5282 141.113 61.0876 133.878 59.3136 127.388C57.5396 120.897 53.7527 120.634 50.9211 117.217C48.9083 129.578 52.8544 139.565 62.5432 147.179Z" fill="#ED923A" fill-opacity="0.3"/>
<path fill-rule="evenodd" clip-rule="evenodd" d="M45.8322 133.362C42.5912 126.768 47.2765 121.115 47.0263 114.9C46.7761 108.674 43.4328 107.562 41.6019 103.846C37.2465 114.453 38.7248 124.303 45.8322 133.373V133.362Z" fill="#ED923A" fill-opacity="0.3"/>
<path fill-rule="evenodd" clip-rule="evenodd" d="M33.0863 116.161C31.3123 109.408 36.6571 105.153 37.5782 99.3512C38.488 93.5491 35.6223 91.8405 34.6102 88.0336C28.6513 96.9317 28.1964 106.334 33.0863 116.161Z" fill="#ED923A" fill-opacity="0.3"/>
<path fill-rule="evenodd" clip-rule="evenodd" d="M25.7171 95.1433C25.0235 88.9283 30.2545 86.0043 31.7784 81.0392C33.3136 76.0741 31.0165 74.1363 30.6298 70.6274C24.2843 77.5533 22.6808 85.752 25.7171 95.1433Z" fill="#ED923A" fill-opacity="0.3"/>
<path fill-rule="evenodd" clip-rule="evenodd" d="M24.4396 73.3564C25.1447 67.7721 30.2621 66.5337 32.6274 62.6006C34.9928 58.6675 33.4234 56.3971 33.8101 53.2438C26.8846 57.6814 23.7914 64.4123 24.4396 73.3564Z" fill="#ED923A" fill-opacity="0.3"/>
<path fill-rule="evenodd" clip-rule="evenodd" d="M27.5664 52.8655C29.3291 48.2559 33.9233 48.4737 36.7549 45.6988C39.5751 42.9124 38.7222 40.5732 39.7116 37.9702C32.9112 40.0457 28.8855 45.0452 27.5664 52.8655Z" fill="#ED923A" fill-opacity="0.3"/>
<path fill-rule="evenodd" clip-rule="evenodd" d="M33.8477 37.1792C36.0197 33.4869 39.9544 34.4616 42.7973 32.5352C45.629 30.6088 45.2196 28.4301 46.4477 26.3431C40.2955 26.9738 36.1107 30.6202 33.8477 37.1792Z" fill="#ED923A" fill-opacity="0.3"/>
<path fill-rule="evenodd" clip-rule="evenodd" d="M41.7617 23.2123C43.82 20.4144 46.9359 21.584 49.3809 20.2883C51.8259 18.9925 51.678 17.1808 52.838 15.5984C47.8002 15.5181 44.1157 18.0867 41.7617 23.2008V23.2123Z" fill="#ED923A" fill-opacity="0.3"/>
<path fill-rule="evenodd" clip-rule="evenodd" d="M51.1602 10.2553C53.1275 6.91853 56.6755 7.80146 59.2342 6.05852C61.7929 4.32705 61.429 2.35478 62.5321 0.462769C56.9712 1.02464 53.1957 4.32705 51.1602 10.2439V10.2553Z" fill="#ED923A" fill-opacity="0.3"/>
</g>
<g clip-path="url(#clip1_696_1286)">
<path fill-rule="evenodd" clip-rule="evenodd" d="M263.356 12.3993C277.741 26.8473 287.316 47.0861 288.795 69.9163C291.808 116.678 259.683 156.57 217.038 159.024L217.436 165.239C261.377 162.705 294.469 121.608 291.365 73.4251C289.784 48.9552 279.174 27.3748 263.344 12.3993H263.356Z" fill="#ED923A" fill-opacity="0.3"/>
<path fill-rule="evenodd" clip-rule="evenodd" d="M244.432 160.389C252.745 163.106 257.726 155.366 264.765 154.14C271.804 152.913 274.01 157.144 278.707 158.68C268.086 167.223 256.634 167.716 244.443 160.389H244.432Z" fill="#ED923A" fill-opacity="0.3"/>
<path fill-rule="evenodd" clip-rule="evenodd" d="M259.419 149.22C268.017 150.046 271.474 141.308 278.115 138.522C284.756 135.735 287.667 139.416 292.512 139.886C283.687 150.676 272.622 153.715 259.419 149.22Z" fill="#ED923A" fill-opacity="0.3"/>
<path fill-rule="evenodd" clip-rule="evenodd" d="M275.325 132.054C283.012 131.401 284.9 123.087 290.381 119.556C295.874 116.024 298.922 118.81 303.266 118.443C296.931 129.44 287.572 133.923 275.313 132.054H275.325Z" fill="#ED923A" fill-opacity="0.3"/>
<path fill-rule="evenodd" clip-rule="evenodd" d="M284.078 115.439C291.095 113.157 291.334 104.982 295.78 100.487C300.227 95.9917 303.57 97.941 307.527 96.6567C303.638 108.307 295.769 114.522 284.067 115.428L284.078 115.439Z" fill="#ED923A" fill-opacity="0.3"/>
<path fill-rule="evenodd" clip-rule="evenodd" d="M289.603 98.3995C296.131 94.799 295.062 86.6806 298.712 81.3944C302.363 76.1083 305.956 77.3925 309.641 75.3629C307.685 87.6208 300.952 95.2577 289.603 98.3995Z" fill="#ED923A" fill-opacity="0.3"/>
<path fill-rule="evenodd" clip-rule="evenodd" d="M291.228 79.8238C296.845 74.744 294.196 67.0384 296.686 60.984C299.177 54.9296 302.929 55.3309 306.102 52.4642C306.636 64.94 301.621 74.0446 291.228 79.8238Z" fill="#ED923A" fill-opacity="0.3"/>
<path fill-rule="evenodd" clip-rule="evenodd" d="M289.108 59.0573C292.77 52.9799 288.608 46.9714 289.325 40.9399C290.03 34.8969 293.384 34.1745 295.454 30.7345C298.922 41.5361 296.75 50.9847 289.108 59.0573Z" fill="#ED923A" fill-opacity="0.3"/>
<path fill-rule="evenodd" clip-rule="evenodd" d="M284.979 41.4559C286.537 35.1033 281.465 31.2276 280.521 25.8153C279.577 20.403 282.238 18.7518 283.114 15.1627C288.822 23.3844 289.391 32.1564 284.967 41.4444L284.979 41.4559Z" fill="#ED923A" fill-opacity="0.3"/>
<path fill-rule="evenodd" clip-rule="evenodd" d="M276.265 27.0998C276.81 22.2723 272.762 20.0019 271.579 16.1491C270.397 12.2963 272.182 10.7827 272.489 8.06506C277.402 13.4544 278.641 19.807 276.276 27.0998H276.265Z" fill="#ED923A" fill-opacity="0.3"/>
<path fill-rule="evenodd" clip-rule="evenodd" d="M267.637 15.4154C266.807 11.2186 262.86 10.6109 260.87 7.7786C258.869 4.94633 259.938 3.12312 259.472 0.749512C264.953 3.67352 267.648 8.59274 267.637 15.4154Z" fill="#ED923A" fill-opacity="0.3"/>
<path fill-rule="evenodd" clip-rule="evenodd" d="M232.903 154.483C238.054 148.372 234.574 141.136 236.474 134.623C238.373 128.099 242.194 127.823 245.105 124.383C246.936 136.779 242.808 146.812 232.903 154.495V154.483Z" fill="#ED923A" fill-opacity="0.3"/>
<path fill-rule="evenodd" clip-rule="evenodd" d="M247.871 147.179C252.886 141.113 249.326 133.878 251.1 127.387C252.874 120.897 256.661 120.634 259.493 117.216C261.506 129.578 257.56 139.565 247.871 147.179Z" fill="#ED923A" fill-opacity="0.3"/>
<path fill-rule="evenodd" clip-rule="evenodd" d="M264.59 133.362C267.831 126.768 263.145 121.115 263.396 114.9C263.646 108.674 266.989 107.562 268.82 103.846C273.175 114.453 271.697 124.303 264.59 133.373V133.362Z" fill="#ED923A" fill-opacity="0.3"/>
<path fill-rule="evenodd" clip-rule="evenodd" d="M277.332 116.161C279.106 109.408 273.761 105.153 272.84 99.3512C271.93 93.5491 274.796 91.8405 275.808 88.0336C281.767 96.9317 282.222 106.334 277.332 116.161Z" fill="#ED923A" fill-opacity="0.3"/>
<path fill-rule="evenodd" clip-rule="evenodd" d="M284.701 95.1433C285.395 88.9283 280.163 86.0043 278.64 81.0392C277.104 76.0741 279.402 74.1363 279.788 70.6274C286.134 77.5533 287.737 85.752 284.701 95.1433Z" fill="#ED923A" fill-opacity="0.3"/>
<path fill-rule="evenodd" clip-rule="evenodd" d="M285.99 73.3564C285.285 67.7721 280.168 66.5337 277.802 62.6006C275.437 58.6675 277.006 56.3971 276.62 53.2438C283.545 57.6814 286.638 64.4123 285.99 73.3564Z" fill="#ED923A" fill-opacity="0.3"/>
<path fill-rule="evenodd" clip-rule="evenodd" d="M282.855 52.8655C281.093 48.2559 276.499 48.4737 273.667 45.6988C270.847 42.9124 271.7 40.5732 270.71 37.9702C277.511 40.0457 281.536 45.0452 282.855 52.8655Z" fill="#ED923A" fill-opacity="0.3"/>
<path fill-rule="evenodd" clip-rule="evenodd" d="M276.574 37.1792C274.402 33.4869 270.468 34.4616 267.625 32.5352C264.793 30.6088 265.202 28.4301 263.974 26.3431C270.126 26.9738 274.311 30.6202 276.574 37.1792Z" fill="#ED923A" fill-opacity="0.3"/>
<path fill-rule="evenodd" clip-rule="evenodd" d="M268.656 23.2125C266.598 20.4146 263.482 21.5842 261.037 20.2885C258.592 18.9928 258.74 17.181 257.58 15.5986C262.618 15.5184 266.302 18.0869 268.656 23.2011V23.2125Z" fill="#ED923A" fill-opacity="0.3"/>
<path fill-rule="evenodd" clip-rule="evenodd" d="M259.254 10.2553C257.287 6.91853 253.739 7.80146 251.18 6.05852C248.621 4.32705 248.985 2.35478 247.882 0.462769C253.443 1.02464 257.218 4.32705 259.254 10.2439V10.2553Z" fill="#ED923A" fill-opacity="0.3"/>
</g>
<defs>
<linearGradient id="paint0_linear_696_1286" x1="93.8125" y1="83.2944" x2="216.812" y2="83.2944" gradientUnits="userSpaceOnUse">
<stop stop-color="#010E39"/>
<stop offset="1" stop-color="#0344A2"/>
</linearGradient>
<clipPath id="clip0_696_1286">
<rect width="92.59" height="165.052" fill="white" transform="translate(0.777344 0.473999)"/>
</clipPath>
<clipPath id="clip1_696_1286">
<rect width="92.59" height="165.052" fill="white" transform="matrix(-1 0 0 1 309.641 0.473999)"/>
</clipPath>
</defs>
</svg>
