<svg width="184" height="92" viewBox="0 0 184 92" fill="none" xmlns="http://www.w3.org/2000/svg">
<path fill-rule="evenodd" clip-rule="evenodd" d="M138.462 57.0038C141.13 57.0038 143.025 55.1638 143.025 52.5326C143.025 49.8646 141.13 48.043 138.462 48.043C135.72 48.043 133.898 49.975 133.898 52.5326C133.898 55.0902 135.72 57.0038 138.462 57.0038ZM138.462 55.1822C136.971 55.1822 135.922 54.0046 135.922 52.5326C135.922 51.0238 136.934 49.8462 138.462 49.8462C139.878 49.8462 141.001 50.9318 141.001 52.5326C141.001 54.0966 139.878 55.1822 138.462 55.1822Z" fill="#16509D"/>
<path fill-rule="evenodd" clip-rule="evenodd" d="M128.341 57.0038C131.009 57.0038 132.904 55.1638 132.904 52.5326C132.904 49.8646 131.009 48.043 128.341 48.043C125.599 48.043 123.777 49.975 123.777 52.5326C123.777 55.0902 125.599 57.0038 128.341 57.0038ZM128.341 55.1822C126.85 55.1822 125.801 54.0046 125.801 52.5326C125.801 51.0238 126.813 49.8462 128.341 49.8462C129.757 49.8462 130.88 50.9318 130.88 52.5326C130.88 54.0966 129.757 55.1822 128.341 55.1822Z" fill="#16509D"/>
<path fill-rule="evenodd" clip-rule="evenodd" d="M109.222 57.0038C110.897 57.0038 112.24 56.323 112.976 55.4766L111.596 54.2622C111.136 54.759 110.345 55.1822 109.388 55.1822C107.861 55.1822 106.812 54.115 106.812 52.5142C106.812 50.9318 107.842 49.8462 109.388 49.8462C110.326 49.8462 111.081 50.251 111.578 50.8398L112.939 49.6622C112.074 48.595 110.639 48.043 109.278 48.043C106.646 48.043 104.77 49.8646 104.77 52.5326C104.77 55.1822 106.646 57.0038 109.204 57.0038H109.222Z" fill="#16509D"/>
<path fill-rule="evenodd" clip-rule="evenodd" d="M99.3589 57.0032C101.383 57.0032 103.72 55.8256 103.72 53.2128C103.72 50.7656 101.972 50.1768 99.8005 49.3304C98.2733 48.7416 97.4085 48.4288 97.4269 47.4904C97.4453 46.552 98.2365 46.0184 99.2117 46.0184C100.077 46.0184 101.089 46.46 102.119 47.3248L103.407 45.632C102.119 44.62 100.721 44.068 99.2117 44.0864C97.0221 44.0864 95.2005 45.632 95.2005 47.6192C95.2005 49.9376 97.1141 50.784 99.0277 51.4648C100.629 52.0352 101.475 52.3848 101.475 53.4888C101.475 54.4088 100.757 55.016 99.3773 55.016C98.2917 55.016 97.0405 54.464 96.1389 53.36L94.7773 55.016C96.1021 56.396 97.7397 57.0032 99.3589 57.0032Z" fill="#16509D"/>
<path fill-rule="evenodd" clip-rule="evenodd" d="M165.656 40.4989C167.864 40.4989 168.894 39.3213 168.894 37.8677C168.894 36.1381 167.735 35.8069 165.876 35.0709C165.03 34.7581 164.496 34.4453 164.496 34.0221C164.496 33.4885 165.048 33.2677 165.435 33.2677C166.116 33.2677 166.907 33.5437 167.606 34.1877L168.6 32.6237C167.643 31.8325 166.631 31.5381 165.527 31.5381C163.742 31.5381 162.454 32.5685 162.454 34.0037C162.454 35.7149 163.687 36.3589 165.104 36.8557C166.244 37.2421 166.815 37.4629 166.815 37.9045C166.815 38.4197 166.373 38.7509 165.6 38.7509C164.533 38.7509 163.779 38.4197 163.08 37.7389L162.086 39.2293C162.988 40.0389 164.184 40.4989 165.6 40.4989H165.656Z" fill="#16509D"/>
<path fill-rule="evenodd" clip-rule="evenodd" d="M158.719 40.3516H160.724V27.6924H158.719V40.3516Z" fill="#16509D"/>
<path fill-rule="evenodd" clip-rule="evenodd" d="M144.641 56.874H146.646V44.2148H144.641V56.874Z" fill="#16509D"/>
<path fill-rule="evenodd" clip-rule="evenodd" d="M154.449 40.3516H156.455V27.6924H154.449V40.3516Z" fill="#16509D"/>
<path fill-rule="evenodd" clip-rule="evenodd" d="M152.83 35.8989C152.83 33.3597 151.174 31.5381 148.598 31.5381C146.169 31.5381 144.348 33.3413 144.348 36.0093C144.348 38.7141 146.261 40.4989 148.782 40.4989C150.493 40.4989 151.726 39.7997 152.462 38.8613L151.064 37.6653C150.622 38.2173 149.904 38.6773 148.892 38.6773C147.604 38.6773 146.684 37.9229 146.408 36.7085H152.756C152.775 36.5429 152.812 36.2301 152.812 35.8989H152.83ZM148.708 33.3229C149.849 33.3229 150.567 34.0405 150.806 35.0893H146.464C146.758 33.9485 147.604 33.3229 148.708 33.3229Z" fill="#16509D"/>
<path fill-rule="evenodd" clip-rule="evenodd" d="M140.814 33.6724V33.654C142.121 33.1388 142.691 31.9612 142.691 30.7836C142.691 28.7228 141.182 27.6924 138.569 27.6924H134.172V40.3516H139.177C141.973 40.3516 143.335 38.898 143.335 36.874C143.335 35.126 142.305 34.022 140.814 33.6724ZM136.325 29.6244H138.165C139.821 29.606 140.501 30.2684 140.501 31.262C140.501 32.458 139.453 32.9364 138.385 32.9364H136.343V29.6244H136.325ZM138.533 38.4196H136.325V34.7764H138.569C140.225 34.7764 141.09 35.5124 141.09 36.6348C141.09 37.8308 140.06 38.4012 138.551 38.4196H138.533Z" fill="#16509D"/>
<path fill-rule="evenodd" clip-rule="evenodd" d="M128.268 35.8989C128.268 33.3597 126.612 31.5381 124.036 31.5381C121.607 31.5381 119.785 33.3413 119.785 36.0093C119.785 38.7141 121.699 40.4989 124.22 40.4989C125.931 40.4989 127.164 39.7997 127.9 38.8613L126.501 37.6653C126.06 38.2173 125.342 38.6773 124.33 38.6773C123.042 38.6773 122.122 37.9229 121.846 36.7085H128.194C128.212 36.5429 128.249 36.2301 128.249 35.8989H128.268ZM124.146 33.3229C125.287 33.3229 126.004 34.0405 126.244 35.0893H121.901C122.177 33.9485 123.042 33.3229 124.146 33.3229Z" fill="#16509D"/>
<path fill-rule="evenodd" clip-rule="evenodd" d="M116.361 31.6484V35.8252C116.361 37.702 115.294 38.6772 114.135 38.6772C112.939 38.6772 112.405 38.1436 112.405 36.414V31.6484H110.418V36.9476C110.418 39.5236 111.761 40.4988 113.675 40.4988C114.687 40.4988 115.68 40.0572 116.361 39.2108V40.3516H118.348V31.6484H116.361Z" fill="#16509D"/>
<path fill-rule="evenodd" clip-rule="evenodd" d="M106.445 40.3516H108.433V27.6924H106.445V40.3516Z" fill="#16509D"/>
<path fill-rule="evenodd" clip-rule="evenodd" d="M102.228 33.6724V33.654C103.535 33.1388 104.105 31.9612 104.105 30.7836C104.105 28.7228 102.596 27.6924 99.9835 27.6924H95.5859V40.3516H100.591C103.388 40.3516 104.749 38.898 104.749 36.874C104.749 35.126 103.719 34.022 102.228 33.6724ZM97.7387 29.6244H99.5787C101.235 29.606 101.916 30.2684 101.916 31.262C101.916 32.458 100.867 32.9364 99.7995 32.9364H97.7571V29.6244H97.7387ZM99.9467 38.4196H97.7387V34.7764H99.9835C101.64 34.7764 102.504 35.5124 102.504 36.6348C102.504 37.8308 101.474 38.4012 99.9467 38.4196Z" fill="#16509D"/>
<path fill-rule="evenodd" clip-rule="evenodd" d="M123.3 19.3754C123.3 16.8362 121.644 15.0146 119.086 15.0146C116.658 15.0146 114.836 16.8178 114.836 19.4858C114.836 22.1906 116.75 23.9754 119.27 23.9754C120.982 23.9754 122.214 23.2762 122.932 22.3378L121.534 21.1418C121.092 21.6938 120.374 22.1538 119.362 22.1538C118.074 22.1538 117.154 21.3994 116.878 20.185H123.226C123.245 20.0194 123.282 19.7066 123.282 19.3754H123.3ZM119.178 16.8178C120.319 16.8178 121.037 17.5354 121.276 18.5842H116.934C117.21 17.4434 118.074 16.8178 119.178 16.8178Z" fill="#16509D"/>
<path fill-rule="evenodd" clip-rule="evenodd" d="M110.234 15.0147C109.056 15.0147 108.007 15.4195 107.271 16.2475H107.253V11.1875H105.266V23.8467H107.253V19.4307C107.253 17.7195 108.136 16.8363 109.59 16.8363C110.786 16.8363 111.485 17.4435 111.485 19.1731V23.8651H113.472V18.6579C113.472 16.0635 112.129 15.0331 110.234 15.0331V15.0147Z" fill="#16509D"/>
<path fill-rule="evenodd" clip-rule="evenodd" d="M119.178 48.042C118 48.042 116.951 48.4468 116.215 49.2748H116.197V44.2148H114.191V56.874H116.197V52.458C116.197 50.7468 117.08 49.8636 118.534 49.8636C119.73 49.8636 120.429 50.4708 120.429 52.2004V56.8924H122.435V51.6852C122.435 49.0908 121.091 48.0604 119.196 48.0604L119.178 48.042Z" fill="#16509D"/>
<path fill-rule="evenodd" clip-rule="evenodd" d="M98.1829 23.8281H100.336V13.1009H103.979V11.1689H94.6133V13.1009H98.1829V23.8281Z" fill="#16509D"/>
<path fill-rule="evenodd" clip-rule="evenodd" d="M165.415 65.3939C164.9 65.3939 164.495 65.0443 164.495 64.4739C164.495 63.9219 164.863 63.5539 165.415 63.5539C165.93 63.5539 166.317 63.9219 166.317 64.4739C166.317 65.0259 165.949 65.4123 165.415 65.4123V65.3939ZM166.28 62.9099V63.2595H166.261C166.004 63.0019 165.636 62.8731 165.268 62.8731C164.385 62.8731 163.741 63.5539 163.741 64.4923C163.741 65.4491 164.403 66.0747 165.305 66.0747C165.709 66.0747 166.041 65.9275 166.28 65.6883V66.0379C166.28 66.4611 165.967 66.8291 165.323 66.8291C164.863 66.8291 164.587 66.7003 164.237 66.5163L164.053 67.1603C164.421 67.3811 164.881 67.4915 165.36 67.4915C166.556 67.4915 166.997 66.7923 166.997 65.8171V62.9467H166.261L166.28 62.9099ZM161.79 62.8731C161.385 62.8731 160.981 63.0387 160.705 63.3699V62.9283H159.969V66.1299H160.705V64.5291C160.705 63.9035 161.036 63.5539 161.533 63.5539C161.974 63.5539 162.232 63.7747 162.232 64.4371V66.1299H162.968V64.2531C162.968 63.2963 162.489 62.8915 161.79 62.8915V62.8731ZM158.147 66.1299H158.883V62.9283H158.147V66.1299ZM158.515 62.4499C158.791 62.4499 159.012 62.2291 159.012 61.9531C159.012 61.6955 158.791 61.4747 158.515 61.4747C158.239 61.4747 158.018 61.6955 158.018 61.9531C158.018 62.2291 158.239 62.4499 158.515 62.4499ZM155.939 62.8731C155.534 62.8731 155.129 63.0387 154.872 63.3699V62.9283H154.136V66.1299H154.872V64.5291C154.872 63.9035 155.203 63.5539 155.7 63.5539C156.141 63.5539 156.399 63.7747 156.399 64.4371V66.1299H157.135V64.2531C157.135 63.2963 156.657 62.8915 155.957 62.8915L155.939 62.8731ZM153.326 62.8731C152.94 62.8731 152.572 63.0571 152.333 63.4067V62.9283H151.597V66.1299H152.333V64.6211C152.333 64.0875 152.645 63.7011 153.197 63.7011C153.253 63.7011 153.326 63.7011 153.418 63.7195V62.8915H153.326V62.8731ZM148.965 65.5043C148.413 65.5043 148.045 65.0995 148.045 64.5475C148.045 63.9219 148.45 63.5355 148.965 63.5355C149.499 63.5355 149.885 63.9771 149.885 64.5475C149.885 65.1179 149.481 65.5043 148.965 65.5043ZM149.849 62.9099V63.2963H149.83C149.591 63.0203 149.241 62.8547 148.837 62.8547C147.953 62.8547 147.291 63.5539 147.291 64.5107C147.291 65.5043 147.953 66.1483 148.837 66.1483C149.278 66.1483 149.628 65.9827 149.849 65.6699H149.867V66.0931H150.566V62.8915H149.83L149.849 62.9099ZM145.138 63.5355C145.561 63.5355 145.819 63.7931 145.911 64.1795H144.31C144.421 63.7563 144.733 63.5355 145.138 63.5355ZM146.647 64.4739C146.647 63.5355 146.04 62.8731 145.083 62.8731C144.181 62.8731 143.519 63.5355 143.519 64.5291C143.519 65.5227 144.218 66.1851 145.157 66.1851C145.782 66.1851 146.242 65.9275 146.518 65.5779L146.003 65.1363C145.837 65.3387 145.58 65.5043 145.212 65.5043C144.733 65.5043 144.402 65.2283 144.292 64.7683H146.629C146.629 64.7131 146.647 64.5843 146.647 64.4739ZM141.9 66.1115H142.636V61.2723H141.9V66.1115ZM137.502 65.4859C136.969 65.4859 136.582 65.0811 136.582 64.5291C136.582 63.9035 136.987 63.5171 137.502 63.5171C138.054 63.5171 138.441 63.9587 138.441 64.5291C138.441 65.0995 138.036 65.4859 137.502 65.4859ZM138.422 61.2723V63.2963H138.404C138.165 63.0203 137.815 62.8547 137.392 62.8547C136.509 62.8547 135.846 63.5539 135.846 64.5107C135.846 65.5043 136.509 66.1483 137.392 66.1483C137.852 66.1483 138.201 65.9827 138.422 65.6699H138.441V66.0931H139.14V61.2539H138.404L138.422 61.2723ZM133.675 63.5171C134.098 63.5171 134.356 63.7747 134.448 64.1611H132.847C132.957 63.7379 133.27 63.5171 133.675 63.5171ZM135.184 64.4555C135.184 63.5171 134.577 62.8547 133.62 62.8547C132.718 62.8547 132.056 63.5171 132.056 64.5107C132.056 65.5043 132.755 66.1667 133.693 66.1667C134.319 66.1667 134.779 65.9091 135.037 65.5595L134.521 65.1179C134.356 65.3203 134.098 65.4859 133.73 65.4859C133.252 65.4859 132.921 65.2099 132.81 64.7499H135.147C135.147 64.6947 135.165 64.5659 135.165 64.4555H135.184ZM130.878 66.1483C131.301 66.1483 131.504 66.0563 131.688 65.9643L131.504 65.3203C131.338 65.4123 131.154 65.4675 131.025 65.4675C130.823 65.4675 130.713 65.3571 130.713 65.0259V63.5355H131.651V62.9099H130.713V61.7691L129.977 61.8427V62.9099H129.59V63.5355H129.977V65.0995C129.977 65.8171 130.326 66.1667 130.878 66.1667V66.1483ZM127.29 65.4859C126.738 65.4859 126.37 65.0811 126.37 64.5291C126.37 63.9035 126.775 63.5171 127.29 63.5171C127.824 63.5171 128.21 63.9587 128.21 64.5291C128.21 65.0995 127.805 65.4859 127.29 65.4859ZM128.173 62.8915V63.2779H128.155C127.916 63.0019 127.566 62.8363 127.161 62.8363C126.278 62.8363 125.616 63.5355 125.616 64.4923C125.616 65.4859 126.278 66.1299 127.161 66.1299C127.603 66.1299 127.953 65.9643 128.173 65.6515H128.192V66.0747H128.891V62.8731H128.155L128.173 62.8915ZM125.119 62.8547C124.733 62.8547 124.365 63.0387 124.125 63.3883V62.9099H123.389V66.1115H124.125V64.6027C124.125 64.0691 124.438 63.6827 125.009 63.6827C125.064 63.6827 125.137 63.6827 125.229 63.7011V62.8731H125.137L125.119 62.8547ZM120.758 65.3755C120.243 65.3755 119.838 65.0259 119.838 64.4555C119.838 63.9035 120.206 63.5355 120.758 63.5355C121.273 63.5355 121.66 63.9035 121.66 64.4555C121.66 65.0075 121.292 65.3939 120.758 65.3939V65.3755ZM121.623 62.8915V63.2411H121.605C121.347 62.9835 120.979 62.8547 120.611 62.8547C119.728 62.8547 119.084 63.5355 119.084 64.4739C119.084 65.4307 119.746 66.0563 120.648 66.0563C121.053 66.0563 121.384 65.9091 121.623 65.6699V66.0195C121.623 66.4427 121.31 66.8107 120.666 66.8107C120.206 66.8107 119.93 66.6819 119.581 66.4979L119.397 67.1419C119.765 67.3627 120.225 67.4731 120.703 67.4731C121.899 67.4731 122.341 66.7739 122.341 65.7987V62.9283H121.605L121.623 62.8915ZM116.931 63.5171C117.354 63.5171 117.612 63.7747 117.704 64.1611H116.103C116.213 63.7379 116.526 63.5171 116.931 63.5171ZM118.44 64.4555C118.44 63.5171 117.833 62.8547 116.876 62.8547C115.974 62.8547 115.312 63.5171 115.312 64.5107C115.312 65.5043 116.011 66.1667 116.949 66.1667C117.575 66.1667 118.035 65.9091 118.293 65.5595L117.777 65.1179C117.612 65.3203 117.354 65.4859 116.986 65.4859C116.508 65.4859 116.177 65.2099 116.066 64.7499H118.403C118.403 64.6947 118.421 64.5659 118.421 64.4555H118.44ZM114.134 66.1483C114.557 66.1483 114.76 66.0563 114.944 65.9643L114.76 65.3203C114.594 65.4123 114.41 65.4675 114.281 65.4675C114.079 65.4675 113.969 65.3571 113.969 65.0259V63.5355H114.907V62.9099H113.969V61.7691L113.233 61.8427V62.9099H112.846V63.5355H113.233V65.0995C113.233 65.8171 113.582 66.1667 114.134 66.1667V66.1483ZM111.025 62.8547C110.62 62.8547 110.215 63.0203 109.957 63.3515V62.9099H109.221V66.1115H109.957V64.5107C109.957 63.8851 110.289 63.5355 110.785 63.5355C111.227 63.5355 111.485 63.7563 111.485 64.4187V66.1115H112.221V64.2347C112.221 63.2779 111.742 62.8731 111.043 62.8731L111.025 62.8547ZM107.381 66.1115H108.117V62.9099H107.381V66.1115ZM107.749 62.4315C108.025 62.4315 108.246 62.2107 108.246 61.9347C108.246 61.6771 108.025 61.4563 107.749 61.4563C107.473 61.4563 107.253 61.6771 107.253 61.9347C107.253 62.2107 107.473 62.4315 107.749 62.4315ZM104.879 62.8547C104.493 62.8547 104.125 63.0387 103.885 63.3883V62.9099H103.149V66.1115H103.885V64.6027C103.885 64.0691 104.198 63.6827 104.75 63.6827C104.805 63.6827 104.897 63.6827 104.971 63.7011V62.8731H104.879V62.8547ZM100.61 65.4859C100.058 65.4859 99.6718 65.0443 99.6718 64.5107C99.6718 63.9587 100.04 63.5171 100.61 63.5171C101.144 63.5171 101.549 63.9219 101.549 64.5107C101.549 65.0811 101.144 65.4859 100.61 65.4859ZM100.61 66.1483C101.585 66.1483 102.285 65.4675 102.285 64.4923C102.285 63.5171 101.585 62.8363 100.61 62.8363C99.5982 62.8363 98.9358 63.5355 98.9358 64.4923C98.9358 65.4307 99.5982 66.1483 100.61 66.1483ZM95.495 66.0931H96.2862V64.2531H98.1814V63.5355H96.2862V62.1371H98.531V61.4379H95.4766V66.0931H95.495Z" fill="#16509D"/>
<path fill-rule="evenodd" clip-rule="evenodd" d="M21.1797 12.0342H42.4869H63.7941V34.2614C63.7941 41.7318 58.9733 57.8134 42.4869 64.8238C26.0005 57.8318 21.1797 41.7318 21.1797 34.2614V12.0342Z" fill="#ADDFED"/>
<path fill-rule="evenodd" clip-rule="evenodd" d="M42.4859 64.8237V42.9277H22.6875C25.1531 50.6373 30.9859 59.9477 42.4859 64.8237Z" fill="#0C4E9C"/>
<path fill-rule="evenodd" clip-rule="evenodd" d="M62.2828 42.9277H42.4844V64.8237C53.9844 59.9477 59.7988 50.6557 62.2828 42.9277Z" fill="#FBED1D"/>
<path fill-rule="evenodd" clip-rule="evenodd" d="M42.4866 42.927C37.0402 38.9158 33.6914 33.4694 33.6914 27.4894C33.6914 21.491 37.0402 16.063 42.4866 12.0518C47.933 16.063 51.2818 21.5094 51.2818 27.4894C51.2818 33.4878 47.933 38.9158 42.4866 42.927Z" fill="#FBED1D"/>
<path fill-rule="evenodd" clip-rule="evenodd" d="M42.5055 12.0518V12.0886L42.4688 42.9086L42.4871 42.927C47.9335 38.9158 51.2823 33.4694 51.2823 27.4894C51.2823 21.5094 47.9335 16.063 42.5055 12.0518Z" fill="#0C4E9C"/>
<path fill-rule="evenodd" clip-rule="evenodd" d="M37.0195 17.4983L37.9027 21.7303C37.9395 21.8591 37.9395 21.9695 37.9763 22.1167L38.0683 22.5215C38.3627 24.1407 38.7491 25.7599 39.0987 27.3791C39.1171 27.4527 39.1171 27.5079 39.1355 27.5631C39.1539 27.5999 39.1539 27.6367 39.1723 27.6735C39.1723 27.6919 39.1907 27.7103 39.1907 27.7287L39.5035 29.2007C39.6139 30.0471 39.9635 31.5559 40.1843 32.4391L40.3131 33.0647C40.4419 33.8743 40.6995 34.6655 40.8283 35.4751L42.3003 42.4671C42.3187 42.5223 42.3187 42.5407 42.3187 42.5775L42.3739 42.7983C42.4107 42.7247 42.3923 42.7615 42.4107 42.6879C42.4475 42.3751 42.2635 41.4551 42.2267 41.0503L42.0059 39.0447C42.0059 39.0079 42.0059 38.9711 42.0059 38.9343V38.9159V38.8607V38.8423L41.7115 36.1007C41.7115 36.0455 41.7115 36.0455 41.7115 35.9903C41.6011 35.0335 41.4539 34.0767 41.3987 33.1015C41.3803 32.9543 41.3619 32.8071 41.3435 32.6599L41.2147 31.3167C41.2147 31.2431 41.1963 31.1879 41.1779 31.0959C41.1595 31.0039 41.1779 30.9671 41.1595 30.8751C41.1043 30.0471 40.9203 29.0535 40.8651 28.2071L40.4419 24.2327C40.4051 23.9383 40.3683 23.6439 40.3499 23.3495L40.2579 22.4663C40.2395 22.3007 40.2211 22.1903 40.2027 22.0247C40.2027 21.9143 40.1843 21.9143 40.1843 21.8039L39.9819 19.7983C39.9635 19.6327 39.9451 19.5223 39.9267 19.3567C39.9083 19.1911 39.9083 19.0807 39.8899 18.9151C39.8715 18.7495 39.8531 18.6391 39.8347 18.4735L39.7795 18.0135C39.7611 17.7007 39.7059 17.4431 39.6875 17.1303C39.6691 16.8359 39.6323 16.5415 39.5955 16.2471C39.5403 15.7871 39.5219 15.0879 39.4299 14.6279C38.5467 15.5295 37.7371 16.4679 37.0379 17.4431L37.0195 17.4983Z" fill="#0C4E9C"/>
<path fill-rule="evenodd" clip-rule="evenodd" d="M34.0586 24.0861L37.7386 32.5133C38.1066 33.3045 38.4746 34.2981 38.8426 35.0709L39.5234 36.6349C39.6338 36.8741 39.7258 37.0765 39.8362 37.3157L42.173 42.6885V42.7069L42.2282 42.7437C42.2098 42.6149 42.1362 42.3573 42.0994 42.2469L41.805 41.3085C41.7682 41.1797 41.713 41.0693 41.6762 40.9589C41.6394 40.8301 41.6026 40.7013 41.5658 40.5725C41.4738 40.3149 41.4186 40.0941 41.3266 39.8365C41.2898 39.7077 41.253 39.6157 41.1978 39.4869L40.1122 36.1381C39.7074 34.8501 39.1738 33.3413 38.8058 32.0717C38.7874 31.9981 38.769 31.9429 38.7506 31.8877C38.1986 30.1213 37.5362 28.2261 37.021 26.4781C36.9842 26.3493 36.9474 26.2573 36.9106 26.1285L35.181 20.7557V20.7373C34.6842 21.8229 34.3162 22.9637 34.0586 24.1045V24.0861Z" fill="#0C4E9C"/>
<path fill-rule="evenodd" clip-rule="evenodd" d="M34.259 31.7221L38.0678 37.1317C39.0798 38.5485 40.1838 40.2045 41.1774 41.5477C41.3062 41.7133 41.527 42.0629 41.7294 42.3573L41.987 42.5597C41.9318 42.4861 41.9134 42.4309 41.8766 42.3573L40.1286 39.2477C39.4478 38.1437 38.5278 36.3773 37.8286 35.1629L36.4302 32.6605C36.1726 32.2557 35.9886 31.8509 35.731 31.4277C35.4734 30.9861 35.2342 30.5997 35.0134 30.1581C34.9582 30.0661 34.903 29.9557 34.8478 29.8637C34.7742 29.7349 34.7374 29.6797 34.6822 29.5693L33.707 27.8213C33.7438 29.1461 33.9278 30.4525 34.2774 31.7221H34.259Z" fill="#0C4E9C"/>
<path fill-rule="evenodd" clip-rule="evenodd" d="M41.1793 41.8967L39.6889 40.1487C39.2105 39.5967 38.2353 38.5295 37.8489 38.0327C37.5913 37.7199 37.4809 37.6463 37.2049 37.2599L36.0273 35.8799C37.2969 38.0695 39.0449 40.0935 41.1793 41.8783V41.8967Z" fill="#0C4E9C"/>
<path fill-rule="evenodd" clip-rule="evenodd" d="M30.1401 75.5509H32.1825V75.0725H30.6737V74.2445H31.8145V73.7661H30.6737V72.9197H32.0905V72.4413H30.1401V75.5325V75.5509ZM27.6561 72.9381H28.1897C28.5761 72.9381 28.7785 73.1405 28.7785 73.4533C28.7785 73.7661 28.5761 73.9685 28.1529 73.9685H27.6561V72.9197V72.9381ZM29.4409 75.5509L28.6497 74.4101V74.3917C29.0729 74.2813 29.3305 73.9685 29.3305 73.4533C29.3305 72.8829 29.0177 72.4597 28.2817 72.4597H27.1409V75.5509H27.6745V74.4469H28.0793L28.8153 75.5509H29.4409ZM24.8041 75.0909C24.1969 75.0909 23.7921 74.6125 23.7921 74.0053C23.7921 73.3981 24.1969 72.9197 24.8041 72.9197C25.3745 72.9197 25.8161 73.3797 25.8161 74.0053C25.8161 74.6309 25.3745 75.0909 24.8041 75.0909ZM24.8041 75.5877C25.6873 75.5877 26.3681 74.9437 26.3681 74.0053C26.3681 73.0669 25.7057 72.4229 24.8041 72.4229C23.8841 72.4229 23.2401 73.0853 23.2401 74.0053C23.2401 74.9069 23.8841 75.5877 24.8041 75.5877ZM20.8481 75.5509H22.7985V75.0725H21.3633V72.4597H20.8297V75.5509H20.8481ZM18.4745 73.9685V72.9197H18.9897C19.3761 72.9197 19.5785 73.1221 19.5785 73.4349C19.5785 73.7477 19.3761 73.9501 18.9529 73.9501H18.4745V73.9685ZM17.9409 75.5509H18.4745V74.4469H19.0081C19.6705 74.4469 20.1305 74.1341 20.1305 73.4533C20.1305 72.8829 19.8177 72.4597 19.0817 72.4597H17.9593V75.5509H17.9409ZM16.6529 75.5509H17.2785L16.2481 74.0053L17.2417 72.4597H16.6345L15.8985 73.6005L15.1625 72.4597H14.5553L15.5489 74.0053L14.5185 75.5509H15.1257L15.8801 74.4101L16.6345 75.5509H16.6529ZM11.9609 75.5509H14.0033V75.0725H12.4945V74.2445H13.6353V73.7661H12.4945V72.9197H13.9113V72.4413H11.9609V75.5325V75.5509Z" fill="#0C4E9C"/>
<path fill-rule="evenodd" clip-rule="evenodd" d="M34.4796 74.3364C34.6636 74.3364 34.8108 74.1892 34.8108 74.0236C34.8108 73.8396 34.6636 73.6924 34.4796 73.6924C34.2956 73.6924 34.1484 73.8396 34.1484 74.0236C34.1484 74.2076 34.2956 74.3364 34.4796 74.3364Z" fill="#0C4E9C"/>
<path fill-rule="evenodd" clip-rule="evenodd" d="M50.6182 72.459V74.6854H50.5998L49.091 72.459H48.5758V75.5502H49.1094V73.3606L50.6182 75.5502H51.1518V72.459H50.6366H50.6182ZM46.0918 72.9374H46.6254C47.0118 72.9374 47.2142 73.1398 47.2142 73.4526C47.2142 73.7654 47.0118 73.9678 46.5886 73.9678H46.0918V72.919V72.9374ZM47.8766 75.5502L47.0854 74.4094V74.391C47.5086 74.2806 47.7662 73.9678 47.7662 73.4526C47.7662 72.8822 47.435 72.459 46.7174 72.459H45.5766V75.5502H46.1102V74.4462H46.515L47.251 75.5502H47.8766ZM43.0374 74.4278L43.4974 73.0846L43.9758 74.4278H43.0374ZM44.3806 75.5502H44.9326L43.7734 72.459H43.2582L42.099 75.5502H42.651L42.8902 74.8878H44.1598L44.399 75.5502H44.3806ZM39.5782 75.5502H41.6206V75.0718H40.1118V74.2438H41.2526V73.7838H40.1118V72.9374H41.5286V72.459H39.5782V75.5502ZM36.9286 75.5502H38.879V75.0718H37.4438V72.459H36.9102V75.5502H36.9286Z" fill="#0C4E9C"/>
<path fill-rule="evenodd" clip-rule="evenodd" d="M53.5812 74.3364C53.7652 74.3364 53.9124 74.1892 53.9124 74.0236C53.9124 73.8396 53.7652 73.6924 53.5812 73.6924C53.3972 73.6924 53.25 73.8396 53.25 74.0236C53.25 74.2076 53.3972 74.3364 53.5812 74.3364Z" fill="#0C4E9C"/>
<path fill-rule="evenodd" clip-rule="evenodd" d="M70.967 75.5509H73.0094V75.0725H71.5006V74.2445H72.6414V73.7661H71.5006V72.9197H72.9174V72.4413H70.967V75.5325V75.5509ZM69.7526 72.4597L68.9246 74.7965L68.115 72.4597H67.5446L68.7038 75.5509H69.1638L70.323 72.4597H69.7526ZM65.5206 75.5509H67.471V75.0725H66.0358V72.4597H65.5022V75.5509H65.5206ZM63.1838 75.0909C62.5766 75.0909 62.1718 74.6125 62.1718 74.0053C62.1718 73.3981 62.5766 72.9197 63.1838 72.9197C63.7542 72.9197 64.1958 73.3797 64.1958 74.0053C64.1958 74.6309 63.7542 75.0909 63.1838 75.0909ZM63.1838 75.5877C64.067 75.5877 64.7478 74.9437 64.7478 74.0053C64.7478 73.0669 64.0854 72.4229 63.1838 72.4229C62.2638 72.4229 61.6198 73.0853 61.6198 74.0053C61.6198 74.9069 62.2638 75.5877 63.1838 75.5877ZM60.7734 72.4597L59.9454 74.7965L59.1358 72.4597H58.5654L59.7246 75.5509H60.1846L61.3438 72.4597H60.7734ZM56.0078 75.5509H58.0502V75.0725H56.5414V74.2445H57.6822V73.7661H56.5414V72.9197H57.9582V72.4413H56.0078V75.5325V75.5509Z" fill="#0C4E9C"/>
<path d="M79.9093 66.6631H79.5781V12.5303H79.9093V66.6631Z" fill="#9B9DA1"/>
<path d="M109.353 82.9287C109.132 82.6343 108.929 82.2847 108.782 81.8983C108.617 81.5119 108.543 81.0887 108.543 80.6655C108.543 80.2975 108.598 79.9295 108.727 79.5983C108.856 79.2119 109.077 78.8071 109.353 78.4207H109.647C109.463 78.7519 109.334 78.9727 109.279 79.1199C109.187 79.3407 109.113 79.5615 109.058 79.8007C108.985 80.0951 108.966 80.3895 108.966 80.6839C108.966 81.4383 109.187 82.1927 109.647 82.9287H109.353ZM109.813 81.9167L111.101 78.4759H111.579L112.941 81.9167H112.444L112.057 80.8679H110.641L110.273 81.9167H109.794H109.813ZM110.769 80.4999H111.91L111.561 79.5431C111.45 79.2487 111.377 79.0095 111.321 78.8255C111.266 79.0463 111.211 79.2671 111.137 79.4879L110.769 80.4999ZM113.327 81.9167V79.7455H112.959V79.4143H113.327V79.1567C113.327 78.9911 113.345 78.8623 113.364 78.7887C113.401 78.6783 113.474 78.5863 113.566 78.5311C113.658 78.4575 113.805 78.4207 113.989 78.4207C114.1 78.4207 114.229 78.4391 114.376 78.4575L114.321 78.8255C114.229 78.8071 114.155 78.8071 114.081 78.8071C113.953 78.8071 113.861 78.8255 113.824 78.8807C113.769 78.9359 113.75 79.0279 113.75 79.1935V79.4143H114.229V79.7455H113.769V81.9167H113.364H113.327ZM114.541 81.9167V79.7455H114.173V79.4143H114.541V79.1567C114.541 78.9911 114.56 78.8623 114.578 78.7887C114.615 78.6783 114.689 78.5863 114.781 78.5311C114.873 78.4575 115.02 78.4207 115.204 78.4207C115.314 78.4207 115.443 78.4391 115.59 78.4575L115.535 78.8255C115.443 78.8071 115.369 78.8071 115.296 78.8071C115.167 78.8071 115.075 78.8255 115.038 78.8807C114.983 78.9359 114.965 79.0279 114.965 79.1935V79.4143H115.443V79.7455H114.983V81.9167H114.578H114.541ZM115.737 78.9543V78.4759H116.142V78.9543H115.737ZM115.737 81.9167V79.4327H116.142V81.9167H115.737ZM116.768 81.9167V78.4759H117.173V81.9167H116.768ZM117.817 78.9543V78.4759H118.221V78.9543H117.817ZM117.817 81.9167V79.4327H118.221V81.9167H117.817ZM120.429 81.6039C120.282 81.7327 120.135 81.8247 119.988 81.8799C119.841 81.9351 119.693 81.9535 119.528 81.9535C119.27 81.9535 119.049 81.8799 118.921 81.7511C118.773 81.6223 118.7 81.4567 118.7 81.2359C118.7 81.1071 118.718 80.9967 118.773 80.9047C118.829 80.8127 118.902 80.7207 118.994 80.6655C119.086 80.6103 119.178 80.5551 119.289 80.5183C119.362 80.4999 119.491 80.4815 119.657 80.4631C119.988 80.4263 120.227 80.3711 120.393 80.3159C120.393 80.2607 120.393 80.2239 120.393 80.2055C120.393 80.0399 120.356 79.9111 120.282 79.8375C120.172 79.7455 120.025 79.6903 119.822 79.6903C119.62 79.6903 119.491 79.7271 119.399 79.8007C119.307 79.8743 119.233 79.9847 119.197 80.1687L118.792 80.1135C118.829 79.9295 118.884 79.8007 118.976 79.6903C119.068 79.5799 119.178 79.5063 119.344 79.4327C119.509 79.3775 119.693 79.3407 119.896 79.3407C120.098 79.3407 120.264 79.3591 120.393 79.4143C120.521 79.4695 120.613 79.5247 120.687 79.5983C120.742 79.6719 120.797 79.7639 120.816 79.8927C120.834 79.9663 120.834 80.0951 120.834 80.2791V80.8311C120.834 81.2175 120.834 81.4751 120.853 81.5671C120.871 81.6775 120.908 81.7695 120.945 81.8615H120.521C120.485 81.7695 120.448 81.6775 120.448 81.5487L120.429 81.6039ZM120.393 80.6655C120.245 80.7207 120.025 80.7759 119.712 80.8311C119.546 80.8495 119.417 80.8863 119.344 80.9231C119.27 80.9599 119.215 80.9967 119.178 81.0519C119.141 81.1071 119.123 81.1807 119.123 81.2543C119.123 81.3647 119.16 81.4567 119.252 81.5303C119.344 81.6039 119.454 81.6407 119.62 81.6407C119.785 81.6407 119.914 81.6039 120.043 81.5303C120.172 81.4567 120.264 81.3647 120.319 81.2359C120.356 81.1439 120.393 80.9967 120.393 80.8127V80.6655ZM122.325 81.5303L122.38 81.8983C122.269 81.9167 122.159 81.9351 122.067 81.9351C121.92 81.9351 121.809 81.9167 121.717 81.8615C121.644 81.8063 121.57 81.7511 121.552 81.6775C121.515 81.6039 121.497 81.4383 121.497 81.1807V79.7455H121.202V79.4143H121.497V78.7887L121.901 78.5311V79.3959H122.306V79.7271H121.901V81.1807C121.901 81.3095 121.901 81.3831 121.92 81.4199C121.938 81.4567 121.957 81.4751 121.993 81.4935C122.03 81.5119 122.067 81.5303 122.141 81.5303C122.177 81.5303 122.251 81.5303 122.325 81.5119V81.5303ZM122.729 78.9543V78.4759H123.134V78.9543H122.729ZM122.729 81.9167V79.4327H123.134V81.9167H122.729ZM123.613 80.6655C123.613 80.2055 123.741 79.8559 123.981 79.6351C124.183 79.4511 124.441 79.3591 124.735 79.3591C125.066 79.3591 125.342 79.4695 125.545 79.6903C125.747 79.9111 125.857 80.2239 125.857 80.6103C125.857 80.9231 125.802 81.1807 125.71 81.3647C125.618 81.5487 125.489 81.6959 125.305 81.7879C125.121 81.8983 124.937 81.9351 124.717 81.9351C124.385 81.9351 124.109 81.8247 123.889 81.6039C123.686 81.3831 123.576 81.0519 123.576 80.6471L123.613 80.6655ZM124.036 80.6655C124.036 80.9783 124.109 81.2175 124.238 81.3831C124.367 81.5487 124.551 81.6223 124.753 81.6223C124.956 81.6223 125.121 81.5487 125.269 81.3831C125.397 81.2175 125.471 80.9783 125.471 80.6471C125.471 80.3343 125.397 80.1135 125.269 79.9479C125.14 79.7823 124.956 79.7087 124.753 79.7087C124.551 79.7087 124.385 79.7823 124.238 79.9479C124.109 80.1135 124.036 80.3343 124.036 80.6655ZM126.373 81.9167V79.4327H126.741V79.7823C126.925 79.5063 127.182 79.3775 127.513 79.3775C127.661 79.3775 127.789 79.3959 127.918 79.4511C128.047 79.5063 128.139 79.5799 128.194 79.6719C128.249 79.7639 128.305 79.8559 128.323 79.9847C128.341 80.0583 128.341 80.2055 128.341 80.3895V81.9167H127.937V80.4079C127.937 80.2423 127.918 80.1135 127.881 80.0215C127.845 79.9295 127.789 79.8743 127.716 79.8191C127.642 79.7639 127.532 79.7455 127.421 79.7455C127.256 79.7455 127.09 79.8007 126.961 79.9111C126.833 80.0215 126.777 80.2423 126.777 80.5551V81.9167H126.373ZM130.31 81.9167V78.4759H130.77L132.518 81.1807V78.4759H132.941V81.9167H132.481L130.733 79.2119V81.9167H130.31ZM133.475 80.6655C133.475 80.2055 133.604 79.8559 133.843 79.6351C134.045 79.4511 134.303 79.3591 134.597 79.3591C134.929 79.3591 135.205 79.4695 135.407 79.6903C135.609 79.9111 135.72 80.2239 135.72 80.6103C135.72 80.9231 135.665 81.1807 135.573 81.3647C135.481 81.5487 135.352 81.6959 135.168 81.7879C134.984 81.8983 134.8 81.9351 134.579 81.9351C134.248 81.9351 133.972 81.8247 133.751 81.6039C133.549 81.3831 133.438 81.0519 133.438 80.6471L133.475 80.6655ZM133.898 80.6655C133.898 80.9783 133.972 81.2175 134.101 81.3831C134.229 81.5487 134.413 81.6223 134.616 81.6223C134.818 81.6223 134.984 81.5487 135.131 81.3831C135.26 81.2175 135.333 80.9783 135.333 80.6471C135.333 80.3343 135.26 80.1135 135.131 79.9479C135.002 79.7823 134.818 79.7087 134.616 79.7087C134.413 79.7087 134.248 79.7823 134.101 79.9479C133.972 80.1135 133.898 80.3343 133.898 80.6655ZM136.345 79.8927V79.4143H136.805V79.8927H136.345ZM136.345 81.8983V81.4199H136.805V81.8983H136.345ZM138.719 80.9967L139.142 80.9599C139.179 81.1807 139.253 81.3279 139.363 81.4383C139.473 81.5487 139.621 81.6039 139.786 81.6039C139.989 81.6039 140.154 81.5303 140.283 81.3831C140.412 81.2359 140.485 81.0335 140.485 80.7759C140.485 80.5367 140.412 80.3527 140.283 80.2055C140.154 80.0583 139.989 80.0031 139.768 80.0031C139.639 80.0031 139.51 80.0399 139.418 80.0951C139.308 80.1503 139.234 80.2423 139.161 80.3343L138.774 80.2791L139.105 78.5127H140.761V78.9175H139.437L139.253 79.8375C139.455 79.6903 139.657 79.6167 139.878 79.6167C140.173 79.6167 140.412 79.7271 140.614 79.9295C140.817 80.1319 140.909 80.4079 140.909 80.7391C140.909 81.0519 140.817 81.3279 140.651 81.5487C140.43 81.8247 140.136 81.9719 139.768 81.9719C139.455 81.9719 139.216 81.8799 139.032 81.7143C138.848 81.5303 138.737 81.3095 138.701 81.0151L138.719 80.9967ZM141.313 80.9783L141.718 80.9231C141.773 81.1623 141.847 81.3279 141.957 81.4383C142.068 81.5487 142.215 81.6039 142.381 81.6039C142.583 81.6039 142.749 81.5303 142.877 81.4015C143.006 81.2727 143.08 81.0887 143.08 80.8863C143.08 80.6839 143.025 80.5367 142.896 80.4079C142.767 80.2791 142.62 80.2239 142.417 80.2239C142.344 80.2239 142.252 80.2423 142.123 80.2791L142.16 79.9111C142.178 79.9111 142.215 79.9111 142.233 79.9111C142.417 79.9111 142.565 79.8559 142.712 79.7639C142.859 79.6719 142.914 79.5247 142.914 79.3223C142.914 79.1751 142.859 79.0463 142.767 78.9359C142.657 78.8255 142.528 78.7887 142.381 78.7887C142.215 78.7887 142.086 78.8439 141.976 78.9359C141.865 79.0463 141.792 79.1935 141.773 79.3959L141.369 79.3223C141.424 79.0463 141.534 78.8255 141.718 78.6599C141.902 78.5127 142.123 78.4207 142.381 78.4207C142.565 78.4207 142.73 78.4575 142.877 78.5495C143.025 78.6231 143.153 78.7335 143.227 78.8807C143.301 79.0279 143.356 79.1751 143.356 79.3223C143.356 79.4695 143.319 79.5983 143.245 79.7271C143.172 79.8559 143.061 79.9479 142.896 80.0215C143.098 80.0767 143.245 80.1687 143.356 80.3159C143.466 80.4631 143.521 80.6471 143.521 80.8679C143.521 81.1623 143.411 81.4199 143.209 81.6407C142.988 81.8431 142.73 81.9535 142.399 81.9535C142.105 81.9535 141.865 81.8615 141.663 81.6775C141.461 81.4935 141.35 81.2727 141.332 80.9783H141.313ZM146.061 81.4935V81.8983H143.853C143.853 81.7879 143.871 81.6959 143.908 81.6039C143.963 81.4567 144.055 81.2911 144.184 81.1439C144.313 80.9967 144.497 80.8127 144.717 80.6287C145.085 80.3159 145.325 80.0767 145.453 79.8927C145.582 79.7087 145.656 79.5431 145.656 79.3775C145.656 79.2119 145.601 79.0647 145.472 78.9543C145.361 78.8439 145.196 78.7887 145.012 78.7887C144.809 78.7887 144.662 78.8439 144.533 78.9727C144.423 79.1015 144.349 79.2671 144.349 79.4695L143.926 79.4327C143.963 79.1015 144.055 78.8623 144.257 78.6967C144.441 78.5311 144.699 78.4391 145.012 78.4391C145.325 78.4391 145.582 78.5311 145.766 78.7151C145.95 78.8991 146.042 79.1199 146.042 79.3959C146.042 79.5247 146.024 79.6719 145.969 79.8007C145.913 79.9295 145.821 80.0767 145.693 80.2239C145.564 80.3711 145.361 80.5735 145.067 80.8311C144.828 81.0519 144.662 81.1807 144.589 81.2727C144.515 81.3463 144.46 81.4199 144.423 81.4935H146.061ZM146.502 80.2055C146.502 79.8007 146.539 79.4695 146.631 79.2303C146.705 78.9727 146.833 78.7887 146.999 78.6599C147.165 78.5311 147.367 78.4575 147.606 78.4575C147.79 78.4575 147.937 78.4943 148.085 78.5679C148.213 78.6415 148.324 78.7519 148.416 78.8807C148.508 79.0279 148.563 79.1935 148.618 79.3959C148.673 79.5983 148.692 79.8743 148.692 80.2055C148.692 80.6103 148.655 80.9415 148.563 81.1807C148.489 81.4383 148.361 81.6223 148.195 81.7511C148.029 81.8799 147.827 81.9535 147.588 81.9535C147.275 81.9535 147.017 81.8431 146.833 81.6039C146.613 81.3095 146.502 80.8495 146.502 80.2055ZM146.925 80.2055C146.925 80.7759 146.981 81.1439 147.109 81.3279C147.238 81.5119 147.404 81.6039 147.588 81.6039C147.772 81.6039 147.937 81.5119 148.066 81.3279C148.195 81.1439 148.25 80.7575 148.25 80.2055C148.25 79.6351 148.195 79.2671 148.066 79.0831C147.937 78.8991 147.772 78.8071 147.588 78.8071C147.404 78.8071 147.257 78.8807 147.128 79.0463C146.981 79.2487 146.925 79.6351 146.925 80.2055ZM149.133 78.9175V78.5127H151.305V78.8439C151.084 79.0831 150.881 79.3959 150.679 79.7823C150.477 80.1687 150.311 80.5735 150.201 80.9783C150.127 81.2727 150.072 81.5855 150.035 81.9167H149.612C149.612 81.6407 149.667 81.3095 149.759 80.9415C149.851 80.5551 149.998 80.1871 150.182 79.8375C150.366 79.4879 150.569 79.1751 150.771 78.9359H149.133V78.9175ZM152.335 80.0399C152.169 79.9847 152.041 79.8927 151.949 79.7639C151.875 79.6535 151.82 79.5063 151.82 79.3407C151.82 79.0831 151.912 78.8807 152.077 78.7151C152.261 78.5495 152.482 78.4575 152.777 78.4575C153.071 78.4575 153.31 78.5495 153.476 78.7151C153.66 78.8807 153.733 79.1015 153.733 79.3591C153.733 79.5247 153.697 79.6535 153.605 79.7823C153.531 79.8927 153.402 79.9847 153.237 80.0583C153.439 80.1319 153.605 80.2423 153.697 80.3895C153.807 80.5367 153.862 80.7207 153.862 80.9415C153.862 81.2359 153.752 81.4751 153.568 81.6775C153.365 81.8799 153.108 81.9719 152.777 81.9719C152.445 81.9719 152.188 81.8799 151.985 81.6775C151.783 81.4751 151.691 81.2175 151.691 80.9231C151.691 80.7023 151.746 80.5183 151.857 80.3527C151.967 80.2055 152.133 80.0951 152.335 80.0399ZM152.261 79.3223C152.261 79.4879 152.317 79.6167 152.409 79.7271C152.519 79.8375 152.648 79.8743 152.813 79.8743C152.979 79.8743 153.108 79.8191 153.2 79.7271C153.292 79.6167 153.347 79.5063 153.347 79.3591C153.347 79.2119 153.292 79.0647 153.2 78.9727C153.089 78.8623 152.961 78.8071 152.813 78.8071C152.648 78.8071 152.519 78.8623 152.427 78.9543C152.317 79.0647 152.28 79.1751 152.28 79.3223H152.261ZM152.133 80.9047C152.133 81.0335 152.151 81.1439 152.206 81.2543C152.261 81.3647 152.335 81.4567 152.445 81.5119C152.556 81.5671 152.666 81.6039 152.795 81.6039C152.997 81.6039 153.163 81.5303 153.273 81.4015C153.402 81.2727 153.457 81.1071 153.457 80.9047C153.457 80.7023 153.384 80.5367 153.255 80.4079C153.126 80.2791 152.961 80.2055 152.758 80.2055C152.556 80.2055 152.409 80.2791 152.28 80.4079C152.151 80.5367 152.096 80.7023 152.096 80.9047H152.133ZM154.69 82.9103H154.396C154.856 82.1559 155.077 81.4015 155.077 80.6655C155.077 80.3711 155.04 80.0767 154.985 79.7823C154.929 79.5431 154.856 79.3223 154.764 79.1015C154.709 78.9543 154.58 78.7335 154.396 78.4023H154.69C154.966 78.7887 155.187 79.1935 155.316 79.5799C155.426 79.9111 155.5 80.2791 155.5 80.6471C155.5 81.0703 155.426 81.4751 155.261 81.8799C155.095 82.2663 154.911 82.6159 154.69 82.9103Z" fill="#16509D"/>
<path d="M95.4766 75.9187L96.7462 72.4779H97.2246L98.5678 75.9187H98.071L97.6846 74.8699H96.3046L95.955 75.9187H95.495H95.4766ZM96.415 74.5019H97.5374L97.1878 73.5451C97.0774 73.2507 97.0038 73.0115 96.9486 72.8275C96.9118 73.0483 96.8382 73.2691 96.7646 73.4899L96.3966 74.5019H96.415ZM98.9358 75.9187V73.7475H98.5862V73.4163H98.9358V73.1587C98.9358 72.9931 98.9542 72.8643 98.9726 72.7907C99.0094 72.6803 99.083 72.5883 99.175 72.5331C99.267 72.4595 99.4142 72.4227 99.5798 72.4227C99.6902 72.4227 99.819 72.4411 99.9662 72.4595L99.911 72.8275C99.819 72.8091 99.7454 72.8091 99.6718 72.8091C99.543 72.8091 99.4694 72.8275 99.4142 72.8827C99.359 72.9379 99.3406 73.0299 99.3406 73.1955V73.4163H99.8006V73.7475H99.3406V75.9187H98.9358ZM100.132 75.9187V73.7475H99.7822V73.4163H100.132V73.1587C100.132 72.9931 100.15 72.8643 100.169 72.7907C100.205 72.6803 100.279 72.5883 100.371 72.5331C100.463 72.4595 100.61 72.4227 100.776 72.4227C100.886 72.4227 101.015 72.4411 101.162 72.4595L101.107 72.8275C101.015 72.8091 100.941 72.8091 100.868 72.8091C100.739 72.8091 100.665 72.8275 100.61 72.8827C100.555 72.9379 100.537 73.0299 100.537 73.1955V73.4163H100.997V73.7475H100.537V75.9187H100.132ZM101.309 72.9563V72.4779H101.714V72.9563H101.309ZM101.309 75.9187V73.4347H101.714V75.9187H101.309ZM102.321 75.9187V72.4779H102.726V75.9187H102.321ZM103.352 72.9563V72.4779H103.757V72.9563H103.352ZM103.352 75.9187V73.4347H103.757V75.9187H103.352ZM105.928 75.6059C105.781 75.7347 105.633 75.8267 105.486 75.8819C105.339 75.9371 105.192 75.9555 105.045 75.9555C104.787 75.9555 104.585 75.8819 104.437 75.7531C104.29 75.6243 104.235 75.4587 104.235 75.2379C104.235 75.1091 104.253 74.9987 104.309 74.9067C104.364 74.8147 104.437 74.7227 104.511 74.6675C104.603 74.6123 104.695 74.5571 104.805 74.5203C104.879 74.5019 105.008 74.4835 105.173 74.4651C105.505 74.4283 105.744 74.3731 105.891 74.3179C105.891 74.2627 105.891 74.2259 105.891 74.2075C105.891 74.0419 105.854 73.9131 105.781 73.8395C105.67 73.7475 105.523 73.6923 105.321 73.6923C105.137 73.6923 104.989 73.7291 104.897 73.8027C104.805 73.8763 104.732 73.9867 104.695 74.1707L104.309 74.1155C104.345 73.9315 104.401 73.8027 104.493 73.6923C104.585 73.5819 104.695 73.5083 104.842 73.4347C104.989 73.3795 105.173 73.3427 105.376 73.3427C105.578 73.3427 105.744 73.3611 105.873 73.4163C106.001 73.4715 106.093 73.5267 106.149 73.6003C106.204 73.6739 106.259 73.7659 106.277 73.8947C106.296 73.9683 106.296 74.0971 106.296 74.2811V74.8331C106.296 75.2195 106.296 75.4771 106.314 75.5691C106.333 75.6795 106.369 75.7715 106.406 75.8635H105.983C105.946 75.7715 105.909 75.6795 105.909 75.5507L105.928 75.6059ZM105.891 74.6675C105.744 74.7227 105.523 74.7779 105.229 74.8331C105.063 74.8515 104.953 74.8883 104.879 74.9251C104.805 74.9619 104.75 74.9987 104.713 75.0539C104.677 75.1091 104.658 75.1827 104.658 75.2563C104.658 75.3667 104.695 75.4587 104.787 75.5323C104.861 75.6059 104.989 75.6427 105.137 75.6427C105.284 75.6427 105.431 75.6059 105.56 75.5323C105.689 75.4587 105.762 75.3667 105.836 75.2379C105.873 75.1459 105.909 74.9987 105.909 74.8147V74.6675H105.891ZM107.805 75.5323L107.86 75.9003C107.749 75.9187 107.639 75.9371 107.547 75.9371C107.4 75.9371 107.289 75.9187 107.197 75.8635C107.124 75.8083 107.069 75.7531 107.032 75.6795C106.995 75.6059 106.977 75.4403 106.977 75.1827V73.7475H106.682V73.4163H106.977V72.7907L107.381 72.5331V73.3979H107.786V73.7291H107.381V75.1827C107.381 75.3115 107.381 75.3851 107.4 75.4219C107.418 75.4587 107.437 75.4771 107.473 75.4955C107.51 75.5139 107.547 75.5323 107.602 75.5323C107.639 75.5323 107.713 75.5323 107.786 75.5139L107.805 75.5323ZM109.829 75.1091L110.252 75.1643C110.178 75.4219 110.068 75.6243 109.884 75.7531C109.7 75.9003 109.479 75.9555 109.203 75.9555C108.853 75.9555 108.577 75.8451 108.375 75.6243C108.173 75.4035 108.062 75.0907 108.062 74.6859C108.062 74.2627 108.173 73.9499 108.375 73.7107C108.577 73.4715 108.853 73.3611 109.185 73.3611C109.497 73.3611 109.755 73.4715 109.957 73.6923C110.16 73.9131 110.252 74.2443 110.252 74.6491C110.252 74.6675 110.252 74.7043 110.252 74.7595H108.467C108.485 75.0355 108.559 75.2379 108.688 75.3851C108.817 75.5323 108.982 75.6059 109.185 75.6059C109.332 75.6059 109.461 75.5691 109.571 75.4771C109.681 75.4035 109.755 75.2563 109.829 75.0907V75.1091ZM108.504 74.4283H109.829C109.81 74.2259 109.755 74.0603 109.681 73.9499C109.553 73.7843 109.387 73.7107 109.185 73.7107C109.001 73.7107 108.835 73.7843 108.725 73.9131C108.596 74.0419 108.522 74.2075 108.522 74.4283H108.504ZM112.294 75.9187V75.6059C112.147 75.8451 111.926 75.9739 111.632 75.9739C111.448 75.9739 111.264 75.9187 111.117 75.8083C110.951 75.6979 110.841 75.5507 110.749 75.3483C110.657 75.1459 110.62 74.9251 110.62 74.6675C110.62 74.4283 110.657 74.1891 110.73 73.9867C110.804 73.7843 110.933 73.6371 111.08 73.5267C111.245 73.4163 111.411 73.3611 111.613 73.3611C111.761 73.3611 111.889 73.3979 112 73.4531C112.11 73.5083 112.202 73.6003 112.276 73.6923V72.4595H112.681V75.9003H112.313L112.294 75.9187ZM111.025 74.6675C111.025 74.9803 111.08 75.2195 111.227 75.3851C111.356 75.5507 111.503 75.6243 111.687 75.6243C111.871 75.6243 112.018 75.5507 112.147 75.4035C112.276 75.2563 112.331 75.0171 112.331 74.7227C112.331 74.3915 112.276 74.1339 112.147 73.9683C112.018 73.8027 111.871 73.7291 111.687 73.7291C111.503 73.7291 111.356 73.8027 111.227 73.9499C111.098 74.0971 111.043 74.3363 111.043 74.6675H111.025ZM115.477 75.5323L115.533 75.9003C115.422 75.9187 115.312 75.9371 115.22 75.9371C115.073 75.9371 114.962 75.9187 114.87 75.8635C114.797 75.8083 114.741 75.7531 114.705 75.6795C114.668 75.6059 114.649 75.4403 114.649 75.1827V73.7475H114.355V73.4163H114.649V72.7907L115.054 72.5331V73.3979H115.459V73.7291H115.054V75.1827C115.054 75.3115 115.054 75.3851 115.073 75.4219C115.091 75.4587 115.109 75.4771 115.146 75.4955C115.183 75.5139 115.22 75.5323 115.275 75.5323C115.312 75.5323 115.385 75.5323 115.459 75.5139L115.477 75.5323ZM115.717 74.6675C115.717 74.2075 115.845 73.8579 116.085 73.6371C116.287 73.4531 116.545 73.3611 116.839 73.3611C117.17 73.3611 117.428 73.4715 117.649 73.6923C117.851 73.9131 117.961 74.2259 117.961 74.6123C117.961 74.9251 117.906 75.1827 117.814 75.3667C117.722 75.5507 117.593 75.6979 117.409 75.7899C117.225 75.9003 117.041 75.9371 116.839 75.9371C116.508 75.9371 116.232 75.8267 116.029 75.6059C115.827 75.3851 115.717 75.0539 115.717 74.6491V74.6675ZM116.121 74.6675C116.121 74.9803 116.195 75.2195 116.324 75.3851C116.453 75.5507 116.618 75.6243 116.821 75.6243C117.023 75.6243 117.189 75.5507 117.317 75.3851C117.446 75.2195 117.52 74.9803 117.52 74.6491C117.52 74.3363 117.446 74.1155 117.317 73.9499C117.189 73.7843 117.023 73.7107 116.821 73.7107C116.618 73.7107 116.453 73.7843 116.324 73.9499C116.195 74.1155 116.121 74.3363 116.121 74.6675ZM122.083 74.7043L122.525 74.8147C122.433 75.1827 122.267 75.4771 122.028 75.6611C121.789 75.8635 121.494 75.9555 121.163 75.9555C120.813 75.9555 120.519 75.8819 120.298 75.7347C120.077 75.5875 119.912 75.3667 119.783 75.0723C119.673 74.7779 119.617 74.4835 119.617 74.1523C119.617 73.8027 119.691 73.4899 119.82 73.2139C119.949 72.9563 120.133 72.7355 120.372 72.6067C120.611 72.4595 120.887 72.4043 121.163 72.4043C121.494 72.4043 121.77 72.4963 121.991 72.6619C122.212 72.8459 122.377 73.0851 122.451 73.3979L122.028 73.5083C121.954 73.2507 121.844 73.0851 121.697 72.9563C121.549 72.8459 121.365 72.7907 121.145 72.7907C120.887 72.7907 120.685 72.8459 120.519 72.9747C120.353 73.1035 120.225 73.2691 120.169 73.4899C120.096 73.7107 120.059 73.9315 120.059 74.1523C120.059 74.4467 120.096 74.7043 120.188 74.9251C120.261 75.1459 120.39 75.3115 120.574 75.4219C120.74 75.5323 120.924 75.5875 121.126 75.5875C121.365 75.5875 121.568 75.5139 121.752 75.3667C121.917 75.2195 122.028 74.9987 122.101 74.7043H122.083ZM123.04 75.9187V72.4779H124.273C124.53 72.4779 124.733 72.5147 124.88 72.5883C125.027 72.6619 125.156 72.7723 125.229 72.9011C125.321 73.0483 125.358 73.1955 125.358 73.3611C125.358 73.5083 125.321 73.6371 125.248 73.7843C125.174 73.9131 125.064 74.0235 124.898 74.0971C125.101 74.1523 125.248 74.2627 125.358 74.4099C125.469 74.5571 125.524 74.7227 125.524 74.9251C125.524 75.0907 125.487 75.2379 125.432 75.3667C125.358 75.5139 125.285 75.6059 125.193 75.6795C125.101 75.7531 124.972 75.8083 124.825 75.8451C124.677 75.8819 124.512 75.9003 124.291 75.9003H123.04V75.9187ZM123.481 73.9315H124.199C124.383 73.9315 124.53 73.9131 124.622 73.8947C124.733 73.8579 124.825 73.8027 124.88 73.7291C124.935 73.6555 124.972 73.5451 124.972 73.4347C124.972 73.3243 124.953 73.2139 124.898 73.1403C124.843 73.0483 124.769 72.9931 124.677 72.9563C124.585 72.9195 124.42 72.9011 124.181 72.9011H123.518V73.9499L123.481 73.9315ZM123.481 75.5139H124.309C124.457 75.5139 124.549 75.5139 124.604 75.4955C124.696 75.4771 124.788 75.4403 124.861 75.4035C124.935 75.3667 124.99 75.2931 125.027 75.2195C125.064 75.1275 125.101 75.0355 125.101 74.9251C125.101 74.7963 125.064 74.6859 125.009 74.5939C124.953 74.5019 124.861 74.4283 124.751 74.3915C124.641 74.3547 124.475 74.3363 124.273 74.3363H123.518V75.5139H123.481ZM125.984 74.8147L126.389 74.7779C126.407 74.9435 126.462 75.0907 126.517 75.2011C126.591 75.3115 126.701 75.4035 126.849 75.4771C126.996 75.5507 127.161 75.5875 127.345 75.5875C127.511 75.5875 127.658 75.5691 127.787 75.5139C127.916 75.4587 128.008 75.3851 128.063 75.2931C128.118 75.2011 128.155 75.1091 128.155 74.9987C128.155 74.8883 128.118 74.7963 128.063 74.7227C128.008 74.6491 127.897 74.5755 127.769 74.5203C127.677 74.4835 127.493 74.4283 127.18 74.3547C126.885 74.2811 126.665 74.2075 126.536 74.1339C126.37 74.0419 126.26 73.9315 126.186 73.8211C126.113 73.6923 126.076 73.5451 126.076 73.3979C126.076 73.2323 126.131 73.0667 126.223 72.9011C126.315 72.7539 126.462 72.6435 126.628 72.5515C126.812 72.4779 127.014 72.4411 127.235 72.4411C127.474 72.4411 127.695 72.4779 127.879 72.5699C128.063 72.6435 128.21 72.7723 128.302 72.9379C128.394 73.1035 128.449 73.2691 128.468 73.4715L128.045 73.5083C128.026 73.2875 127.953 73.1219 127.824 73.0115C127.695 72.9011 127.511 72.8459 127.253 72.8459C126.996 72.8459 126.793 72.9011 126.683 72.9931C126.554 73.0851 126.499 73.2139 126.499 73.3611C126.499 73.4899 126.536 73.5819 126.628 73.6739C126.72 73.7475 126.922 73.8395 127.29 73.9131C127.64 74.0051 127.879 74.0787 128.026 74.1339C128.21 74.2259 128.357 74.3363 128.449 74.4835C128.541 74.6307 128.578 74.7779 128.578 74.9803C128.578 75.1643 128.523 75.3299 128.431 75.4955C128.339 75.6611 128.192 75.7899 128.008 75.8635C127.824 75.9555 127.603 75.9923 127.382 75.9923C127.088 75.9923 126.83 75.9555 126.628 75.8635C126.425 75.7715 126.278 75.6427 126.149 75.4587C126.039 75.2747 125.984 75.0723 125.965 74.8331L125.984 74.8147ZM129.204 75.9187V72.4779H131.577V72.8827H129.645V73.9315H131.467V74.3363H129.645V75.5139H131.669V75.9187H129.222H129.204ZM134.264 76.9307C134.043 76.6363 133.859 76.2867 133.693 75.9003C133.546 75.5139 133.454 75.0907 133.454 74.6675C133.454 74.2995 133.509 73.9315 133.62 73.6003C133.749 73.2139 133.969 72.8091 134.245 72.4227H134.54C134.356 72.7539 134.245 72.9747 134.172 73.1219C134.08 73.3427 134.006 73.5635 133.951 73.8027C133.877 74.0971 133.859 74.3915 133.859 74.6859C133.859 75.4403 134.08 76.1947 134.521 76.9307H134.227H134.264ZM136.582 75.9187V75.5507C136.398 75.8267 136.141 75.9739 135.828 75.9739C135.681 75.9739 135.552 75.9371 135.441 75.8819C135.313 75.8267 135.221 75.7531 135.165 75.6611C135.11 75.5691 135.073 75.4771 135.037 75.3483C135.018 75.2563 135.018 75.1275 135.018 74.9619V73.4163H135.423V74.7963C135.423 75.0171 135.423 75.1643 135.441 75.2379C135.46 75.3483 135.515 75.4403 135.607 75.4955C135.681 75.5507 135.791 75.5875 135.92 75.5875C136.049 75.5875 136.159 75.5507 136.251 75.4955C136.361 75.4219 136.435 75.3483 136.472 75.2379C136.509 75.1275 136.545 74.9619 136.545 74.7595V73.4347H136.95V75.9187H136.582ZM137.576 76.8755V73.4347H137.944V73.7659C138.036 73.6371 138.128 73.5451 138.238 73.4899C138.349 73.4347 138.477 73.3979 138.643 73.3979C138.845 73.3979 139.029 73.4531 139.177 73.5635C139.324 73.6739 139.453 73.8211 139.526 74.0235C139.6 74.2259 139.637 74.4467 139.637 74.6859C139.637 74.9435 139.6 75.1643 139.508 75.3667C139.416 75.5691 139.287 75.7347 139.121 75.8267C138.956 75.9371 138.772 75.9923 138.588 75.9923C138.459 75.9923 138.33 75.9555 138.22 75.9003C138.109 75.8451 138.017 75.7715 137.962 75.6795V76.8939H137.557L137.576 76.8755ZM137.944 74.6859C137.944 74.9987 137.999 75.2379 138.128 75.4035C138.257 75.5507 138.404 75.6243 138.569 75.6243C138.753 75.6243 138.901 75.5507 139.029 75.3851C139.158 75.2195 139.213 74.9803 139.213 74.6491C139.213 74.3363 139.158 74.0971 139.029 73.9315C138.901 73.7659 138.753 73.6923 138.588 73.6923C138.422 73.6923 138.257 73.7843 138.128 73.9499C137.999 74.1155 137.925 74.3547 137.925 74.6859H137.944ZM142.286 75.5323L142.341 75.9003C142.231 75.9187 142.121 75.9371 142.029 75.9371C141.881 75.9371 141.771 75.9187 141.679 75.8635C141.605 75.8083 141.55 75.7531 141.513 75.6795C141.477 75.6059 141.458 75.4403 141.458 75.1827V73.7475H141.164V73.4163H141.458V72.7907L141.863 72.5331V73.3979H142.268V73.7291H141.863V75.1827C141.863 75.3115 141.863 75.3851 141.881 75.4219C141.9 75.4587 141.918 75.4771 141.955 75.4955C141.992 75.5139 142.029 75.5323 142.084 75.5323C142.121 75.5323 142.194 75.5323 142.268 75.5139L142.286 75.5323ZM142.525 74.6675C142.525 74.2075 142.654 73.8579 142.893 73.6371C143.096 73.4531 143.353 73.3611 143.648 73.3611C143.979 73.3611 144.237 73.4715 144.457 73.6923C144.66 73.9131 144.77 74.2259 144.77 74.6123C144.77 74.9251 144.733 75.1827 144.641 75.3667C144.549 75.5507 144.421 75.6979 144.237 75.7899C144.053 75.9003 143.869 75.9371 143.666 75.9371C143.335 75.9371 143.059 75.8267 142.857 75.6059C142.654 75.3851 142.544 75.0539 142.544 74.6491L142.525 74.6675ZM142.93 74.6675C142.93 74.9803 143.004 75.2195 143.133 75.3851C143.261 75.5507 143.427 75.6243 143.629 75.6243C143.832 75.6243 143.997 75.5507 144.126 75.3851C144.255 75.2195 144.329 74.9803 144.329 74.6491C144.329 74.3363 144.255 74.1155 144.126 73.9499C143.997 73.7843 143.832 73.7107 143.629 73.7107C143.427 73.7107 143.261 73.7843 143.133 73.9499C143.004 74.1155 142.93 74.3363 142.93 74.6675ZM148.101 74.5571V74.1523H149.499V75.4219C149.278 75.6059 149.057 75.7347 148.837 75.8267C148.616 75.9187 148.377 75.9555 148.137 75.9555C147.806 75.9555 147.512 75.8819 147.254 75.7347C146.997 75.5875 146.794 75.3851 146.665 75.1091C146.537 74.8331 146.463 74.5203 146.463 74.1891C146.463 73.8579 146.537 73.5451 146.665 73.2507C146.794 72.9563 146.997 72.7539 147.236 72.6067C147.493 72.4595 147.769 72.4043 148.101 72.4043C148.34 72.4043 148.561 72.4411 148.745 72.5331C148.929 72.6067 149.094 72.7171 149.205 72.8643C149.315 73.0115 149.389 73.1955 149.462 73.4347L149.076 73.5451C149.021 73.3795 148.965 73.2323 148.892 73.1403C148.818 73.0483 148.708 72.9563 148.579 72.9011C148.45 72.8459 148.285 72.8091 148.119 72.8091C147.917 72.8091 147.751 72.8459 147.604 72.9011C147.457 72.9563 147.346 73.0483 147.254 73.1587C147.162 73.2691 147.089 73.3795 147.052 73.4899C146.96 73.7107 146.923 73.9315 146.923 74.1891C146.923 74.5019 146.978 74.7595 147.07 74.9619C147.162 75.1643 147.309 75.3299 147.512 75.4219C147.696 75.5139 147.917 75.5691 148.119 75.5691C148.303 75.5691 148.487 75.5323 148.671 75.4587C148.855 75.3851 148.984 75.2931 149.076 75.2195V74.5755H148.119L148.101 74.5571ZM150.088 75.9003V73.4163H150.456V73.8027C150.548 73.6187 150.64 73.5083 150.713 73.4531C150.787 73.3979 150.879 73.3611 150.971 73.3611C151.1 73.3611 151.247 73.3979 151.394 73.4899L151.247 73.8763C151.155 73.8211 151.045 73.7843 150.953 73.7843C150.861 73.7843 150.787 73.8211 150.713 73.8763C150.64 73.9315 150.603 74.0051 150.566 74.1155C150.529 74.2627 150.493 74.4283 150.493 74.6123V75.9187H150.088V75.9003ZM153.179 75.5875C153.032 75.7163 152.885 75.8083 152.737 75.8635C152.59 75.9187 152.443 75.9371 152.296 75.9371C152.038 75.9371 151.836 75.8635 151.689 75.7347C151.541 75.6059 151.486 75.4403 151.486 75.2195C151.486 75.0907 151.505 74.9803 151.56 74.8883C151.615 74.7963 151.689 74.7043 151.762 74.6491C151.854 74.5939 151.946 74.5387 152.057 74.5019C152.13 74.4835 152.259 74.4651 152.425 74.4467C152.756 74.4099 152.995 74.3547 153.142 74.2995C153.142 74.2443 153.142 74.2075 153.142 74.1891C153.142 74.0235 153.105 73.8947 153.032 73.8211C152.921 73.7291 152.774 73.6739 152.572 73.6739C152.388 73.6739 152.241 73.7107 152.149 73.7843C152.057 73.8579 151.983 73.9683 151.946 74.1523L151.56 74.0971C151.597 73.9131 151.652 73.7843 151.744 73.6739C151.836 73.5635 151.946 73.4899 152.093 73.4163C152.241 73.3611 152.425 73.3243 152.627 73.3243C152.829 73.3243 152.995 73.3427 153.124 73.3979C153.253 73.4531 153.345 73.5083 153.4 73.5819C153.455 73.6555 153.51 73.7475 153.529 73.8763C153.547 73.9499 153.547 74.0787 153.547 74.2627V74.8147C153.547 75.2011 153.547 75.4587 153.565 75.5507C153.584 75.6611 153.621 75.7531 153.657 75.8451H153.234C153.197 75.7531 153.161 75.6611 153.161 75.5323L153.179 75.5875ZM153.142 74.6491C152.995 74.7043 152.774 74.7595 152.48 74.8147C152.314 74.8331 152.204 74.8699 152.13 74.9067C152.057 74.9435 152.001 74.9803 151.965 75.0355C151.928 75.0907 151.909 75.1643 151.909 75.2379C151.909 75.3483 151.946 75.4403 152.038 75.5139C152.112 75.5875 152.241 75.6243 152.388 75.6243C152.535 75.6243 152.682 75.5875 152.811 75.5139C152.94 75.4403 153.013 75.3483 153.087 75.2195C153.124 75.1275 153.161 74.9803 153.161 74.7963V74.6491H153.142ZM155.718 75.9003V75.5875C155.571 75.8267 155.35 75.9555 155.056 75.9555C154.872 75.9555 154.688 75.9003 154.541 75.7899C154.375 75.6795 154.265 75.5323 154.173 75.3299C154.081 75.1275 154.044 74.9067 154.044 74.6491C154.044 74.4099 154.081 74.1707 154.154 73.9683C154.228 73.7659 154.357 73.6187 154.504 73.5083C154.669 73.3979 154.835 73.3427 155.037 73.3427C155.185 73.3427 155.313 73.3795 155.424 73.4347C155.534 73.4899 155.626 73.5819 155.7 73.6739V72.4411H156.105V75.8819H155.737L155.718 75.9003ZM154.449 74.6491C154.449 74.9619 154.522 75.2011 154.651 75.3667C154.78 75.5323 154.927 75.6059 155.111 75.6059C155.295 75.6059 155.442 75.5323 155.571 75.3851C155.7 75.2379 155.755 74.9987 155.755 74.7043C155.755 74.3731 155.7 74.1155 155.571 73.9499C155.442 73.7843 155.295 73.7107 155.111 73.7107C154.927 73.7107 154.78 73.7843 154.651 73.9315C154.522 74.0787 154.467 74.3179 154.467 74.6491H154.449ZM158.368 75.0907L158.791 75.1459C158.717 75.4035 158.607 75.6059 158.423 75.7347C158.239 75.8819 158.018 75.9371 157.742 75.9371C157.393 75.9371 157.117 75.8267 156.914 75.6059C156.712 75.3851 156.601 75.0723 156.601 74.6675C156.601 74.2443 156.712 73.9315 156.914 73.6923C157.117 73.4531 157.393 73.3427 157.724 73.3427C158.037 73.3427 158.294 73.4531 158.497 73.6739C158.699 73.8947 158.791 74.2259 158.791 74.6307C158.791 74.6491 158.791 74.6859 158.791 74.7411H157.006C157.025 75.0171 157.098 75.2195 157.227 75.3667C157.356 75.5139 157.521 75.5875 157.724 75.5875C157.871 75.5875 158 75.5507 158.11 75.4587C158.221 75.3851 158.294 75.2379 158.368 75.0723V75.0907ZM157.043 74.4099H158.368C158.349 74.2075 158.294 74.0419 158.221 73.9315C158.092 73.7659 157.926 73.6923 157.724 73.6923C157.54 73.6923 157.374 73.7659 157.264 73.8947C157.135 74.0235 157.061 74.1891 157.061 74.4099H157.043ZM161.569 75.9003L160.3 72.4595H160.778L161.625 74.9619C161.698 75.1643 161.753 75.3483 161.79 75.5323C161.845 75.3483 161.901 75.1643 161.974 74.9619L162.857 72.4595H163.299L162.011 75.9003H161.551H161.569ZM163.777 75.9003V72.4595H164.219V75.9003H163.777ZM165.047 75.9003V72.4595H165.489V75.9003H165.047ZM166.317 75.9003V72.4595H166.758V75.9003H166.317ZM167.733 76.9123H167.439C167.881 76.1579 168.101 75.4035 168.101 74.6675C168.101 74.3731 168.065 74.0787 168.009 73.7843C167.954 73.5451 167.881 73.3243 167.789 73.1035C167.733 72.9563 167.605 72.7355 167.421 72.4043H167.715C167.991 72.7907 168.212 73.1955 168.341 73.5819C168.451 73.9131 168.506 74.2811 168.506 74.6491C168.506 75.0723 168.433 75.4771 168.267 75.8819C168.12 76.2683 167.917 76.6179 167.697 76.9123H167.733Z" fill="#16509D"/>
</svg>
