<svg width="86" height="99" viewBox="0 0 86 99" fill="none" xmlns="http://www.w3.org/2000/svg">
<path fill-rule="evenodd" clip-rule="evenodd" d="M75.8424 9.78639C75.6338 5.80363 73.1493 3.35708 69.7734 1.47949C71.1769 4.87432 73.0545 7.79501 75.8424 9.78639Z" fill="#B78D2E"/>
<path fill-rule="evenodd" clip-rule="evenodd" d="M75.2353 8.76245C74.9129 7.49176 72.9025 4.76073 71.9922 4.04004C72.5801 4.98831 74.4387 7.81418 75.2353 8.76245Z" fill="white"/>
<path fill-rule="evenodd" clip-rule="evenodd" d="M78.5746 14.4899C80.7366 12.5364 79.0487 7.30196 76.9056 4.3623C76.2987 8.25024 76.9625 11.4744 78.5746 14.4899Z" fill="#B78D2E"/>
<path fill-rule="evenodd" clip-rule="evenodd" d="M78.5186 13.5228C78.8031 12.2331 78.1962 8.42103 77.7031 7.37793C77.8169 8.47793 78.2342 12.309 78.5186 13.5228Z" fill="white"/>
<path fill-rule="evenodd" clip-rule="evenodd" d="M80.4722 22.1893C83.1084 20.5962 82.6532 15.0962 81.117 11.7393C79.2963 15.2099 79.9032 18.8134 80.4722 22.1893Z" fill="#B78D2E"/>
<path fill-rule="evenodd" clip-rule="evenodd" d="M80.8114 21.1466C81.3234 19.9518 81.4752 16.0828 81.1907 14.9639C81.0769 16.0639 80.7545 19.9139 80.8114 21.1466Z" fill="white"/>
<path fill-rule="evenodd" clip-rule="evenodd" d="M80.7539 30.2308C83.6746 29.3963 84.4711 23.6498 83.7125 20.0273C81.1522 23.0239 80.9625 26.817 80.7539 30.2308Z" fill="#B78D2E"/>
<path fill-rule="evenodd" clip-rule="evenodd" d="M81.1719 29.1502C81.9874 28.0881 83.1253 24.314 83.1253 23.1191C82.727 24.2002 81.4374 27.8985 81.1719 29.1502Z" fill="white"/>
<path fill-rule="evenodd" clip-rule="evenodd" d="M79.3516 38.2536C82.386 38.3864 84.3205 32.8485 84.5671 28.9795C81.1912 31.0088 79.7878 35.845 79.3516 38.2536Z" fill="#B78D2E"/>
<path fill-rule="evenodd" clip-rule="evenodd" d="M80.1094 37.3244C80.9059 36.4899 83.1439 33.2847 83.1818 31.8623C82.5559 32.9054 80.3749 36.0726 80.1094 37.3244Z" fill="white"/>
<path fill-rule="evenodd" clip-rule="evenodd" d="M77.3807 14.983C77.4566 12.1192 73.8342 8.83815 70.8945 8.78125C72.5256 11.7778 74.8204 14.3381 77.3807 14.983Z" fill="#B78D2E"/>
<path fill-rule="evenodd" clip-rule="evenodd" d="M76.923 14.2436C76.392 13.1815 73.8317 10.8487 72.9023 10.3936C73.5851 11.1142 76.0317 13.5608 76.923 14.2436Z" fill="white"/>
<path fill-rule="evenodd" clip-rule="evenodd" d="M79.2552 22.398C80.0138 19.648 77.0362 15.6463 74.1914 14.8877C75.0449 18.1687 76.7707 21.5256 79.2552 22.398Z" fill="#B78D2E"/>
<path fill-rule="evenodd" clip-rule="evenodd" d="M78.8212 21.4308C78.4988 20.2929 76.4126 17.5239 75.5781 16.917C76.1281 17.7515 78.0816 20.5963 78.8212 21.4308Z" fill="white"/>
<path fill-rule="evenodd" clip-rule="evenodd" d="M79.4082 30.0793C80.7548 27.5569 78.6876 23.0052 76.0703 21.6396C76.2031 25.0534 77.1703 28.6948 79.4082 30.0793Z" fill="#B78D2E"/>
<path fill-rule="evenodd" clip-rule="evenodd" d="M79.2 29.0363C79.1241 27.8604 77.6828 24.7122 77 23.9346C77.3603 24.8639 78.65 28.0691 79.2 29.0363Z" fill="white"/>
<path fill-rule="evenodd" clip-rule="evenodd" d="M78.0428 37.6272C79.8066 35.3704 78.5928 30.5341 76.2601 28.7324C75.8049 32.1272 76.1083 35.8824 78.0428 37.6272Z" fill="#B78D2E"/>
<path fill-rule="evenodd" clip-rule="evenodd" d="M78.0252 36.5843C78.1579 35.4084 77.3045 32.0515 76.7734 31.1602C76.9631 32.1464 77.6648 35.5222 78.0252 36.5843Z" fill="white"/>
<path fill-rule="evenodd" clip-rule="evenodd" d="M78.4047 16.6514L78.4995 16.6893C83.734 25.1669 77.5702 49.329 70.7995 53.7859L70.3633 53.3307C76.546 50.5996 83.7529 26.4945 78.4047 16.6514Z" fill="#7D1718"/>
<path fill-rule="evenodd" clip-rule="evenodd" d="M76.1836 47.1108C79.1422 47.7556 81.987 42.597 82.8595 38.8418C79.1991 40.2642 77.0181 44.797 76.1836 47.1108Z" fill="#B78D2E"/>
<path fill-rule="evenodd" clip-rule="evenodd" d="M77.0938 46.3136C78.0041 45.6119 80.7541 42.8239 81.0386 41.4395C80.242 42.3688 77.5489 45.1188 77.0938 46.3136Z" fill="white"/>
<path fill-rule="evenodd" clip-rule="evenodd" d="M75.0091 46.2755C77.1332 44.341 76.7349 39.372 74.7246 37.21C73.7005 40.472 73.378 44.2272 75.0091 46.2755Z" fill="#B78D2E"/>
<path fill-rule="evenodd" clip-rule="evenodd" d="M75.1617 45.2327C75.5031 44.0947 75.1996 40.643 74.8203 39.6758C74.8582 40.681 74.991 44.1327 75.1617 45.2327Z" fill="white"/>
<path fill-rule="evenodd" clip-rule="evenodd" d="M71.2344 53.4065C73.9085 54.829 78.043 50.6376 79.9016 47.2617C75.9947 47.641 72.6568 51.3962 71.2344 53.4065Z" fill="#B78D2E"/>
<path fill-rule="evenodd" clip-rule="evenodd" d="M72.3164 52.8763C73.3974 52.4591 76.7923 50.5056 77.4371 49.2539C76.413 49.9367 73.075 51.8711 72.3164 52.8763Z" fill="white"/>
<path fill-rule="evenodd" clip-rule="evenodd" d="M70.3258 52.2883C72.8861 51.0176 73.8534 46.1055 72.5258 43.4883C70.6482 46.3331 69.3206 49.8607 70.3258 52.2883Z" fill="#B78D2E"/>
<path fill-rule="evenodd" clip-rule="evenodd" d="M70.7617 51.321C71.3876 50.3159 72.0324 46.921 71.9376 45.8779C71.691 46.8452 70.8755 50.2021 70.7617 51.321Z" fill="white"/>
<path fill-rule="evenodd" clip-rule="evenodd" d="M9.89844 9.78639C10.1071 5.80363 12.5915 3.35708 15.9674 1.47949C14.545 4.87432 12.6864 7.79501 9.89844 9.78639Z" fill="#B78D2E"/>
<path fill-rule="evenodd" clip-rule="evenodd" d="M10.4883 8.76245C10.8107 7.49176 12.821 4.76073 13.7314 4.04004C13.1435 4.98831 11.2848 7.81418 10.4883 8.76245Z" fill="white"/>
<path fill-rule="evenodd" clip-rule="evenodd" d="M7.14921 14.4899C4.98714 12.5364 6.67507 7.30196 8.81817 4.3623C9.44404 8.25024 8.76128 11.4744 7.14921 14.4899Z" fill="#B78D2E"/>
<path fill-rule="evenodd" clip-rule="evenodd" d="M7.20567 13.5228C6.92119 12.2331 7.52808 8.42103 8.02119 7.37793C7.90739 8.47793 7.50912 12.309 7.20567 13.5228Z" fill="white"/>
<path fill-rule="evenodd" clip-rule="evenodd" d="M5.27406 22.1893C2.63786 20.5962 3.07406 15.0962 4.62924 11.7393C6.44993 15.2099 5.82406 18.8134 5.27406 22.1893Z" fill="#B78D2E"/>
<path fill-rule="evenodd" clip-rule="evenodd" d="M4.93136 21.1466C4.4193 19.9518 4.26757 16.0828 4.55205 14.9639C4.66585 16.0639 4.98826 19.9139 4.93136 21.1466Z" fill="white"/>
<path fill-rule="evenodd" clip-rule="evenodd" d="M4.9706 30.2308C2.04992 29.3963 1.25336 23.6498 2.01198 20.0273C4.59129 23.0239 4.76198 26.817 4.9706 30.2308Z" fill="#B78D2E"/>
<path fill-rule="evenodd" clip-rule="evenodd" d="M4.57064 29.1502C3.75512 28.0881 2.61719 24.314 2.61719 23.1191C2.9965 24.2002 4.30512 27.8985 4.57064 29.1502Z" fill="white"/>
<path fill-rule="evenodd" clip-rule="evenodd" d="M6.37177 38.2536C3.33728 38.3864 1.4028 32.8485 1.15625 28.9795C4.53211 31.0088 5.95453 35.845 6.37177 38.2536Z" fill="#B78D2E"/>
<path fill-rule="evenodd" clip-rule="evenodd" d="M5.63101 37.3244C4.83446 36.4899 2.59652 33.2847 2.55859 31.8623C3.16549 32.9054 5.36549 36.0726 5.63101 37.3244Z" fill="white"/>
<path fill-rule="evenodd" clip-rule="evenodd" d="M8.36445 14.983C8.28859 12.1192 11.911 8.83815 14.8507 8.78125C13.2196 11.7778 10.9248 14.3381 8.36445 14.983Z" fill="#B78D2E"/>
<path fill-rule="evenodd" clip-rule="evenodd" d="M8.82031 14.2436C9.35135 13.1815 11.9117 10.8487 12.841 10.3936C12.1393 11.1142 9.69273 13.5608 8.82031 14.2436Z" fill="white"/>
<path fill-rule="evenodd" clip-rule="evenodd" d="M6.48712 22.398C5.7285 19.648 8.70609 15.6463 11.5509 14.8877C10.6975 18.1687 8.95264 21.5256 6.48712 22.398Z" fill="#B78D2E"/>
<path fill-rule="evenodd" clip-rule="evenodd" d="M6.90234 21.4308C7.22476 20.2929 9.31096 17.5239 10.1454 16.917C9.59545 17.7515 7.642 20.5963 6.90234 21.4308Z" fill="white"/>
<path fill-rule="evenodd" clip-rule="evenodd" d="M6.33377 30.0793C4.98722 27.5569 7.05446 23.0052 9.6717 21.6396C9.51998 25.0534 8.55273 28.6948 6.33377 30.0793Z" fill="#B78D2E"/>
<path fill-rule="evenodd" clip-rule="evenodd" d="M6.54297 29.0363C6.61883 27.8604 8.06021 24.7122 8.74297 23.9346C8.36366 24.8639 7.074 28.0691 6.54297 29.0363Z" fill="white"/>
<path fill-rule="evenodd" clip-rule="evenodd" d="M7.68002 37.6272C5.91622 35.3704 7.13002 30.5341 9.46277 28.7324C9.93691 32.1272 9.6145 35.8824 7.68002 37.6272Z" fill="#B78D2E"/>
<path fill-rule="evenodd" clip-rule="evenodd" d="M7.70133 36.5843C7.56857 35.4084 8.42202 32.0515 8.95306 31.1602C8.7634 32.1464 8.06168 35.5222 7.70133 36.5843Z" fill="white"/>
<path fill-rule="evenodd" clip-rule="evenodd" d="M7.32157 16.6514L7.22674 16.6893C1.99226 25.1669 8.15605 49.329 14.9267 53.7859L15.3629 53.3307C9.18019 50.5996 1.99226 26.4945 7.32157 16.6514Z" fill="#7D1718"/>
<path fill-rule="evenodd" clip-rule="evenodd" d="M9.53914 47.1108C6.58052 47.7556 3.7357 42.597 2.86328 38.8418C6.52363 40.2642 8.72363 44.797 9.53914 47.1108Z" fill="#B78D2E"/>
<path fill-rule="evenodd" clip-rule="evenodd" d="M8.64795 46.3136C7.73761 45.6119 4.98761 42.8239 4.70312 41.4395C5.49968 42.3688 8.17381 45.1188 8.64795 46.3136Z" fill="white"/>
<path fill-rule="evenodd" clip-rule="evenodd" d="M10.7156 46.2755C8.59143 44.341 8.98971 39.372 11.0001 37.21C12.0242 40.472 12.3466 44.2272 10.7156 46.2755Z" fill="#B78D2E"/>
<path fill-rule="evenodd" clip-rule="evenodd" d="M10.5626 45.2327C10.2212 44.0947 10.5247 40.643 10.904 39.6758C10.885 40.681 10.7523 44.1327 10.5626 45.2327Z" fill="white"/>
<path fill-rule="evenodd" clip-rule="evenodd" d="M14.4915 53.4065C11.8173 54.829 7.68284 50.6376 5.82422 47.2617C9.73112 47.641 13.088 51.3962 14.4915 53.4065Z" fill="#B78D2E"/>
<path fill-rule="evenodd" clip-rule="evenodd" d="M13.4098 52.8763C12.3287 52.4591 8.93389 50.5056 8.28906 49.2539C9.3132 49.9367 12.6511 51.8711 13.4098 52.8763Z" fill="white"/>
<path fill-rule="evenodd" clip-rule="evenodd" d="M15.3997 52.2883C12.8394 51.0176 11.8721 46.1055 13.1997 43.4883C15.0963 46.3331 16.4238 49.8607 15.3997 52.2883Z" fill="#B78D2E"/>
<path fill-rule="evenodd" clip-rule="evenodd" d="M14.9821 51.321C14.3562 50.3159 13.7114 46.921 13.8062 45.8779C14.0338 46.8452 14.8493 50.2021 14.9821 51.321Z" fill="white"/>
<path fill-rule="evenodd" clip-rule="evenodd" d="M27.6886 20.8047C27.7835 23.7443 27.48 27.0633 26.399 30.4392C22.8904 41.4202 24.4266 40.6426 26.399 43.165C28.3714 45.6875 30.761 48.8547 30.761 48.8547L31.0266 48.8737L42.9748 35.7874L54.9231 48.8737L55.1886 48.8547C55.1886 48.8547 57.5973 45.6875 59.5507 43.165C61.5231 40.6426 63.0593 41.4012 59.5507 30.4392C58.4697 27.0443 58.1662 23.7443 58.2611 20.8047L42.9748 35.3512L27.6886 20.8047Z" fill="#B78D2E"/>
<path fill-rule="evenodd" clip-rule="evenodd" d="M31.0469 48.8933L42.9952 49.6519L54.9434 48.8933L42.9952 35.7881L31.0469 48.8933Z" fill="white"/>
<path fill-rule="evenodd" clip-rule="evenodd" d="M42.9939 3.48926C42.9939 3.48926 36.2991 8.68581 27.9922 9.33064C30.9508 12.9341 37.6836 20.8996 42.9939 25.3944C48.2853 20.9186 55.037 12.9531 57.9956 9.33064C49.6887 8.68581 42.9939 3.48926 42.9939 3.48926Z" fill="#7D1718"/>
<path fill-rule="evenodd" clip-rule="evenodd" d="M57.9956 9.33105C58.887 9.40692 59.8163 9.42588 60.7456 9.36899C60.7456 9.36899 58.5077 14.2052 58.2991 20.8052L43.0129 35.3517L27.6887 20.8052C27.4612 14.2052 25.2422 9.36899 25.2422 9.36899C26.1715 9.42588 27.1008 9.40692 27.9922 9.33105C30.9508 12.9345 37.6836 20.9 42.9939 25.3948C48.2853 20.919 55.018 12.9535 57.9956 9.33105Z" fill="#7D1718"/>
<path fill-rule="evenodd" clip-rule="evenodd" d="M55.6834 23.2892L52.7248 23.8392L58.3196 20.1409C58.3386 19.9133 58.3386 19.6858 58.3575 19.4582L51.6058 22.1133L58.3196 15.3427L50.1265 20.634L55.0575 12.8582V12.8202L48.3248 19.4582L51.3972 10.8289L46.2765 18.6427L47.2817 9.63404L44.1144 18.2254L42.9954 9.2168L41.8765 18.2254L38.7092 9.63404L39.7144 18.6427L34.6127 10.8289L37.6851 19.4582L30.9523 12.8202V12.8582L35.8834 20.634L27.6903 15.3427L34.4041 22.1133L27.6523 19.4582C27.6713 19.6858 27.6903 19.9133 27.6903 20.1409L33.2851 23.8392L30.3265 23.2892L30.9523 23.8771L34.3472 27.1013C34.9541 23.6685 38.6144 21.0323 43.0144 21.0323C47.4144 21.0323 51.0558 23.6685 51.6817 27.1013L55.0765 23.8771L55.6834 23.2892Z" fill="#B78D2E"/>
<path d="M42.0291 31.0845C42.2946 31.1603 42.5222 31.1793 42.7118 31.1793C43.2049 31.1793 43.6222 30.9707 43.9446 30.5724C44.267 30.1741 44.4377 29.6241 44.4377 28.9414C44.4377 28.2396 44.267 27.7086 43.9446 27.2914C43.6222 26.8931 43.186 26.6845 42.6739 26.6845C42.4842 26.6845 42.2567 26.7224 42.0101 26.7983V31.0845H42.0291ZM40.7773 31.4638V31.331H40.948C41.1377 31.331 41.2704 31.2552 41.3463 31.1224C41.3842 31.0465 41.4222 30.8569 41.4222 30.5724V27.3103C41.4222 26.9879 41.3842 26.7983 41.3273 26.7224C41.2515 26.6086 41.1187 26.5517 40.948 26.5517H40.7773V26.4189H42.5601C43.2239 26.4189 43.717 26.4948 44.0584 26.6655C44.3998 26.8362 44.6842 27.1207 44.8739 27.5189C45.0825 27.9172 45.1773 28.3724 45.1773 28.9034C45.1773 29.6052 44.9877 30.1931 44.6273 30.6672C44.2101 31.1983 43.5842 31.4448 42.7308 31.4448H40.7773V31.4638Z" fill="white"/>
<path d="M33.8717 35.8453H35.92V34.385C35.92 34.1194 35.901 33.9677 35.882 33.8729C35.8631 33.816 35.8062 33.7591 35.7493 33.7212C35.6544 33.6643 35.5596 33.6263 35.4458 33.6263H35.2751V33.4936H37.1717V33.6263H37.02C36.9062 33.6263 36.8113 33.6453 36.7165 33.7022C36.6407 33.7401 36.6027 33.797 36.5838 33.8729C36.5648 33.9487 36.5458 34.1194 36.5458 34.366V37.6281C36.5458 37.8746 36.5648 38.0453 36.5838 38.1401C36.6027 38.197 36.6596 38.2539 36.7165 38.2919C36.8113 38.3487 36.9062 38.3867 37.02 38.3867H37.1717V38.5194H35.2751V38.3867H35.4269C35.6165 38.3867 35.7303 38.3298 35.8251 38.197C35.882 38.1212 35.901 37.9315 35.901 37.6281V36.0919H33.8527V37.6281C33.8527 37.8746 33.8717 38.0453 33.8907 38.1401C33.9096 38.197 33.9665 38.2539 34.0234 38.2919C34.1182 38.3487 34.2131 38.3867 34.3269 38.3867H34.4786V38.5194H32.582V38.3867H32.7338C32.9234 38.3867 33.0562 38.3298 33.132 38.197C33.1889 38.1212 33.2079 37.9315 33.2079 37.6281V34.366C33.2079 34.1005 33.1889 33.9487 33.17 33.8539C33.151 33.797 33.0941 33.7401 33.0372 33.7022C32.9424 33.6453 32.8475 33.6074 32.7338 33.6074H32.62V33.4746H34.5165V33.6074H34.3648C34.27 33.6074 34.1562 33.6263 34.0613 33.6832C33.9855 33.7212 33.9475 33.7781 33.9286 33.8539C33.9096 33.9298 33.8907 34.1005 33.8907 34.347V35.8453H33.8717Z" fill="white"/>
<path d="M51.605 33.3223V35.105H51.4912C51.4532 34.7636 51.3774 34.4981 51.2825 34.2895C51.1877 34.0809 51.036 33.9292 50.8463 33.8154C50.6567 33.7016 50.467 33.6447 50.2584 33.6447C50.0308 33.6447 49.8412 33.7205 49.6894 33.8912C49.5377 34.043 49.4618 34.2326 49.4618 34.4412C49.4618 34.593 49.4998 34.7447 49.6136 34.8774C49.7463 35.0671 50.0687 35.3136 50.5998 35.6361C51.017 35.9016 51.3015 36.0912 51.4532 36.224C51.605 36.3567 51.7188 36.5274 51.8136 36.7171C51.8894 36.9067 51.9463 37.0964 51.9463 37.305C51.9463 37.7033 51.8136 38.0257 51.5481 38.3102C51.2825 38.5947 50.9412 38.7274 50.5239 38.7274C50.3912 38.7274 50.2774 38.7085 50.1636 38.6895C50.0877 38.6705 49.955 38.6326 49.7463 38.5567C49.5377 38.4809 49.386 38.443 49.3291 38.443C49.2722 38.443 49.2343 38.4619 49.1963 38.4999C49.1584 38.5378 49.1394 38.6136 49.1205 38.7464H49.0067V36.9826H49.1205C49.1774 37.343 49.2532 37.6274 49.3481 37.8171C49.4429 38.0067 49.5946 38.1585 49.8032 38.2723C50.0119 38.3861 50.2205 38.4619 50.467 38.4619C50.7515 38.4619 50.9601 38.3861 51.1308 38.2154C51.2825 38.0447 51.3774 37.855 51.3774 37.6274C51.3774 37.4947 51.3394 37.3809 51.2825 37.2481C51.2256 37.1154 51.1308 37.0016 50.9981 36.8878C50.9032 36.8119 50.6756 36.6412 50.2963 36.3947C49.917 36.1481 49.6325 35.9585 49.4808 35.8067C49.3101 35.655 49.1963 35.5033 49.1015 35.3136C49.0256 35.143 48.9688 34.9343 48.9688 34.7257C48.9688 34.3464 49.1015 34.043 49.3481 33.7774C49.5946 33.5119 49.917 33.3792 50.2963 33.3792C50.5429 33.3792 50.7894 33.455 51.055 33.5878C51.1877 33.6447 51.2636 33.6826 51.3205 33.6826C51.3774 33.6826 51.4343 33.6636 51.4532 33.6257C51.4912 33.5878 51.5101 33.5119 51.5481 33.3792H51.605V33.3223Z" fill="white"/>
<path fill-rule="evenodd" clip-rule="evenodd" d="M19.0788 49.6323C19.3254 49.3289 19.6857 49.1582 20.1409 49.1582C21.3547 49.1772 22.9288 50.7703 23.0426 50.7134L21.6012 54.5065C26.4943 58.3185 37.7409 59.3237 42.9754 59.4944C48.2288 59.3237 59.4564 58.3185 64.3495 54.5065L62.5667 51.0168C63.7805 50.7892 64.2736 49.1961 65.8098 49.1582C66.265 49.1582 66.6254 49.3289 66.8719 49.6323L66.8909 49.5375L72.0874 56.3841L71.8219 56.8582C70.5891 58.9823 67.5357 61.1634 65.6202 62.2634C58.9254 66.0754 50.4667 67.2323 42.9754 67.3461C35.484 67.2323 27.0254 66.0565 20.3305 62.2634C18.415 61.1634 15.3616 59.0013 14.1288 56.8582L13.8633 56.3841L19.0598 49.5375L19.0788 49.6323Z" fill="white"/>
<path fill-rule="evenodd" clip-rule="evenodd" d="M16.6696 47.6983C15.4558 47.7742 14.0334 47.5845 13.2179 46.4845C12.8765 46.0293 12.63 45.3276 12.6679 44.7017V44.5879L12.7058 44.4742C13.3317 42.7104 15.5127 42.5966 16.8972 42.8621H16.9352L16.9731 42.881C19.1162 43.6397 21.2024 44.9483 22.6058 46.9966C23.08 47.6983 23.6679 48.7793 23.8196 49.6897L23.9524 50.4104L26.7024 52.1931L25.4127 56.9535L21.5248 54.6966L22.53 50.6948L21.7524 50.8845L21.5058 50.5811C21.0696 50.0311 20.3679 49.6328 19.7041 49.7276L15.911 54.4121L13.3317 50.5811L16.6696 47.6983Z" fill="white"/>
<path fill-rule="evenodd" clip-rule="evenodd" d="M15.9677 53.1985L19.3625 48.9882C19.3625 48.9882 20.8228 48.5899 21.9418 50.0313L23.1177 49.7847C23.1177 49.7847 22.359 45.5744 16.7452 43.583C16.7452 43.583 13.8815 43.014 13.2746 44.7399C13.2746 44.7399 13.1039 47.3002 16.9728 46.902L17.7315 47.0537L17.7884 47.5658L14.2418 50.6382L15.9677 53.1985Z" fill="#B78D2E"/>
<path fill-rule="evenodd" clip-rule="evenodd" d="M69.3374 47.6601C70.5512 47.736 71.9547 47.5463 72.7702 46.4463C73.1116 45.9912 73.3581 45.2894 73.3202 44.6636V44.5498L73.2823 44.455C72.6564 42.7101 70.4943 42.5774 69.1288 42.8429H69.0909L69.053 42.8619C66.9288 43.6205 64.8616 44.9101 63.4581 46.9395C62.984 47.6412 62.415 48.7222 62.2443 49.6136L62.1116 50.3532L59.3047 50.0119L59.6461 54.1653L61.1443 56.7446L62.0168 56.0619L64.615 54.9619L64.3116 50.8084L64.5581 50.505C64.9754 49.955 65.6771 49.5757 66.3409 49.6515L70.115 54.317L72.6754 50.505L69.3374 47.6601Z" fill="white"/>
<path fill-rule="evenodd" clip-rule="evenodd" d="M70.0211 53.1985L66.6263 48.9882C66.6263 48.9882 65.1659 48.5899 64.047 50.0313L62.8711 49.7847C62.8711 49.7847 63.6297 45.5744 69.2435 43.583C69.2435 43.583 72.1073 43.014 72.7142 44.7399C72.7142 44.7399 72.8849 47.3002 69.0159 46.902L68.2573 47.0537L68.2004 47.5658L71.747 50.6382L70.0211 53.1985Z" fill="#B78D2E"/>
<path fill-rule="evenodd" clip-rule="evenodd" d="M42.9952 60.2345C48.3624 60.0448 66.0762 58.85 67.309 51.1689L71.3107 56.4414C71.3107 56.4414 65.64 66.2276 42.9952 66.6069C20.3504 66.2465 14.6797 56.4414 14.6797 56.4414L18.6814 51.1689C19.9142 58.85 37.628 60.0448 42.9952 60.2345Z" fill="#7D1718"/>
<path fill-rule="evenodd" clip-rule="evenodd" d="M64.8259 53.9383C64.8259 53.9383 66.1156 52.7624 66.5518 51.1504C66.5518 51.1504 66.8932 49.8797 65.8501 49.8986C64.807 49.9176 63.5742 51.4349 63.5742 51.4349L64.8259 53.9383Z" fill="#7D1718"/>
<path fill-rule="evenodd" clip-rule="evenodd" d="M21.166 53.9383C21.166 53.9383 19.8764 52.7624 19.4401 51.1504C19.4401 51.1504 19.0988 49.8797 20.1419 49.8986C21.185 49.9176 22.4177 51.4349 22.4177 51.4349L21.166 53.9383Z" fill="#7D1718"/>
<path fill-rule="evenodd" clip-rule="evenodd" d="M42.9957 44.0945C44.7785 42.0083 50.0319 41.9703 52.2509 42.141L52.5923 42.16L53.2371 43.9238L54.6405 43.7721L55.1337 45.0428L56.5561 45.1565L56.6888 45.5169L60.2733 55.6634C60.3492 55.8152 60.425 55.9859 60.425 56.1565C60.444 56.5548 60.1785 56.8772 59.8371 56.9152H59.8181L44.3802 56.991C44.0957 57.3703 43.6026 57.4462 43.1854 57.4083L42.9957 57.5221L42.8061 57.4083C42.3699 57.4462 41.8957 57.3703 41.6112 56.991L26.1733 56.9152H26.1543C25.8509 56.8583 25.5854 56.6117 25.5664 56.2514C25.5664 56.2134 25.5664 56.1565 25.5664 56.1186L25.6043 55.4738L29.4543 45.1755L30.8768 45.0617L31.3699 43.791L32.7733 43.9428L33.4181 42.179L33.7595 42.16C35.9595 41.9703 41.213 42.0083 42.9957 44.0945Z" fill="white"/>
<path fill-rule="evenodd" clip-rule="evenodd" d="M42.9942 57.0294C42.6338 57.0863 42.008 57.1053 41.7804 56.6312L26.2097 56.5553C26.2097 56.5553 25.9252 56.5174 25.9062 56.2329C25.9062 56.2139 25.9062 56.176 25.9062 56.157L25.9252 55.5691L29.6235 45.6691L29.6804 45.5174L29.8131 45.4984L31.6528 45.3467L31.8045 45.4036L42.2166 54.526L42.1218 54.7346C42.3683 54.8294 42.6718 54.9622 43.0321 55.1329C43.3735 54.9622 43.6769 54.8294 43.9425 54.7346L43.8476 54.526L54.2597 45.4036L54.4114 45.3467L56.2511 45.4984L56.3838 45.5174L56.4407 45.6691L60.0442 55.8346C60.12 55.9863 60.158 56.1001 60.1769 56.176C60.1959 56.4984 59.8735 56.5553 59.8735 56.5553L44.3028 56.6312C43.9804 57.1243 43.3545 57.0863 42.9942 57.0294Z" fill="#7D1718"/>
<path d="M29.9662 46.0107L26.4766 55.3607L27.2731 55.2659H27.2921L40.4541 55.171C40.3593 54.7728 40.3593 54.2228 41.1369 54.2607L31.5783 45.8779L29.9662 46.0107ZM56.0248 46.0107L59.5145 55.3607L58.7179 55.2659H58.699L45.5369 55.171C45.6317 54.7728 45.6317 54.2228 44.8541 54.2607L54.4128 45.8779L56.0248 46.0107Z" fill="#D0965E"/>
<path d="M54.2587 44.1899L50.5224 44.5692L42.9742 44.9864L35.4259 44.5692L31.6897 44.1899L31.538 44.1709L31.4811 44.3416L27.6121 54.2037L27.4414 54.6399L27.8586 54.545C27.8776 54.545 37.4931 52.5347 41.2862 56.1381L41.3242 56.1761L42.8793 57.0675L42.9742 57.1244L43.069 57.0675L44.6242 56.1761L44.6621 56.1381C48.4552 52.5347 58.0707 54.545 58.0897 54.545L58.5069 54.6399L58.3362 54.2037L54.4673 44.3416L54.4104 44.1709L54.2587 44.1899Z" fill="#7D1718"/>
<path d="M35.4095 45.081L31.825 44.7207L28.1836 53.9948C30.0801 53.6535 38.0646 52.4776 41.5353 55.7586L42.7491 56.4414V45.4983L35.4095 45.081ZM50.5629 45.081L54.1474 44.7207L57.7888 53.9948C55.8922 53.6535 47.9077 52.4776 44.437 55.7586L43.2232 56.4414V45.4983L50.5629 45.081Z" fill="#D0965E"/>
<path d="M42.8435 55.7772C42.0848 55.0375 39.9607 53.2358 36.8503 52.553C34.9728 52.1547 32.7348 52.1547 30.1935 53.0461L29.7383 53.1979L29.9279 52.7047L33.5693 42.653L33.6262 42.5013L33.759 42.4823C33.7779 42.4823 41.4021 41.9134 42.9952 44.6634C44.5883 41.9323 52.2124 42.4823 52.2314 42.4823L52.3641 42.5013L52.421 42.653L56.0624 52.7047L56.2521 53.1979L55.7969 53.0461C53.2745 52.1547 51.0176 52.1547 49.14 52.553C46.0107 53.2168 43.9055 55.0375 43.1469 55.7772L42.9952 55.9099L42.8435 55.7772Z" fill="#7D1718"/>
<path d="M36.9254 52.0603C39.7513 52.6672 41.7806 54.1655 42.7668 55.0569V45.2896C41.9513 42.6345 34.9909 42.9379 33.9099 43.0138L30.4961 52.4396C32.9426 51.6431 35.1047 51.662 36.9254 52.0603ZM49.0444 52.0603C46.2185 52.6672 44.1892 54.1655 43.203 55.0569V45.2896C44.0185 42.6345 50.9789 42.9379 52.0599 43.0138L55.4737 52.4396C53.0461 51.6431 50.884 51.662 49.0444 52.0603Z" fill="white"/>
<path d="M52.742 60.4621L52.4575 60.8983L52.0782 60.5759L52.3627 60.1396L52.742 60.4621ZM52.154 61.6379L51.4713 61.7328L51.6609 62.1121C51.7178 62.2259 51.7368 62.3017 51.7558 62.3586C51.7558 62.3965 51.7368 62.4534 51.6989 62.4914C51.6609 62.5293 51.5661 62.5862 51.4334 62.6431C51.3196 62.7 51.2627 62.7759 51.2627 62.8707C51.2627 62.9465 51.3006 63.0034 51.3575 63.0224C51.4144 63.0603 51.4902 63.0603 51.5851 63.0603C51.6609 63.0414 51.7747 62.9845 51.9265 62.8896C52.0782 62.7948 52.192 62.681 52.2678 62.5862L52.154 61.6379ZM52.3247 63.1362C52.2678 63.1931 52.173 63.269 52.0592 63.3259C51.9454 63.4017 51.8696 63.4396 51.7937 63.4396C51.604 63.4586 51.4144 63.3827 51.2247 63.2121C51.054 63.0224 50.9023 62.7759 50.8075 62.4534C50.8454 62.4345 50.8644 62.4345 50.9023 62.4155C50.9402 62.3965 50.9782 62.3776 51.0351 62.3396C51.1299 62.2828 51.2058 62.2448 51.2627 62.2069C51.3196 62.169 51.3385 62.1121 51.3385 62.0552C51.3385 62.0172 51.3196 61.9603 51.3006 61.9224C51.2816 61.8655 51.2627 61.8276 51.2058 61.7707L50.504 61.8655L50.2385 61.4672L52.704 61.1069L52.9696 61.5052L52.5334 61.5621L52.7799 63.8379L52.3247 63.5914V63.1362ZM50.1437 61.581C50.0868 61.3914 50.0299 61.2207 49.973 61.0879C49.8782 60.9172 49.8023 60.8414 49.7075 60.8414H49.6316L49.5558 60.8793L49.404 60.6138C49.3661 60.5379 49.3282 60.481 49.3282 60.4431C49.3282 60.3862 49.3661 60.3672 49.4609 60.3483C49.5178 60.3483 49.5747 60.3483 49.6506 60.3672C49.7075 60.3862 49.7833 60.4241 49.8592 60.481C49.9351 60.5379 50.0299 60.6896 50.1058 60.9172C50.1627 61.069 50.2196 61.2586 50.2954 61.5052C50.2765 61.5052 50.2385 61.5241 50.2196 61.5431L50.1437 61.581ZM49.9161 61.9414L49.2334 62.0172L49.404 62.4155C49.442 62.5293 49.4799 62.6052 49.4799 62.6621C49.4799 62.7 49.4609 62.7569 49.423 62.7948C49.3851 62.8328 49.2903 62.8896 49.1575 62.9465C49.0247 62.9845 48.9678 63.0603 48.9868 63.1741C48.9868 63.25 49.0247 63.3069 49.0627 63.3448C49.1196 63.3828 49.1954 63.4017 49.2902 63.3828C49.3661 63.3828 49.4799 63.3259 49.6316 63.2121C49.7834 63.1172 49.8971 63.0034 49.973 62.9086L49.9161 61.9414ZM50.0489 63.4396C49.992 63.4965 49.8971 63.5724 49.7834 63.6293C49.6696 63.6862 49.5747 63.7241 49.4989 63.7431C49.3092 63.7621 49.1196 63.6862 48.9489 63.4965C48.7782 63.3069 48.6454 63.0603 48.5506 62.7379C48.5885 62.719 48.6075 62.719 48.6454 62.7C48.6834 62.681 48.7213 62.6621 48.7971 62.6241C48.892 62.5672 48.9678 62.5293 49.0247 62.4914C49.0816 62.4534 49.1006 62.3965 49.1006 62.3396C49.1006 62.3017 49.0816 62.2448 49.0627 62.2069C49.0437 62.15 49.0247 62.1121 48.9868 62.0552L48.2851 62.131L48.0196 61.7328L50.504 61.4483L50.7696 61.8465L50.3334 61.9034L50.542 64.1983L50.0868 63.9328L50.0489 63.4396ZM47.6023 62.4724C47.6402 62.4914 47.6971 62.4914 47.754 62.4914C47.8299 62.4914 47.8868 62.4534 47.9247 62.3965C47.9627 62.3396 47.9816 62.2828 47.9816 62.2069C47.9816 62.15 47.9437 62.0931 47.9058 62.0552C47.8678 62.0172 47.8109 61.9983 47.754 61.9983C47.6971 61.9983 47.6402 62.0362 47.6023 62.0931C47.5644 62.15 47.5454 62.2259 47.5454 62.3017C47.5644 62.3776 47.5834 62.4345 47.6023 62.4724ZM48.873 63.5724C48.7782 63.6862 48.6644 63.781 48.5316 63.8759C48.3989 63.9517 48.2661 64.0086 48.1523 64.0086C47.9627 64.0276 47.773 63.9517 47.6023 63.8C47.4316 63.6483 47.3368 63.4776 47.3368 63.3259C47.3368 63.269 47.3368 63.2121 47.3368 63.1741C47.3368 63.1362 47.3747 63.0793 47.3937 63.0414C47.4506 62.9655 47.5454 62.9086 47.6971 62.8327C47.5644 62.7948 47.4506 62.7379 47.3558 62.6431C47.2609 62.5483 47.204 62.4345 47.204 62.3017C47.204 62.15 47.242 62.0362 47.3178 61.9224C47.4127 61.8086 47.5265 61.7517 47.6782 61.7328C47.792 61.7138 47.9058 61.7517 48.0196 61.8465C48.1334 61.9224 48.1902 62.0362 48.1902 62.1879C48.1902 62.3017 48.1523 62.3965 48.0765 62.4914C48.0006 62.5672 47.8868 62.6241 47.773 62.6431H47.7161C47.7161 62.681 47.754 62.7 47.8109 62.7379C47.8678 62.7569 47.9437 62.7569 48.0006 62.7569H48.0954C48.1334 62.7569 48.1713 62.7569 48.2092 62.7569L48.4368 63.1741H48.2282C48.0196 63.1931 47.8678 63.25 47.754 63.3259C47.6782 63.3827 47.6402 63.4586 47.6402 63.5345C47.6402 63.5914 47.6782 63.6293 47.7161 63.6672C47.773 63.7052 47.8678 63.7052 48.0006 63.6862C48.1144 63.6862 48.2471 63.6103 48.3989 63.4965C48.5506 63.3827 48.7023 63.25 48.8351 63.0793L48.873 63.5724ZM46.2368 61.1638L45.9144 61.5621L45.554 61.2017L45.8765 60.8034L46.2368 61.1638ZM45.4782 62.3207L44.7575 62.3396L44.7765 63.2879L45.4971 63.269L45.4782 62.3207ZM44.7954 63.7241V63.9517C44.7954 64.0276 44.7575 64.0655 44.6816 64.0655C44.6247 64.0655 44.5109 63.9896 44.3592 63.8C44.2075 63.6293 44.1316 63.4965 44.1316 63.4207C44.1316 63.3448 44.1696 63.3069 44.2454 63.3069H44.3782L44.3592 62.3586L43.923 62.3776L43.6954 61.9603L46.104 61.8845L46.3316 62.3017L45.8954 62.3207L45.9523 64.6155L45.5161 64.3121V63.7052L44.7954 63.7241ZM42.1971 62.3207L41.9885 61.8845L43.8092 61.9414L44.0178 62.3776L43.2592 62.3586L43.2402 63.25C43.2402 63.3448 43.2023 63.4207 43.1644 63.5155C43.1075 63.5914 43.0316 63.6862 42.9558 63.7431C43.0316 63.8948 43.2213 64.1414 43.5247 64.5207L43.354 64.6914L42.6334 63.6103C42.4816 63.3827 42.4058 63.231 42.4058 63.1552C42.4058 63.1362 42.4058 63.0983 42.4437 63.0603C42.4816 63.0224 42.5006 63.0034 42.5385 63.0034C42.5765 63.0034 42.6144 63.0224 42.6713 63.0414L42.842 63.1362C42.8799 63.1362 42.8989 63.0983 42.8989 63.0414L42.9178 62.3396L42.1971 62.3207ZM40.6609 62.2638L40.623 63.3638C40.623 63.4776 40.6609 63.5345 40.7368 63.5345C40.7937 63.5345 40.8885 63.4965 40.9834 63.4396C41.0971 63.3638 41.192 63.269 41.3058 63.1552L41.3437 62.3017L40.6609 62.2638ZM42.2351 62.3396L41.742 62.3207L41.6471 64.6155L41.2299 64.2741L41.2678 63.7241C41.2299 63.781 41.154 63.819 41.0592 63.8569C40.9834 63.8948 40.9075 63.9138 40.8506 63.8948C40.7178 63.8948 40.5851 63.819 40.4334 63.6672C40.2627 63.4965 40.1678 63.3259 40.1868 63.1552L40.2247 62.2259L39.9023 62.2069L39.6937 61.7707L42.0075 61.9034L42.2351 62.3396ZM39.1437 61.031L38.7834 61.3914L38.4799 60.9741L38.8402 60.6138L39.1437 61.031ZM38.2144 62.9845L37.6834 62.9276C37.6265 62.9276 37.6075 62.9465 37.5885 63.0224L37.5696 63.2121C37.5696 63.2879 37.5127 63.3259 37.4178 63.3069C37.3609 63.3069 37.2851 63.1931 37.1713 63.0034C37.1144 62.9086 37.0765 62.8138 37.0575 62.7569C37.0385 62.681 37.0196 62.6241 37.0196 62.5672C37.0196 62.5293 37.0385 62.5103 37.0575 62.4724C37.0765 62.4534 37.1144 62.4345 37.1523 62.4345L38.2334 62.5483L38.2713 62.0741L36.8678 61.9224L36.6782 61.4672L38.9351 61.7328L39.1247 62.1879L38.6885 62.131L38.4989 64.4259L38.1006 64.0655L38.2144 62.9845ZM36.1661 64.1603L35.7868 63.781L36.0334 61.8276L35.7109 61.7896L35.5402 61.3345L36.792 61.5241L36.9627 61.9793L36.4316 61.9034L36.1661 64.1603ZM34.8765 63.9517L34.4971 63.5534L34.8006 61.6L34.4782 61.5431L34.3075 61.0879L35.5592 61.3155L35.7299 61.7707L35.1989 61.6759L34.8765 63.9517ZM34.592 61.581L33.1316 61.3155L32.9609 60.8603L34.4213 61.1259L34.592 61.581ZM34.6868 62.6431L33.9092 62.5103C34.1558 62.7759 34.2506 63.0034 34.2316 63.1931C34.2127 63.3259 34.1368 63.4207 33.9851 63.4965C33.8713 63.5534 33.7385 63.5724 33.5868 63.5914L33.8902 64.2362L33.6816 64.331L33.5678 64.0465L33.4161 63.6672C33.3971 63.6483 33.3782 63.6103 33.3402 63.5914L33.2644 63.5534C33.1127 63.5345 33.0368 63.4017 33.0747 63.2121C33.0937 63.0983 33.1127 63.0034 33.1506 62.9655C33.1885 62.9086 33.2265 62.8896 33.2834 62.9086C33.3402 62.9086 33.3782 62.9465 33.3971 62.9655C33.4161 63.0034 33.454 63.0793 33.473 63.1931C33.5678 63.2121 33.6627 63.2121 33.7385 63.1741C33.8144 63.1552 33.8523 63.0793 33.8713 62.9845C33.8902 62.8896 33.8523 62.7759 33.7765 62.6621C33.6816 62.5293 33.5109 62.3776 33.3023 62.2069L33.3782 62.0172L34.7627 62.2638L34.6868 62.6431Z" fill="white"/>
<path fill-rule="evenodd" clip-rule="evenodd" d="M26.3069 53.0461C26.1552 52.8754 23.5 48.665 23.5 48.665L23.8414 50.9788L25.9466 53.2168L26.3069 53.0461Z" fill="#7D1718"/>
<path fill-rule="evenodd" clip-rule="evenodd" d="M23.4981 51.833L25.6602 53.483L25.3947 54.1468L23.043 52.2882L23.4981 51.833Z" fill="#7D1718"/>
<path fill-rule="evenodd" clip-rule="evenodd" d="M22.6277 52.7998L25.3398 54.7153L25.0932 55.2464L22.457 53.3119L22.5329 52.8946L22.6277 52.7998Z" fill="#1E1017"/>
<path d="M22.6277 52.7998L25.3398 54.7153L25.0932 55.2464L22.457 53.3119L22.5329 52.8946L22.6277 52.7998Z" fill="#7D1718"/>
<path fill-rule="evenodd" clip-rule="evenodd" d="M21.9615 54.0332L24.8821 55.6073L24.6166 55.9867L21.8477 54.5453L21.9615 54.0332Z" fill="#7D1718"/>
<path fill-rule="evenodd" clip-rule="evenodd" d="M59.7969 53.0653C59.9296 52.8946 63.4952 47.2998 63.4952 47.2998L62.7365 49.3102L60.3658 53.5774L59.7969 53.0653Z" fill="#1E1017"/>
<path d="M59.7969 53.0653C59.9296 52.8946 63.4952 47.2998 63.4952 47.2998L62.7365 49.3102L60.3658 53.5774L59.7969 53.0653Z" fill="#7D1718"/>
<path fill-rule="evenodd" clip-rule="evenodd" d="M63.6684 50.8465L60.8046 54.1844L60.6719 54.1086L63.3081 50.0879L63.6684 50.8465Z" fill="#7D1718"/>
<path fill-rule="evenodd" clip-rule="evenodd" d="M63.3824 52.041L60.8789 54.6583L60.9737 54.8289L63.7996 52.7807L63.3824 52.041Z" fill="#7D1718"/>
<path fill-rule="evenodd" clip-rule="evenodd" d="M64.2376 53.1035L61.0703 55.1328L61.2979 55.7966L64.6169 54.0518L64.2376 53.1035Z" fill="#7D1718"/>
<path fill-rule="evenodd" clip-rule="evenodd" d="M70.6844 20.2176L65.1844 13.8641C65.1655 13.0676 65.4689 12.5176 66.0189 12.1572C69.1672 13.1055 71.7844 15.1538 73.5672 18.909C75.1413 24.0676 72.0689 26.6848 73.4913 29.4917C73.0551 30.2314 72.3913 30.6865 71.5568 30.9141C69.812 28.3348 69.9258 24.4848 70.6844 20.2176Z" fill="white"/>
<path d="M70.6844 20.2176L65.1844 13.8641C65.1655 13.0676 65.4689 12.5176 66.0189 12.1572C69.1672 13.1055 71.7844 15.1538 73.5672 18.909C75.1413 24.0676 72.0689 26.6848 73.4913 29.4917C73.0551 30.2314 72.3913 30.6865 71.5568 30.9141C69.812 28.3348 69.9258 24.4848 70.6844 20.2176Z" stroke="#7D1718" stroke-width="0.492" stroke-miterlimit="22.926"/>
<path d="M72.9988 29.3203C73.0557 29.5858 73.2833 29.7565 73.5298 29.6996C73.7764 29.6427 73.9092 29.3582 73.8712 29.0927C73.8712 29.0927 73.416 26.722 74.2126 24.6927C74.2885 24.4841 74.3833 24.2565 74.4402 23.991C74.8005 22.7013 75.0092 20.691 74.2885 18.5479C73.5867 16.4427 71.9747 14.2238 68.7126 12.5169C68.0109 12.1376 67.2143 11.7962 66.3609 11.4927C66.1333 11.4169 65.8678 11.5496 65.8109 11.8341C65.735 12.0996 65.8298 12.5738 66.0574 12.6686C66.8919 12.972 67.5936 13.2565 68.2574 13.5979C70.9505 15.4186 72.5436 17.0496 73.1885 18.9462C73.8143 20.8238 73.6436 22.5117 73.3402 23.6496C72.6954 26.0013 72.4867 26.6651 72.9988 29.3203Z" fill="#7D1718"/>
<path d="M72.9988 29.3203C73.0557 29.5858 73.2833 29.7565 73.5298 29.6996C73.7764 29.6427 73.9092 29.3582 73.8712 29.0927C73.8712 29.0927 73.416 26.722 74.2126 24.6927C74.2885 24.4841 74.3833 24.2565 74.4402 23.991C74.8005 22.7013 75.0092 20.691 74.2885 18.5479C73.5867 16.4427 71.9747 14.2238 68.7126 12.5169C68.0109 12.1376 67.2143 11.7962 66.3609 11.4927C66.1333 11.4169 65.8678 11.5496 65.8109 11.8341C65.735 12.0996 65.8298 12.5738 66.0574 12.6686C66.8919 12.972 67.5936 13.2565 68.2574 13.5979C70.9505 15.4186 72.5436 17.0496 73.1885 18.9462C73.8143 20.8238 73.6436 22.5117 73.3402 23.6496C72.6954 26.0013 72.4867 26.6651 72.9988 29.3203Z" stroke="white" stroke-width="0.213" stroke-miterlimit="2.613"/>
<path fill-rule="evenodd" clip-rule="evenodd" d="M75.0638 34.8967C76.4103 34.8398 77.8138 35.2191 78.8569 36.1105C80.1465 37.1915 80.6207 38.7657 80.5638 40.4157C80.5069 41.8191 80.8293 43.2226 81.6069 44.3984C81.8724 44.8157 82.3276 45.3657 82.7448 45.6502L83.3707 46.0864L82.6121 46.1812C81.1517 46.3708 79.5586 46.3519 78.2121 45.6881C77.2259 45.2139 76.4862 44.4553 75.9741 43.4881C75.5569 42.6726 75.3293 41.7622 75.2345 40.8519C75.1586 40.2071 75.1586 39.6002 75.1397 38.9553C75.1397 38.6898 75.0828 38.1588 74.8552 37.9691C74.8362 37.9502 74.8172 37.9502 74.7983 37.9312C74.4569 38.7846 73.9828 39.6381 73.5086 40.4157C73.2621 40.8329 72.9965 41.2502 72.7121 41.6295C72.7879 42.6536 72.6552 43.7346 72.1052 44.626C71.9724 45.9157 72.8069 47.3571 73.5465 48.3622C74.0396 49.026 74.6465 49.7467 75.2534 50.3157L75.4052 50.4674L74.6276 52.2122L74.3241 51.9657C72.0293 50.0502 70.6259 47.6605 69.9052 44.7967C68.881 43.7157 68.0276 42.4829 67.8 40.9846C67.7431 40.5295 67.7241 40.1122 67.7241 39.6571C67.7052 39.3157 67.6862 38.9743 67.5724 38.6519C67.3638 38.1208 66.9466 37.8553 66.3966 37.7605C66.169 37.7226 65.8845 37.7226 65.6379 37.7605C65.1638 38.3864 64.5569 38.8605 63.7983 39.0691C63.5138 39.145 63.0965 39.2019 62.7931 39.145H62.7741H62.7552C61.6741 38.8415 60.5931 38.9933 59.6069 39.4484C59.1707 39.6381 58.6396 39.9605 58.2793 40.2829L58.1086 40.4346L56.5155 39.4484L56.7621 39.1829C57.4638 38.3864 58.3741 37.8174 59.3793 37.476C59.7965 37.3243 60.3276 37.1726 60.7638 37.1536L62.85 36.945C63.0965 36.1295 63.5138 35.276 64.2534 34.8398C64.481 34.7071 64.8034 34.5933 65.0879 34.5743L65.2017 34.4226C64.8983 33.6071 64.481 32.7726 64.0638 32.0329C63.8362 31.5967 63.5897 31.1795 63.3241 30.7622C63.1155 30.5536 62.6983 30.2881 62.4707 30.1364C61.9965 29.8139 61.4845 29.5105 60.9914 29.226C60.3465 28.8467 59.7017 28.4674 59.0569 28.1071C58.431 28.0312 57.6914 27.9933 57.0465 28.0691L57.1034 31.0467L55.4345 31.4829L55.1879 27.6519C55.131 27.1208 55.2069 26.495 55.719 26.1915C55.9086 26.0777 56.1741 26.0208 56.3828 26.0398C57.0276 26.0208 57.6914 26.0588 58.3172 26.0967C58.6207 26.1157 58.9052 26.1346 59.2086 26.1536L59.3224 25.0915C59.3603 24.7312 59.3414 24.3329 58.981 24.1622C58.8483 24.1053 58.6397 24.0484 58.4879 24.0674H58.45L55.3017 23.5553V21.7536L55.6241 21.7915C56.1741 21.8484 56.7431 21.9243 57.2931 22.0002C57.7483 22.0571 58.2034 22.1329 58.6586 22.2088C59.019 22.2657 59.4172 22.3415 59.7776 22.4364C60.2707 22.5881 60.6879 22.8726 60.9534 23.3088C61.0672 23.4795 61.1621 23.7071 61.219 23.9157L61.5414 24.8071C61.75 25.0915 62.0534 25.376 62.4517 25.3191C62.5845 25.3002 62.7552 25.2433 62.85 25.1484L64.4241 23.8208C65.2397 23.1002 65.4862 22.3795 65.5621 21.2984C65.5621 21.2036 65.581 20.7674 65.4862 20.6915C65.4483 20.6915 65.3534 20.7295 65.3155 20.7484L63.8552 22.0191C63.4759 22.3415 63.0207 22.5312 62.5086 22.3984C62.319 22.3415 62.0914 22.2277 61.9397 22.095L61.2379 21.5071C60.8397 21.1846 60.631 20.7484 60.6879 20.2174C60.7259 20.0088 60.8017 19.7622 60.9345 19.5915L63.8741 15.0967C64.1776 14.6415 64.6138 13.9398 65.1828 13.7881C65.7328 13.6553 66.4345 14.0536 66.9086 14.3191C67.4586 14.6036 67.9707 14.964 68.4828 15.3053C68.8621 15.5708 69.2603 15.8743 69.6207 16.1777C70.4931 16.9364 71.2138 17.8088 71.65 18.8898C72.2759 20.445 72.2 22.076 71.7069 23.6691C71.081 25.6795 70.9483 27.8605 71.8776 29.795C72.181 30.4208 72.769 31.2743 73.3379 31.6726H73.3569C73.6414 31.9002 73.9259 32.2036 74.1534 32.4691C74.5328 32.9053 74.969 33.5502 74.8931 34.1571C74.8362 34.4036 74.8172 34.8208 75.0638 34.8967Z" fill="white"/>
<path fill-rule="evenodd" clip-rule="evenodd" d="M64.0852 15.2866L61.1456 19.7815C61.1456 19.7815 60.5577 20.597 61.3921 21.2987L62.0939 21.8866C62.0939 21.8866 62.7766 22.5315 63.6111 21.8108L65.0714 20.5211C65.0714 20.5211 65.868 19.9332 65.7921 21.3177C65.7163 22.7211 65.299 23.4039 64.5594 24.0487L62.9852 25.3952C62.9852 25.3952 62.0939 26.1539 61.2214 24.959L60.8801 24.0108C60.8801 24.0108 60.6904 23.0435 59.6473 22.7211C58.6042 22.4177 55.5508 22.0763 55.5508 22.0763V23.2901L58.3956 23.7452C58.3956 23.7452 59.7421 23.6125 59.5714 25.1108L59.4387 26.4573C59.4387 26.4573 57.3714 26.2866 56.3283 26.3246C56.3283 26.3246 55.2852 26.1728 55.437 27.6142L55.6456 31.0849L56.7266 30.8004L56.6508 27.7849C56.6508 27.7849 57.7318 27.6332 59.0594 27.8039C59.0594 27.8039 62.8904 29.947 63.4783 30.5728C63.4783 30.5728 64.8628 32.7728 65.4508 34.4797L65.1663 34.897C65.1663 34.897 63.687 34.6884 63.0232 37.2297L60.7473 37.4573C60.7473 37.4573 58.5094 37.647 56.9352 39.4108L58.0352 40.0935C58.0352 40.0935 60.1783 38.159 62.7956 38.8987C62.7956 38.8987 64.2559 39.1453 65.4318 37.5332C65.4318 37.5332 67.2335 37.1349 67.8214 38.5763C68.3904 39.9797 67.1766 41.5539 70.1542 44.6832C70.837 47.3763 72.1456 49.7849 74.4973 51.7573L75.0283 50.5815C75.0283 50.5815 71.4628 47.2625 71.7852 44.5694C72.1076 44.0573 72.5059 43.109 72.3732 41.5918C72.3732 41.5918 73.8904 39.4677 74.5732 37.647C74.5732 37.647 75.3697 37.4384 75.4266 38.9556C75.4835 40.4918 75.1611 46.8642 82.5766 45.897C82.5766 45.897 80.149 44.1711 80.2818 40.397C80.4145 36.6228 77.6077 35.0866 75.0473 35.2004C75.0473 35.2004 74.4404 35.1246 74.5732 34.1953C74.687 33.2659 73.1318 31.9573 73.1318 31.9573C73.1318 31.9573 69.5852 29.4349 71.387 23.6315C72.5628 19.8194 70.7421 17.6573 69.3766 16.4625C68.9214 16.0642 67.7456 15.1728 66.7404 14.6228C65.2611 13.8263 65.0335 13.8453 64.0852 15.2866Z" fill="#7D1718"/>
<path fill-rule="evenodd" clip-rule="evenodd" d="M15.3446 20.2361L20.8446 13.8827C20.8635 13.0861 20.5601 12.5361 20.0101 12.1758C16.8618 13.1241 14.2446 15.1723 12.4618 18.9275C10.8877 24.0861 13.9601 26.7034 12.5377 29.5103C12.9739 30.2499 13.6377 30.7051 14.4722 30.9327C16.217 28.3534 16.1032 24.5034 15.3446 20.2361Z" fill="white"/>
<path d="M15.3446 20.2361L20.8446 13.8827C20.8635 13.0861 20.5601 12.5361 20.0101 12.1758C16.8618 13.1241 14.2446 15.1723 12.4618 18.9275C10.8877 24.0861 13.9601 26.7034 12.5377 29.5103C12.9739 30.2499 13.6377 30.7051 14.4722 30.9327C16.217 28.3534 16.1032 24.5034 15.3446 20.2361Z" stroke="#7D1718" stroke-width="0.492" stroke-miterlimit="22.926"/>
<path d="M13.029 29.3398C12.9721 29.6054 12.7445 29.776 12.498 29.7192C12.2514 29.6623 12.1187 29.3778 12.1566 29.1123C12.1566 29.1123 12.6118 26.7226 11.8152 24.7123C11.7393 24.5036 11.6445 24.276 11.5876 24.0105C11.2273 22.7209 11.0187 20.7105 11.7393 18.5674C12.4411 16.4623 14.0531 14.2433 17.3152 12.5364C18.0169 12.1571 18.8135 11.8157 19.6669 11.5123C19.8945 11.4364 20.16 11.5692 20.2169 11.8536C20.2928 12.1192 20.198 12.5933 19.9704 12.6881C19.1359 12.9916 18.4342 13.276 17.7704 13.6174C15.0773 15.4192 13.4842 17.0692 12.8393 18.9657C12.2135 20.8433 12.3842 22.5312 12.6876 23.6692C13.3324 26.0209 13.5411 26.6847 13.029 29.3398Z" fill="#7D1718"/>
<path d="M13.029 29.3398C12.9721 29.6054 12.7445 29.776 12.498 29.7192C12.2514 29.6623 12.1187 29.3778 12.1566 29.1123C12.1566 29.1123 12.6118 26.7226 11.8152 24.7123C11.7393 24.5036 11.6445 24.276 11.5876 24.0105C11.2273 22.7209 11.0187 20.7105 11.7393 18.5674C12.4411 16.4623 14.0531 14.2433 17.3152 12.5364C18.0169 12.1571 18.8135 11.8157 19.6669 11.5123C19.8945 11.4364 20.16 11.5692 20.2169 11.8536C20.2928 12.1192 20.198 12.5933 19.9704 12.6881C19.1359 12.9916 18.4342 13.276 17.7704 13.6174C15.0773 15.4192 13.4842 17.0692 12.8393 18.9657C12.2135 20.8433 12.3842 22.5312 12.6876 23.6692C13.3324 26.0209 13.5411 26.6847 13.029 29.3398Z" stroke="white" stroke-width="0.213" stroke-miterlimit="2.613"/>
<path fill-rule="evenodd" clip-rule="evenodd" d="M10.9631 34.9154C9.6166 34.8585 8.21315 35.2378 7.17004 36.1292C5.88039 37.2102 5.40625 38.7844 5.46315 40.4344C5.52004 41.8378 5.19763 43.2413 4.42004 44.4171C4.15453 44.8344 3.69935 45.3844 3.28211 45.6689L2.65625 46.1051L3.41487 46.1999C4.87522 46.3896 6.46832 46.3706 7.81487 45.7068C8.80108 45.2327 9.54073 44.474 10.0528 43.5068C10.47 42.6913 10.6976 41.7809 10.7925 40.8706C10.8683 40.2258 10.8683 39.6189 10.8873 38.974C10.8873 38.7085 10.9442 38.1775 11.1718 37.9878C11.1907 37.9689 11.2097 37.9689 11.2287 37.9499C11.57 38.8034 12.0442 39.6568 12.5183 40.4344C12.7649 40.8516 13.0304 41.2689 13.3149 41.6482C13.239 42.6723 13.3718 43.7533 13.9218 44.6447C14.0545 45.9344 13.22 47.3758 12.4804 48.3809C11.9873 49.0447 11.3804 49.7654 10.7735 50.3344L10.6218 50.4861L11.3994 52.2309L11.7028 51.9844C13.9976 50.0689 15.4011 47.6792 16.1218 44.8154C17.1459 43.7344 17.9994 42.5016 18.2269 41.0033C18.2838 40.5482 18.3028 40.1309 18.3028 39.6758C18.3218 39.3344 18.3407 38.993 18.4545 38.6706C18.6631 38.1396 19.0804 37.874 19.6304 37.7792C19.858 37.7413 20.1425 37.7413 20.389 37.7792C20.8631 38.4051 21.47 38.8792 22.2287 39.0878C22.5131 39.1637 22.9304 39.2206 23.2338 39.1637H23.2528H23.2718C24.3528 38.8602 25.4338 39.012 26.42 39.4671C26.8563 39.6568 27.3873 39.9792 27.7476 40.3016L27.9183 40.4534L29.5114 39.4671L29.2649 39.2016C28.5631 38.4051 27.6528 37.8361 26.6476 37.4947C26.2304 37.343 25.6994 37.1913 25.2631 37.1723L23.1769 36.9637C22.9304 36.1482 22.5131 35.2947 21.7735 34.8585C21.5459 34.7258 21.2235 34.612 20.939 34.593L20.8252 34.4413C21.1287 33.6258 21.5459 32.7913 21.9631 32.0516C22.1907 31.6154 22.4373 31.1982 22.7028 30.7809C22.9114 30.5723 23.3287 30.3068 23.5563 30.1551C24.0304 29.8327 24.5425 29.5292 25.0356 29.2447C25.6804 28.8654 26.3252 28.4861 26.97 28.1258C27.5959 28.0499 28.3356 28.012 28.9804 28.0878L28.9235 31.0654L30.5925 31.5016L30.839 27.6706C30.8959 27.1396 30.82 26.5137 30.308 26.2102C30.1183 26.0965 29.8528 26.0396 29.6442 26.0585C28.9994 26.0396 28.3356 26.0775 27.7097 26.1154C27.4063 26.1344 27.1218 26.1533 26.8183 26.1723L26.7045 25.1102C26.6666 24.7499 26.6856 24.3516 27.0459 24.1809C27.1787 24.124 27.3873 24.0671 27.539 24.0861H27.5769L30.7252 23.574V21.7723L30.4028 21.8102C29.8528 21.8671 29.2838 21.943 28.7338 22.0189C28.2787 22.0758 27.8235 22.1516 27.3683 22.2275C27.008 22.2844 26.6097 22.3602 26.2494 22.4551C25.7563 22.6068 25.339 22.8913 25.0735 23.3275C24.9597 23.4982 24.8649 23.7258 24.808 23.9344L24.4856 24.8258C24.2769 25.1102 23.9735 25.3947 23.5752 25.3378C23.4425 25.3189 23.2718 25.262 23.1769 25.1671L21.6028 23.8396C20.7873 23.1189 20.5407 22.3982 20.4649 21.3171C20.4649 21.2223 20.4459 20.7861 20.5407 20.7102C20.5787 20.7102 20.6735 20.7482 20.7114 20.7671L22.1718 22.0378C22.5511 22.3602 23.0063 22.5499 23.5183 22.4171C23.708 22.3602 23.9356 22.2465 24.0873 22.1137L24.789 21.5258C25.1873 21.2034 25.3959 20.7671 25.339 20.2361C25.3011 20.0275 25.2252 19.7809 25.0925 19.6102L22.1907 15.1534C21.8873 14.6982 21.4511 13.9965 20.8821 13.8447C20.3321 13.712 19.6304 14.1102 19.1563 14.3758C18.6063 14.6602 18.0942 15.0206 17.5821 15.362C17.2028 15.6275 16.8045 15.9309 16.4442 16.2344C15.5718 16.993 14.8511 17.8654 14.4149 18.9465C13.789 20.5016 13.8649 22.1327 14.358 23.7068C14.9838 25.7171 15.1166 27.8982 14.1873 29.8327C13.8838 30.4585 13.2959 31.312 12.7269 31.7102H12.708C12.4235 31.9378 12.139 32.2413 11.9114 32.5068C11.5321 32.943 11.0959 33.5878 11.1718 34.1947C11.1907 34.4223 11.2097 34.8396 10.9631 34.9154Z" fill="white"/>
<path fill-rule="evenodd" clip-rule="evenodd" d="M21.9412 15.305L24.8808 19.7998C24.8808 19.7998 25.4688 20.6153 24.6343 21.317L23.9325 21.905C23.9325 21.905 23.2498 22.5498 22.4153 21.8291L20.955 20.5395C20.955 20.5395 20.1584 19.9515 20.2343 21.336C20.3101 22.7395 20.7274 23.4222 21.467 24.067L23.0601 25.4136C23.0601 25.4136 23.9515 26.1722 24.8239 24.9774L25.1653 24.0291C25.1653 24.0291 25.355 23.0619 26.3981 22.7395C27.4412 22.436 30.4946 22.0946 30.4946 22.0946V23.3084L27.6498 23.7636C27.6498 23.7636 26.3032 23.6308 26.4739 25.1291L26.6067 26.4757C26.6067 26.4757 28.6739 26.305 29.717 26.3429C29.717 26.3429 30.7601 26.1912 30.6084 27.6326L30.3998 31.1032L29.3188 30.8188L29.3946 27.8032C29.3946 27.8032 28.3136 27.6515 26.986 27.8222C26.986 27.8222 23.155 29.9653 22.567 30.5912C22.567 30.5912 21.1825 32.7912 20.5946 34.4981L20.8791 34.9153C20.8791 34.9153 22.3584 34.7067 23.0222 37.2481L25.2981 37.4757C25.2981 37.4757 27.536 37.6653 29.1101 39.4291L28.0101 40.1119C28.0101 40.1119 25.867 38.1774 23.2498 38.917C23.2498 38.917 21.7894 39.1636 20.6136 37.5326C20.6136 37.5326 18.8119 37.1343 18.2239 38.5757C17.655 39.9791 18.8688 41.5532 15.8912 44.6826C15.2084 47.3757 13.8998 49.7843 11.5481 51.7567L11.017 50.5808C11.017 50.5808 14.5825 47.2619 14.2601 44.5688C13.9377 44.0567 13.5394 43.1084 13.6722 41.5912C13.6722 41.5912 12.155 39.467 11.4722 37.6463C11.4722 37.6463 10.6756 37.4377 10.6188 38.955C10.5619 40.4912 10.8843 46.8636 3.46875 45.8963C3.46875 45.8963 5.89634 44.1705 5.76358 40.3963C5.63082 36.6222 8.43772 35.086 10.9981 35.1998C10.9981 35.1998 11.605 35.1239 11.4722 34.1946C11.3584 33.2653 12.9136 31.9567 12.9136 31.9567C12.9136 31.9567 16.4601 29.4343 14.6584 23.6308C13.4825 19.8188 15.3032 17.6567 16.6688 16.4619C17.1239 16.0636 18.2998 15.1722 19.305 14.6222C20.7653 13.8446 20.9929 13.8636 21.9412 15.305Z" fill="#7D1718"/>
<path fill-rule="evenodd" clip-rule="evenodd" d="M35.8266 43.5825C35.2576 43.5445 34.7076 43.5256 34.1386 43.5445V44.379C34.6886 44.379 35.2197 44.398 35.7697 44.417L35.8266 43.5825ZM38.33 43.9049C37.78 43.7911 37.23 43.6963 36.661 43.6394L36.5662 44.4549C37.0973 44.5118 37.6283 44.5877 38.1593 44.7014L38.33 43.9049ZM40.7766 44.6445C40.2645 44.4359 39.6955 44.2463 39.1645 44.1135L38.9559 44.9101C39.1076 44.948 39.2593 44.9859 39.411 45.0428C39.7714 45.1566 40.1317 45.2704 40.4731 45.4221L40.7766 44.6445ZM42.5024 45.498C42.199 45.3083 41.8766 45.1566 41.5541 44.9859L41.1938 45.7256C41.4973 45.8773 41.7817 46.029 42.0852 46.1997L42.5024 45.498ZM33.6455 49.6894C33.0955 49.6704 32.5266 49.6514 31.9766 49.6514V50.4859C32.5266 50.4859 33.0576 50.4859 33.6076 50.5239L33.6455 49.6894ZM36.149 49.9359C35.599 49.8601 35.03 49.7842 34.48 49.7463L34.4041 50.5618C34.9352 50.5997 35.4852 50.6756 36.0162 50.7514L36.149 49.9359ZM38.6145 50.467C38.0645 50.3152 37.5335 50.1825 36.9645 50.0687L36.8128 50.8842C37.3438 50.998 37.8559 51.1118 38.3869 51.2635L38.6145 50.467ZM41.0041 51.3583C40.4921 51.1308 39.961 50.9221 39.43 50.7325L39.1645 51.5101C39.6766 51.6808 40.1697 51.8894 40.6628 52.098L41.0041 51.3583ZM42.4455 52.098C42.2179 51.9652 42.0093 51.8514 41.7817 51.7187L41.4024 52.4583C41.611 52.5721 41.8386 52.6859 42.0473 52.8187L42.4455 52.098ZM34.5938 47.5083C34.0248 47.4704 33.4748 47.4704 32.9059 47.4704V48.3049C33.4559 48.3049 33.9869 48.3239 34.5369 48.3428L34.5938 47.5083ZM37.1162 47.8118C36.5662 47.717 36.0162 47.6411 35.4473 47.5842L35.3714 48.3997C35.9024 48.4566 36.4335 48.5325 36.9645 48.6273L37.1162 47.8118ZM39.5628 48.4566C39.0317 48.267 38.4817 48.1152 37.9317 47.9825L37.7421 48.779C38.2731 48.9118 38.7852 49.0445 39.2783 49.2342L39.5628 48.4566ZM41.8766 49.5187C41.3835 49.2342 40.8714 48.9877 40.3593 48.7601L40.0369 49.5187C40.53 49.7273 41.0041 49.9549 41.4783 50.2204L41.8766 49.5187ZM35.2766 45.6118C34.7076 45.5739 34.1576 45.5549 33.5886 45.5739V46.4083C34.1386 46.4083 34.6697 46.4273 35.2197 46.4463L35.2766 45.6118ZM37.799 45.9532C37.249 45.8394 36.699 45.7445 36.13 45.6877L36.0352 46.5032C36.5662 46.5601 37.0972 46.6359 37.6283 46.7497L37.799 45.9532ZM40.2266 46.6739C39.7145 46.4652 39.1455 46.2756 38.6145 46.1428L38.4059 46.9394C38.5576 46.9773 38.7093 47.0152 38.861 47.0721C39.2214 47.1859 39.5817 47.2997 39.9231 47.4514L40.2266 46.6739ZM41.9714 47.5273C41.6679 47.3377 41.3455 47.1859 41.0231 47.0152L40.6628 47.7549C40.9662 47.9066 41.2507 48.0583 41.5541 48.229L41.9714 47.5273Z" fill="#7D1718"/>
<path fill-rule="evenodd" clip-rule="evenodd" d="M50.2378 43.5825C50.8068 43.5445 51.3568 43.5256 51.9257 43.5445V44.379C51.3757 44.379 50.8447 44.398 50.2947 44.417L50.2378 43.5825ZM47.7154 43.9049C48.2654 43.7911 48.8154 43.6963 49.3843 43.6394L49.4792 44.4549C48.9481 44.5118 48.4171 44.5877 47.8861 44.7014L47.7154 43.9049ZM45.2688 44.6445C45.7809 44.4359 46.3499 44.2463 46.8809 44.1135L47.0895 44.9101C46.9378 44.948 46.7861 44.9859 46.6343 45.0428C46.274 45.1566 45.9137 45.2704 45.5723 45.4221L45.2688 44.6445ZM43.543 45.498C43.8464 45.3083 44.1688 45.1566 44.4912 44.9859L44.8516 45.7256C44.5481 45.8773 44.2637 46.029 43.9602 46.1997L43.543 45.498ZM52.4188 49.6894C52.9688 49.6704 53.5378 49.6514 54.0878 49.6514V50.4859C53.5378 50.4859 53.0068 50.4859 52.4568 50.5239L52.4188 49.6894ZM49.8964 49.9359C50.4464 49.8601 51.0154 49.7842 51.5654 49.7463L51.6223 50.5618C51.0912 50.5997 50.5412 50.6756 50.0102 50.7514L49.8964 49.9359ZM47.4309 50.467C47.9809 50.3152 48.5119 50.1825 49.0809 50.0687L49.2326 50.8842C48.7016 50.998 48.1895 51.1118 47.6585 51.2635L47.4309 50.467ZM45.0412 51.3583C45.5533 51.1308 46.0843 50.9221 46.6154 50.7325L46.8809 51.5101C46.3688 51.6808 45.8757 51.8894 45.3826 52.098L45.0412 51.3583ZM43.6188 52.098C43.8464 51.9652 44.055 51.8514 44.2826 51.7187L44.6619 52.4583C44.4533 52.5721 44.2257 52.6859 44.0171 52.8187L43.6188 52.098ZM51.4516 47.5083C52.0206 47.4704 52.5706 47.4704 53.1395 47.4704V48.3049C52.5895 48.3049 52.0585 48.3239 51.5085 48.3428L51.4516 47.5083ZM48.9481 47.8118C49.4981 47.717 50.0481 47.6411 50.6171 47.5842L50.693 48.3997C50.1619 48.4566 49.6309 48.5325 49.0999 48.6273L48.9481 47.8118ZM46.4826 48.4566C47.0137 48.267 47.5637 48.1152 48.1137 47.9825L48.3033 48.779C47.7723 48.9118 47.2602 49.0445 46.7671 49.2342L46.4826 48.4566ZM44.1688 49.5187C44.6619 49.2342 45.174 48.9877 45.6861 48.7601L46.0085 49.5187C45.5154 49.7273 45.0412 49.9549 44.5671 50.2204L44.1688 49.5187ZM50.7688 45.6118C51.3378 45.5739 51.8878 45.5549 52.4568 45.5739V46.4083C51.9068 46.4083 51.3757 46.4273 50.8257 46.4463L50.7688 45.6118ZM48.2654 45.9532C48.8154 45.8394 49.3654 45.7445 49.9343 45.6877L50.0292 46.5032C49.4981 46.5601 48.9671 46.6359 48.4361 46.7497L48.2654 45.9532ZM45.8188 46.6739C46.3309 46.4652 46.8999 46.2756 47.4309 46.1428L47.6395 46.9394C47.4878 46.9773 47.3361 47.0152 47.1843 47.0721C46.824 47.1859 46.4637 47.2997 46.1223 47.4514L45.8188 46.6739ZM44.093 47.5273C44.3964 47.3377 44.7188 47.1859 45.0412 47.0152L45.4016 47.7549C45.0981 47.9066 44.8137 48.0583 44.5102 48.229L44.093 47.5273Z" fill="#7D1718"/>
<path fill-rule="evenodd" clip-rule="evenodd" d="M23.7467 76.8864C24.4105 76.8864 24.9226 76.6967 25.3019 76.3364C25.6812 75.976 25.8519 75.4639 25.8519 74.8001C25.8519 74.1364 25.6622 73.6243 25.3019 73.245C24.9226 72.8657 24.4105 72.695 23.7467 72.695H22.9122V76.8864H23.7467ZM23.8605 71.1777C24.6191 71.1777 25.2829 71.3295 25.8519 71.6329C26.4209 71.9364 26.8571 72.3536 27.1795 72.9036C27.4829 73.4536 27.6536 74.0795 27.6536 74.8001C27.6536 75.5019 27.5019 76.1277 27.1795 76.6777C26.876 77.2277 26.4209 77.645 25.8519 77.9484C25.2829 78.2519 24.6191 78.4036 23.8605 78.4036H21.1484V71.1777H23.8605Z" fill="#7D1718"/>
<path fill-rule="evenodd" clip-rule="evenodd" d="M34.8953 71.1777V78.4036H33.1315V75.445H30.4005V78.4036H28.6367V71.1777H30.4005V74.0226H33.1315V71.1777H34.8953Z" fill="#7D1718"/>
<path fill-rule="evenodd" clip-rule="evenodd" d="M40.2052 75.7674L39.3138 73.1312L38.4224 75.7674H40.2052ZM40.6604 77.1329H37.9673L37.5311 78.4036H35.6914L38.3086 71.1777H40.338L42.9552 78.4036H41.0966L40.6604 77.1329Z" fill="#7D1718"/>
<path fill-rule="evenodd" clip-rule="evenodd" d="M45.5177 74.4398H46.6177C46.9401 74.4398 47.1867 74.3639 47.3384 74.2122C47.5091 74.0605 47.5849 73.8329 47.5849 73.5484C47.5849 73.2829 47.5091 73.0553 47.3384 72.9036C47.1677 72.7519 46.9401 72.676 46.6177 72.676H45.5177V74.4398ZM47.4332 78.4036L45.9349 75.6726H45.5177V78.4036H43.7539V71.1777H46.7125C47.2815 71.1777 47.7746 71.2726 48.1729 71.4812C48.5711 71.6708 48.8746 71.9553 49.0643 72.2967C49.2539 72.6381 49.3677 73.0364 49.3677 73.4536C49.3677 73.9277 49.2349 74.3639 48.9694 74.7433C48.7039 75.1226 48.3056 75.3881 47.7746 75.5398L49.4436 78.4036H47.4332Z" fill="#7D1718"/>
<path fill-rule="evenodd" clip-rule="evenodd" d="M54.506 75.7674L53.6146 73.1312L52.7232 75.7674H54.506ZM54.9612 77.1329H52.268L51.8318 78.4036H49.9922L52.6094 71.1777H54.6387L57.256 78.4036H55.3784L54.9612 77.1329Z" fill="#7D1718"/>
<path fill-rule="evenodd" clip-rule="evenodd" d="M64.8246 71.1777L62.2642 78.4036H60.0643L57.5039 71.1777H59.3625L61.1642 76.6398L62.966 71.1777H64.8246Z" fill="#7D1718"/>
<path fill-rule="evenodd" clip-rule="evenodd" d="M23.7467 76.8864C24.4105 76.8864 24.9226 76.6967 25.3019 76.3364C25.6812 75.976 25.8519 75.4639 25.8519 74.8001C25.8519 74.1364 25.6622 73.6243 25.3019 73.245C24.9226 72.8657 24.4105 72.695 23.7467 72.695H22.9122V76.8864H23.7467ZM23.8605 71.1777C24.6191 71.1777 25.2829 71.3295 25.8519 71.6329C26.4209 71.9364 26.8571 72.3536 27.1795 72.9036C27.4829 73.4536 27.6536 74.0795 27.6536 74.8001C27.6536 75.5019 27.5019 76.1277 27.1795 76.6777C26.876 77.2277 26.4209 77.645 25.8519 77.9484C25.2829 78.2519 24.6191 78.4036 23.8605 78.4036H21.1484V71.1777H23.8605Z" fill="#7D1718"/>
<path fill-rule="evenodd" clip-rule="evenodd" d="M34.8953 71.1777V78.4036H33.1315V75.445H30.4005V78.4036H28.6367V71.1777H30.4005V74.0226H33.1315V71.1777H34.8953Z" fill="#7D1718"/>
<path fill-rule="evenodd" clip-rule="evenodd" d="M40.2052 75.7674L39.3138 73.1312L38.4224 75.7674H40.2052ZM40.6604 77.1329H37.9673L37.5311 78.4036H35.6914L38.3086 71.1777H40.338L42.9552 78.4036H41.0966L40.6604 77.1329Z" fill="#7D1718"/>
<path fill-rule="evenodd" clip-rule="evenodd" d="M45.5177 74.4398H46.6177C46.9401 74.4398 47.1867 74.3639 47.3384 74.2122C47.5091 74.0605 47.5849 73.8329 47.5849 73.5484C47.5849 73.2829 47.5091 73.0553 47.3384 72.9036C47.1677 72.7519 46.9401 72.676 46.6177 72.676H45.5177V74.4398ZM47.4332 78.4036L45.9349 75.6726H45.5177V78.4036H43.7539V71.1777H46.7125C47.2815 71.1777 47.7746 71.2726 48.1729 71.4812C48.5711 71.6708 48.8746 71.9553 49.0643 72.2967C49.2539 72.6381 49.3677 73.0364 49.3677 73.4536C49.3677 73.9277 49.2349 74.3639 48.9694 74.7433C48.7039 75.1226 48.3056 75.3881 47.7746 75.5398L49.4436 78.4036H47.4332Z" fill="#7D1718"/>
<path fill-rule="evenodd" clip-rule="evenodd" d="M54.506 75.7674L53.6146 73.1312L52.7232 75.7674H54.506ZM54.9612 77.1329H52.268L51.8318 78.4036H49.9922L52.6094 71.1777H54.6387L57.256 78.4036H55.3784L54.9612 77.1329Z" fill="#7D1718"/>
<path fill-rule="evenodd" clip-rule="evenodd" d="M64.8246 71.1777L62.2642 78.4036H60.0643L57.5039 71.1777H59.3625L61.1642 76.6398L62.966 71.1777H64.8246Z" fill="#7D1718"/>
<path fill-rule="evenodd" clip-rule="evenodd" d="M20.256 81.1152V86.767H19.3267V84.2825H16.6715V86.767H15.7422V81.1152H16.6715V83.5428H19.3267V81.1152H20.256Z" fill="#7D1718"/>
<path d="M22.3981 81.1152H21.4688V86.767H22.3981V81.1152Z" fill="#7D1718"/>
<path fill-rule="evenodd" clip-rule="evenodd" d="M27.708 82.7461C27.5563 82.4616 27.3666 82.253 27.1011 82.1013C26.8356 81.9496 26.5322 81.8927 26.1908 81.8927C25.8115 81.8927 25.4891 81.9685 25.1856 82.1392C24.9011 82.3099 24.6546 82.5375 24.5029 82.8599C24.3322 83.1634 24.2563 83.5237 24.2563 83.9409C24.2563 84.3392 24.3322 84.6996 24.5029 85.022C24.6735 85.3254 24.9011 85.572 25.1856 85.7427C25.4701 85.9134 25.8115 85.9892 26.1908 85.9892C26.7029 85.9892 27.1011 85.8565 27.4235 85.572C27.746 85.2875 27.9356 84.9082 27.9925 84.434H25.8684V83.6944H28.9787V84.4151C28.9218 84.8513 28.7701 85.2496 28.5046 85.6289C28.258 85.9892 27.9166 86.2927 27.5184 86.5203C27.1201 86.7478 26.6649 86.8427 26.1718 86.8427C25.6408 86.8427 25.1477 86.7099 24.7115 86.4634C24.2753 86.2168 23.9149 85.8754 23.6684 85.4392C23.4029 85.003 23.2891 84.5099 23.2891 83.9599C23.2891 83.4099 23.4218 82.9168 23.6684 82.4806C23.9339 82.0444 24.2753 81.703 24.7115 81.4565C25.1477 81.2099 25.6408 81.0771 26.1718 81.0771C26.7787 81.0771 27.3098 81.2289 27.7839 81.5134C28.258 81.8168 28.5994 82.234 28.808 82.7651H27.708V82.7461Z" fill="#7D1718"/>
<path fill-rule="evenodd" clip-rule="evenodd" d="M34.4044 81.1152V86.767H33.4751V84.2825H30.8199V86.767H29.8906V81.1152H30.8199V83.5428H33.4751V81.1152H34.4044Z" fill="#7D1718"/>
<path fill-rule="evenodd" clip-rule="evenodd" d="M38.5761 86.6153C38.2726 86.4826 38.0261 86.2929 37.8554 86.0464C37.6847 85.7998 37.5898 85.5153 37.5898 85.1929H38.5761C38.595 85.4395 38.6898 85.6291 38.8605 85.7998C39.0312 85.9515 39.2778 86.0274 39.5812 86.0274C39.9036 86.0274 40.1502 85.9515 40.3209 85.7998C40.4916 85.6481 40.5864 85.4395 40.5864 85.2119C40.5864 85.0222 40.5295 84.8705 40.4157 84.7567C40.3019 84.6429 40.1692 84.5481 39.9985 84.4722C39.8278 84.4153 39.6002 84.3395 39.3157 84.2636C38.9554 84.1688 38.6519 84.074 38.4243 83.9602C38.1967 83.8653 38.0071 83.7136 37.8364 83.486C37.6657 83.2774 37.5898 82.9929 37.5898 82.6326C37.5898 82.3102 37.6657 82.0257 37.8364 81.7791C38.0071 81.5326 38.2347 81.3429 38.5192 81.2102C38.8036 81.0774 39.145 81.0205 39.5433 81.0205C40.0933 81.0205 40.5295 81.1533 40.8898 81.4377C41.2312 81.7033 41.4398 82.0826 41.4778 82.5567H40.4536C40.4347 82.3481 40.3398 82.1774 40.1692 82.0257C39.9985 81.874 39.7519 81.7981 39.4674 81.7981C39.2019 81.7981 38.9933 81.874 38.8226 82.0067C38.6519 82.1395 38.5761 82.3291 38.5761 82.5946C38.5761 82.7653 38.6329 82.9171 38.7278 83.0119C38.8416 83.1257 38.9743 83.2015 39.1261 83.2774C39.2967 83.3343 39.5054 83.4102 39.7898 83.486C40.1692 83.5809 40.4726 83.6946 40.7002 83.7895C40.9278 83.8843 41.1364 84.055 41.3071 84.2636C41.4778 84.4722 41.5536 84.7567 41.5536 85.1171C41.5536 85.4015 41.4778 85.6671 41.3261 85.9326C41.1743 86.1791 40.9467 86.3877 40.6433 86.5395C40.3398 86.6912 39.9985 86.7671 39.6002 86.7671C39.2209 86.824 38.8795 86.7481 38.5761 86.6153Z" fill="#7D1718"/>
<path fill-rule="evenodd" clip-rule="evenodd" d="M42.7303 82.4435C42.9958 82.0073 43.3372 81.6659 43.7734 81.4193C44.2096 81.1728 44.7027 81.04 45.2148 81.04C45.8217 81.04 46.3527 81.1918 46.8269 81.4762C47.301 81.7797 47.6424 82.1969 47.851 82.728H46.732C46.5803 82.4245 46.3907 82.2159 46.1251 82.0642C45.8596 81.9125 45.5562 81.8366 45.2148 81.8366C44.8355 81.8366 44.5131 81.9125 44.2096 82.0831C43.9251 82.2538 43.6975 82.5004 43.5269 82.8038C43.3562 83.1262 43.2803 83.4866 43.2803 83.9038C43.2803 84.3211 43.3562 84.6814 43.5269 85.0038C43.6975 85.3263 43.9251 85.5538 44.2096 85.7245C44.4941 85.8952 44.8355 85.99 45.2148 85.99C45.5562 85.99 45.8596 85.9142 46.1251 85.7625C46.3907 85.6107 46.5803 85.4021 46.732 85.0987H47.851C47.6424 85.6487 47.301 86.0659 46.8269 86.3504C46.3527 86.6349 45.8217 86.7866 45.2148 86.7866C44.6838 86.7866 44.1907 86.6538 43.7544 86.4073C43.3182 86.1607 42.9769 85.8194 42.7113 85.3831C42.4458 84.9469 42.332 84.4538 42.332 83.9038C42.332 83.3538 42.4648 82.8797 42.7303 82.4435Z" fill="#7D1718"/>
<path fill-rule="evenodd" clip-rule="evenodd" d="M53.4435 81.1152V86.767H52.5142V84.2825H49.859V86.767H48.9297V81.1152H49.859V83.5428H52.5142V81.1152H53.4435Z" fill="#7D1718"/>
<path fill-rule="evenodd" clip-rule="evenodd" d="M55.7974 86.4452C55.3612 86.1987 55.0009 85.8573 54.7543 85.4211C54.4888 84.9849 54.375 84.4728 54.375 83.9228C54.375 83.3728 54.5078 82.8797 54.7543 82.4435C55.0198 82.0073 55.3612 81.6659 55.7974 81.4193C56.2336 81.1728 56.7267 81.04 57.2388 81.04C57.7698 81.04 58.2629 81.1538 58.6991 81.4193C59.1353 81.6659 59.4957 82.0073 59.7422 82.4435C59.9888 82.8797 60.1216 83.3728 60.1216 83.9228C60.1216 84.4728 59.9888 84.9659 59.7422 85.4211C59.4957 85.8573 59.1353 86.1987 58.6991 86.4452C58.2629 86.6918 57.7698 86.8056 57.2388 86.8056C56.7078 86.8245 56.2336 86.6918 55.7974 86.4452ZM58.244 85.7625C58.5284 85.5918 58.756 85.3452 58.9267 85.0228C59.0974 84.7004 59.1733 84.34 59.1733 83.9228C59.1733 83.5056 59.0974 83.1452 58.9267 82.8228C58.756 82.5004 58.5284 82.2728 58.244 82.1021C57.9595 81.9314 57.6181 81.8556 57.2388 81.8556C56.8595 81.8556 56.5371 81.9314 56.2336 82.1021C55.9491 82.2728 55.7215 82.5194 55.5509 82.8228C55.3802 83.1452 55.3043 83.5056 55.3043 83.9228C55.3043 84.34 55.3802 84.7004 55.5509 85.0228C55.7215 85.3452 55.9491 85.5918 56.2336 85.7625C56.5181 85.9331 56.8595 86.028 57.2388 86.028C57.6181 86.009 57.9405 85.9331 58.244 85.7625Z" fill="#7D1718"/>
<path fill-rule="evenodd" clip-rule="evenodd" d="M62.1685 86.4452C61.7323 86.1987 61.372 85.8573 61.1254 85.4211C60.8599 84.9849 60.7461 84.4728 60.7461 83.9228C60.7461 83.3728 60.8789 82.8797 61.1254 82.4435C61.3909 82.0073 61.7323 81.6659 62.1685 81.4193C62.6047 81.1728 63.0978 81.04 63.6289 81.04C64.1599 81.04 64.653 81.1538 65.0892 81.4193C65.5254 81.6659 65.8858 82.0073 66.1323 82.4435C66.3789 82.8797 66.5116 83.3728 66.5116 83.9228C66.5116 84.4728 66.3789 84.9659 66.1323 85.4211C65.8858 85.8573 65.5254 86.1987 65.0892 86.4452C64.653 86.6918 64.1599 86.8056 63.6289 86.8056C63.0789 86.8245 62.6047 86.6918 62.1685 86.4452ZM64.6151 85.7625C64.8995 85.5918 65.1271 85.3452 65.2978 85.0228C65.4685 84.7004 65.5444 84.34 65.5444 83.9228C65.5444 83.5056 65.4685 83.1452 65.2978 82.8228C65.1271 82.5004 64.8995 82.2728 64.6151 82.1021C64.3306 81.9314 63.9892 81.8556 63.6099 81.8556C63.2306 81.8556 62.9082 81.9314 62.6047 82.1021C62.3202 82.2728 62.0926 82.5194 61.922 82.8228C61.7513 83.1452 61.6754 83.5056 61.6754 83.9228C61.6754 84.34 61.7513 84.7004 61.922 85.0228C62.0926 85.3452 62.3202 85.5918 62.6047 85.7625C62.8892 85.9331 63.2306 86.028 63.6099 86.028C63.9892 86.009 64.3116 85.9331 64.6151 85.7625Z" fill="#7D1718"/>
<path fill-rule="evenodd" clip-rule="evenodd" d="M68.3317 86.0083H70.2472V86.767H67.4023V81.1152H68.3317V86.0083Z" fill="#7D1718"/>
<path d="M29.49 94.998C29.3952 94.8273 29.2814 94.6946 29.1107 94.5997C28.9589 94.5049 28.7693 94.467 28.5607 94.467C28.3331 94.467 28.1245 94.5239 27.9348 94.6187C27.7452 94.7135 27.6124 94.8653 27.5176 95.0549C27.4227 95.2446 27.3658 95.4722 27.3658 95.7187C27.3658 95.9653 27.4227 96.1929 27.5176 96.3825C27.6124 96.5722 27.7641 96.7239 27.9348 96.8187C28.1245 96.9135 28.3141 96.9704 28.5607 96.9704C28.8641 96.9704 29.1296 96.8756 29.3193 96.7049C29.5089 96.5342 29.6417 96.2877 29.6796 96.0032H28.371V95.548H30.3055V96.0032C30.2676 96.2687 30.1727 96.5342 30.021 96.7618C29.8693 96.9894 29.6607 97.1791 29.4141 97.3118C29.1676 97.4446 28.8831 97.5204 28.5796 97.5204C28.2572 97.5204 27.9538 97.4446 27.6883 97.2929C27.4227 97.1411 27.1952 96.9325 27.0434 96.648C26.8917 96.3825 26.7969 96.0601 26.7969 95.7187C26.7969 95.3773 26.8727 95.0739 27.0434 94.7894C27.1952 94.5239 27.4227 94.2963 27.6883 94.1446C27.9538 93.9929 28.2572 93.917 28.5796 93.917C28.9589 93.917 29.2814 94.0118 29.5658 94.1825C29.8503 94.3722 30.0589 94.6187 30.1917 94.9601H29.49V94.998Z" fill="#7D1718"/>
<path d="M31.9205 93.9932V96.2311C31.9205 96.4966 31.9964 96.7052 32.1291 96.838C32.2619 96.9708 32.4705 97.0466 32.7171 97.0466C32.9636 97.0466 33.1723 96.9708 33.305 96.838C33.4378 96.7052 33.5136 96.4966 33.5136 96.2311V93.9932H34.0826V96.2121C34.0826 96.4966 34.0257 96.7432 33.8929 96.9328C33.7602 97.1225 33.6085 97.2742 33.3998 97.369C33.1912 97.4639 32.9636 97.5208 32.7171 97.5208C32.4705 97.5208 32.2429 97.4639 32.0343 97.369C31.8257 97.2742 31.655 97.1225 31.5412 96.9328C31.4274 96.7432 31.3516 96.4966 31.3516 96.2121V93.9932H31.9205Z" fill="#7D1718"/>
<path d="M37.1338 97.4828L36.3372 96.0794H35.901V97.4828H35.332V93.9932H36.5458C36.8113 93.9932 37.0389 94.0311 37.2286 94.1259C37.4182 94.2207 37.551 94.3535 37.6458 94.5052C37.7407 94.657 37.7786 94.8466 37.7786 95.0363C37.7786 95.2639 37.7217 95.4725 37.5889 95.6621C37.4562 95.8518 37.2475 95.9656 36.982 96.0414L37.8544 97.4828H37.1338ZM35.901 95.6432H36.5269C36.7355 95.6432 36.9062 95.5863 37.02 95.4914C37.1338 95.3776 37.1907 95.2449 37.1907 95.0552C37.1907 94.8656 37.1338 94.7328 37.0389 94.638C36.9251 94.5432 36.7734 94.4863 36.5458 94.4863H35.92V95.6432H35.901Z" fill="#7D1718"/>
<path d="M39.5612 93.9932V96.2311C39.5612 96.4966 39.637 96.7052 39.7698 96.838C39.9025 96.9708 40.1112 97.0466 40.3577 97.0466C40.6043 97.0466 40.8129 96.9708 40.9456 96.838C41.0784 96.7052 41.1543 96.4966 41.1543 96.2311V93.9932H41.7232V96.2121C41.7232 96.4966 41.6663 96.7432 41.5336 96.9328C41.4008 97.1225 41.2491 97.2742 41.0405 97.369C40.8318 97.4639 40.6043 97.5208 40.3577 97.5208C40.1112 97.5208 39.8836 97.4639 39.6749 97.369C39.4663 97.2742 39.2956 97.1225 39.1818 96.9328C39.068 96.7432 38.9922 96.4966 38.9922 96.2121V93.9932H39.5612Z" fill="#7D1718"/>
<path d="M45.4978 94.998C45.403 94.8273 45.2892 94.6946 45.1185 94.5997C44.9668 94.5049 44.7771 94.467 44.5685 94.467C44.3409 94.467 44.1323 94.5239 43.9426 94.6187C43.753 94.7135 43.6202 94.8653 43.5254 95.0549C43.4306 95.2446 43.3737 95.4722 43.3737 95.7187C43.3737 95.9653 43.4306 96.1929 43.5254 96.3825C43.6202 96.5722 43.7719 96.7239 43.9426 96.8187C44.1323 96.9135 44.3219 96.9704 44.5685 96.9704C44.8719 96.9704 45.1374 96.8756 45.3271 96.7049C45.5168 96.5342 45.6495 96.2877 45.6874 96.0032H44.3788V95.548H46.3133V96.0032C46.2754 96.2687 46.1805 96.5342 46.0288 96.7618C45.8771 96.9894 45.6685 97.1791 45.4219 97.3118C45.1754 97.4446 44.8909 97.5204 44.5874 97.5204C44.265 97.5204 43.9616 97.4446 43.6961 97.2929C43.4305 97.1411 43.203 96.9325 43.0512 96.648C42.8995 96.3825 42.8047 96.0601 42.8047 95.7187C42.8047 95.3773 42.8806 95.0739 43.0512 94.7894C43.203 94.5239 43.4305 94.2963 43.6961 94.1446C43.9616 93.9929 44.265 93.917 44.5874 93.917C44.9668 93.917 45.2892 94.0118 45.5737 94.1825C45.8581 94.3722 46.0668 94.6187 46.1995 94.9601H45.4978V94.998Z" fill="#7D1718"/>
<path d="M49.1767 97.4828L48.3802 96.0794H47.944V97.4828H47.375V93.9932H48.5888C48.8543 93.9932 49.0819 94.0311 49.2715 94.1259C49.4612 94.2207 49.594 94.3535 49.6888 94.5052C49.7836 94.657 49.8216 94.8466 49.8216 95.0363C49.8216 95.2639 49.7647 95.4725 49.6319 95.6621C49.4991 95.8518 49.2905 95.9656 49.025 96.0414L49.8974 97.4828H49.1767ZM47.944 95.6432H48.5698C48.7784 95.6432 48.9491 95.5863 49.0629 95.4914C49.1767 95.3776 49.2336 95.2449 49.2336 95.0552C49.2336 94.8656 49.1767 94.7328 49.0819 94.638C48.9681 94.5432 48.8164 94.4863 48.5888 94.4863H47.9629V95.6432H47.944Z" fill="#7D1718"/>
<path d="M53.1614 96.7811H51.7011L51.4545 97.5018H50.8477L52.0994 93.9932H52.7632L54.0149 97.5018H53.408L53.1614 96.7811ZM52.9908 96.307L52.4218 94.6759L51.8528 96.307H52.9908Z" fill="#7D1718"/>
<path d="M58.7379 93.9932V97.4828H58.1689V95.0932L57.0879 97.4828H56.7086L55.6276 95.0932V97.4828H55.0586V93.9932H55.6655L56.8983 96.7432L58.131 93.9932H58.7379Z" fill="#7D1718"/>
<path d="M70.3633 90.7119H15.3633V91.0154H70.3633V90.7119Z" fill="#B78D2E"/>
</svg>
