<svg width="205" height="60" viewBox="0 0 205 60" fill="none" xmlns="http://www.w3.org/2000/svg">
<path d="M0 4C0 1.79086 1.79086 0 4 0H60V60H4C1.79086 60 0 58.2091 0 56V4Z" fill="url(#paint0_linear_696_1635)"/>
<path d="M29.3008 23.6995L35.3357 23.6993L35.3357 29.7344" stroke="white" stroke-width="1.5" stroke-linecap="round"/>
<path d="M24.0156 35.0154L35.138 23.893" stroke="white" stroke-width="1.5" stroke-linecap="round"/>
<path d="M201 1C202.657 1 204 2.34315 204 4V56C204 57.6569 202.657 59 201 59H61V1H201Z" stroke="#000E38" stroke-width="2"/>
<path d="M84.4297 25.5059C85.3366 25.5059 86.084 25.6152 86.6719 25.834C87.2643 26.0527 87.7041 26.3831 87.9912 26.8252C88.2783 27.2673 88.4219 27.8255 88.4219 28.5C88.4219 28.9557 88.3353 29.3545 88.1621 29.6963C87.9889 30.0381 87.7611 30.3275 87.4785 30.5645C87.196 30.8014 86.8906 30.9951 86.5625 31.1455L89.502 35.5H87.1504L84.7646 31.665H83.6367V35.5H81.5176V25.5059H84.4297ZM84.2793 27.2422H83.6367V29.9424H84.3203C85.0221 29.9424 85.5234 29.8262 85.8242 29.5938C86.1296 29.3568 86.2822 29.0104 86.2822 28.5547C86.2822 28.0807 86.1182 27.7435 85.79 27.543C85.4665 27.3424 84.9629 27.2422 84.2793 27.2422ZM96.5156 35.5H90.7598V25.5059H96.5156V27.2422H92.8789V29.4365H96.2627V31.1729H92.8789V33.75H96.5156V35.5ZM102.401 29.8877H106.366V35.0693C105.842 35.2425 105.298 35.3815 104.732 35.4863C104.167 35.5866 103.527 35.6367 102.812 35.6367C101.818 35.6367 100.975 35.4408 100.282 35.0488C99.5895 34.6569 99.0632 34.0781 98.7031 33.3125C98.3431 32.5469 98.1631 31.6058 98.1631 30.4893C98.1631 29.4411 98.3636 28.5342 98.7646 27.7686C99.1702 27.0029 99.7604 26.4105 100.535 25.9912C101.314 25.5719 102.265 25.3623 103.386 25.3623C103.914 25.3623 104.436 25.4193 104.951 25.5332C105.466 25.6471 105.933 25.7952 106.353 25.9775L105.648 27.6729C105.343 27.5179 104.994 27.388 104.603 27.2832C104.211 27.1784 103.8 27.126 103.372 27.126C102.757 27.126 102.221 27.2673 101.766 27.5498C101.314 27.8324 100.964 28.2288 100.713 28.7393C100.467 29.2451 100.344 29.8421 100.344 30.5303C100.344 31.182 100.433 31.7607 100.61 32.2666C100.788 32.7679 101.068 33.1621 101.451 33.4492C101.834 33.7318 102.333 33.873 102.948 33.873C103.249 33.873 103.502 33.8594 103.707 33.832C103.917 33.8001 104.113 33.7682 104.295 33.7363V31.6514H102.401V29.8877ZM108.752 35.5V25.5059H110.871V35.5H108.752ZM119.286 32.7246C119.286 33.3171 119.143 33.832 118.855 34.2695C118.568 34.707 118.149 35.0443 117.598 35.2812C117.051 35.5182 116.385 35.6367 115.602 35.6367C115.255 35.6367 114.916 35.6139 114.583 35.5684C114.255 35.5228 113.938 35.4567 113.633 35.3701C113.332 35.279 113.045 35.1673 112.771 35.0352V33.0664C113.245 33.276 113.738 33.4652 114.248 33.6338C114.758 33.8024 115.264 33.8867 115.766 33.8867C116.112 33.8867 116.39 33.8411 116.6 33.75C116.814 33.6589 116.969 33.5335 117.064 33.374C117.16 33.2145 117.208 33.0322 117.208 32.8271C117.208 32.5765 117.124 32.3623 116.955 32.1846C116.786 32.0068 116.554 31.8405 116.258 31.6855C115.966 31.5306 115.636 31.3643 115.267 31.1865C115.034 31.0771 114.781 30.945 114.508 30.79C114.234 30.6305 113.975 30.4368 113.729 30.209C113.482 29.9811 113.28 29.7054 113.12 29.3818C112.965 29.0537 112.888 28.6618 112.888 28.2061C112.888 27.609 113.024 27.0986 113.298 26.6748C113.571 26.251 113.961 25.9274 114.467 25.7041C114.977 25.4762 115.579 25.3623 116.271 25.3623C116.791 25.3623 117.285 25.4238 117.755 25.5469C118.229 25.6654 118.723 25.8385 119.238 26.0664L118.555 27.7139C118.094 27.527 117.682 27.3835 117.317 27.2832C116.953 27.1784 116.581 27.126 116.203 27.126C115.939 27.126 115.713 27.1693 115.526 27.2559C115.34 27.3379 115.198 27.4564 115.103 27.6113C115.007 27.7617 114.959 27.9372 114.959 28.1377C114.959 28.3747 115.027 28.5752 115.164 28.7393C115.305 28.8988 115.515 29.0537 115.793 29.2041C116.076 29.3545 116.426 29.5299 116.846 29.7305C117.356 29.972 117.791 30.2249 118.151 30.4893C118.516 30.749 118.796 31.0566 118.992 31.4121C119.188 31.763 119.286 32.2005 119.286 32.7246ZM124.953 35.5H122.834V27.2695H120.12V25.5059H127.667V27.2695H124.953V35.5ZM134.961 35.5H129.205V25.5059H134.961V27.2422H131.324V29.4365H134.708V31.1729H131.324V33.75H134.961V35.5ZM139.965 25.5059C140.872 25.5059 141.619 25.6152 142.207 25.834C142.799 26.0527 143.239 26.3831 143.526 26.8252C143.813 27.2673 143.957 27.8255 143.957 28.5C143.957 28.9557 143.87 29.3545 143.697 29.6963C143.524 30.0381 143.296 30.3275 143.014 30.5645C142.731 30.8014 142.426 30.9951 142.098 31.1455L145.037 35.5H142.686L140.3 31.665H139.172V35.5H137.053V25.5059H139.965ZM139.814 27.2422H139.172V29.9424H139.855C140.557 29.9424 141.059 29.8262 141.359 29.5938C141.665 29.3568 141.817 29.0104 141.817 28.5547C141.817 28.0807 141.653 27.7435 141.325 27.543C141.002 27.3424 140.498 27.2422 139.814 27.2422ZM158.798 35.5H156.104L151.757 27.9395H151.695C151.714 28.2539 151.729 28.5706 151.743 28.8896C151.757 29.2087 151.771 29.5277 151.784 29.8467C151.798 30.1611 151.812 30.4779 151.825 30.7969V35.5H149.932V25.5059H152.604L156.945 32.9912H156.993C156.984 32.6813 156.973 32.3737 156.959 32.0684C156.945 31.763 156.932 31.4577 156.918 31.1523C156.909 30.847 156.9 30.5417 156.891 30.2363V25.5059H158.798V35.5ZM170.392 30.4893C170.392 31.2594 170.296 31.9613 170.104 32.5947C169.913 33.2236 169.621 33.766 169.229 34.2217C168.842 34.6774 168.35 35.0283 167.753 35.2744C167.156 35.516 166.45 35.6367 165.634 35.6367C164.818 35.6367 164.112 35.516 163.515 35.2744C162.918 35.0283 162.423 34.6774 162.031 34.2217C161.644 33.766 161.354 33.2214 161.163 32.5879C160.972 31.9544 160.876 31.2503 160.876 30.4756C160.876 29.4411 161.045 28.541 161.382 27.7754C161.724 27.0052 162.248 26.4082 162.954 25.9844C163.66 25.5605 164.558 25.3486 165.647 25.3486C166.732 25.3486 167.623 25.5605 168.32 25.9844C169.022 26.4082 169.542 27.0052 169.879 27.7754C170.221 28.5456 170.392 29.4502 170.392 30.4893ZM163.098 30.4893C163.098 31.1865 163.184 31.7881 163.357 32.2939C163.535 32.7952 163.811 33.1826 164.185 33.4561C164.558 33.7249 165.041 33.8594 165.634 33.8594C166.235 33.8594 166.723 33.7249 167.097 33.4561C167.47 33.1826 167.742 32.7952 167.91 32.2939C168.083 31.7881 168.17 31.1865 168.17 30.4893C168.17 29.4411 167.974 28.6162 167.582 28.0146C167.19 27.4131 166.545 27.1123 165.647 27.1123C165.05 27.1123 164.563 27.249 164.185 27.5225C163.811 27.7913 163.535 28.1787 163.357 28.6846C163.184 29.1859 163.098 29.7874 163.098 30.4893ZM184.74 25.5059L182.197 35.5H179.784L178.431 30.25C178.403 30.1497 178.367 29.9971 178.321 29.792C178.276 29.5869 178.228 29.3636 178.178 29.1221C178.128 28.876 178.082 28.6458 178.041 28.4316C178.005 28.2129 177.979 28.0397 177.966 27.9121C177.952 28.0397 177.925 28.2106 177.884 28.4248C177.847 28.639 177.804 28.8669 177.754 29.1084C177.708 29.3499 177.663 29.5755 177.617 29.7852C177.572 29.9948 177.535 30.1543 177.508 30.2637L176.161 35.5H173.755L171.205 25.5059H173.29L174.568 30.9609C174.605 31.125 174.646 31.321 174.691 31.5488C174.742 31.7767 174.789 32.016 174.835 32.2666C174.885 32.5127 174.928 32.752 174.965 32.9844C175.006 33.2122 175.035 33.4105 175.054 33.5791C175.076 33.4059 175.106 33.2054 175.143 32.9775C175.179 32.7451 175.218 32.5104 175.259 32.2734C175.304 32.0319 175.35 31.8086 175.396 31.6035C175.441 31.3984 175.482 31.2321 175.519 31.1045L176.975 25.5059H178.978L180.434 31.1045C180.465 31.2275 180.502 31.3939 180.543 31.6035C180.589 31.8086 180.634 32.0319 180.68 32.2734C180.725 32.515 180.766 32.752 180.803 32.9844C180.844 33.2122 180.873 33.4105 180.892 33.5791C180.924 33.3512 180.967 33.0755 181.021 32.752C181.081 32.4238 181.142 32.098 181.206 31.7744C181.274 31.4508 181.334 31.1797 181.384 30.9609L182.655 25.5059H184.74Z" fill="#030E3B"/>
<defs>
<linearGradient id="paint0_linear_696_1635" x1="60" y1="30" x2="0" y2="30" gradientUnits="userSpaceOnUse">
<stop stop-color="#000E38"/>
<stop offset="1" stop-color="#3F186A"/>
</linearGradient>
</defs>
</svg>
